<svg xmlns="http://www.w3.org/2000/svg" xmlns:xlink="http://www.w3.org/1999/xlink" width="500" zoomAndPan="magnify" viewBox="0 0 375 374.999991" height="500" preserveAspectRatio="xMidYMid meet" version="1.0"><defs><clipPath id="5788117f71"><path d="M 37.5 83 L 288 83 L 288 144 L 37.5 144 Z M 37.5 83 " clip-rule="nonzero"/></clipPath><clipPath id="e1f07c9ff0"><path d="M 37.5 133 L 288 133 L 288 294 L 37.5 294 Z M 37.5 133 " clip-rule="nonzero"/></clipPath><clipPath id="6b24887e32"><path d="M 212 58.964844 L 243 58.964844 L 243 119 L 212 119 Z M 212 58.964844 " clip-rule="nonzero"/></clipPath><clipPath id="30a288d368"><path d="M 82 58.964844 L 113 58.964844 L 113 119 L 82 119 Z M 82 58.964844 " clip-rule="nonzero"/></clipPath><clipPath id="27c081c228"><path d="M 187 178 L 337.5 178 L 337.5 328.964844 L 187 328.964844 Z M 187 178 " clip-rule="nonzero"/></clipPath><clipPath id="accdbae7be"><path d="M 257 303 L 268 303 L 268 328.964844 L 257 328.964844 Z M 257 303 " clip-rule="nonzero"/></clipPath><clipPath id="a8a154e805"><path d="M 312 248 L 337.5 248 L 337.5 259 L 312 259 Z M 312 248 " clip-rule="nonzero"/></clipPath><clipPath id="89fad45d1a"><path d="M 187 178 L 337.5 178 L 337.5 328.964844 L 187 328.964844 Z M 187 178 " clip-rule="nonzero"/></clipPath></defs><rect x="-37.5" width="450" fill="#ffffff" y="-37.499999" height="449.999989" fill-opacity="1"/><rect x="-37.5" width="450" fill="#ffffff" y="-37.499999" height="449.999989" fill-opacity="1"/><g clip-path="url(#5788117f71)"><path fill="#f44336" d="M 272.5 83.964844 L 52.5 83.964844 C 51.515625 83.964844 50.539062 84.0625 49.574219 84.253906 C 48.609375 84.445312 47.671875 84.730469 46.761719 85.109375 C 45.851562 85.488281 44.988281 85.949219 44.171875 86.496094 C 43.351562 87.042969 42.59375 87.664062 41.898438 88.359375 C 41.203125 89.058594 40.582031 89.816406 40.03125 90.632812 C 39.484375 91.453125 39.023438 92.316406 38.644531 93.226562 C 38.269531 94.136719 37.984375 95.074219 37.789062 96.039062 C 37.597656 97.003906 37.5 97.976562 37.5 98.964844 L 37.5 143.964844 L 287.5 143.964844 L 287.5 98.964844 C 287.5 97.976562 287.402344 97.003906 287.210938 96.039062 C 287.015625 95.074219 286.730469 94.136719 286.355469 93.226562 C 285.976562 92.316406 285.515625 91.453125 284.96875 90.632812 C 284.417969 89.816406 283.796875 89.058594 283.101562 88.359375 C 282.40625 87.664062 281.648438 87.042969 280.828125 86.496094 C 280.011719 85.949219 279.148438 85.488281 278.238281 85.109375 C 277.328125 84.730469 276.390625 84.445312 275.425781 84.253906 C 274.460938 84.0625 273.484375 83.964844 272.5 83.964844 Z M 272.5 83.964844 " fill-opacity="1" fill-rule="nonzero"/></g><g clip-path="url(#e1f07c9ff0)"><path fill="#f5f5f5" d="M 37.5 133.964844 L 37.5 278.964844 C 37.5 279.949219 37.597656 280.921875 37.789062 281.886719 C 37.984375 282.855469 38.269531 283.792969 38.644531 284.699219 C 39.023438 285.609375 39.484375 286.472656 40.03125 287.292969 C 40.582031 288.109375 41.203125 288.867188 41.898438 289.566406 C 42.59375 290.261719 43.351562 290.882812 44.171875 291.429688 C 44.988281 291.976562 45.851562 292.441406 46.761719 292.816406 C 47.671875 293.195312 48.609375 293.480469 49.574219 293.671875 C 50.539062 293.863281 51.515625 293.960938 52.5 293.964844 L 272.5 293.964844 C 273.484375 293.960938 274.460938 293.863281 275.425781 293.671875 C 276.390625 293.480469 277.328125 293.195312 278.238281 292.816406 C 279.148438 292.441406 280.011719 291.976562 280.828125 291.429688 C 281.648438 290.882812 282.40625 290.261719 283.101562 289.566406 C 283.796875 288.867188 284.417969 288.109375 284.96875 287.292969 C 285.515625 286.472656 285.976562 285.609375 286.355469 284.699219 C 286.730469 283.792969 287.015625 282.855469 287.210938 281.886719 C 287.402344 280.921875 287.5 279.949219 287.5 278.964844 L 287.5 133.964844 Z M 37.5 133.964844 " fill-opacity="1" fill-rule="nonzero"/></g><g clip-path="url(#6b24887e32)"><path fill="#424242" d="M 227.5 58.964844 C 226.515625 58.964844 225.539062 59.0625 224.574219 59.253906 C 223.609375 59.445312 222.671875 59.730469 221.761719 60.109375 C 220.851562 60.488281 219.988281 60.949219 219.171875 61.496094 C 218.351562 62.042969 217.59375 62.664062 216.898438 63.359375 C 216.203125 64.058594 215.582031 64.816406 215.03125 65.632812 C 214.484375 66.453125 214.023438 67.316406 213.644531 68.226562 C 213.269531 69.136719 212.984375 70.074219 212.789062 71.039062 C 212.597656 72.003906 212.5 72.976562 212.5 73.964844 L 212.5 103.964844 C 212.5 104.949219 212.597656 105.921875 212.789062 106.890625 C 212.980469 107.855469 213.265625 108.792969 213.640625 109.703125 C 214.019531 110.613281 214.480469 111.476562 215.027344 112.296875 C 215.574219 113.117188 216.195312 113.875 216.894531 114.570312 C 217.589844 115.265625 218.347656 115.886719 219.167969 116.433594 C 219.984375 116.980469 220.851562 117.445312 221.757812 117.820312 C 222.667969 118.199219 223.609375 118.484375 224.574219 118.675781 C 225.539062 118.867188 226.515625 118.964844 227.5 118.964844 C 228.484375 118.964844 229.460938 118.867188 230.425781 118.675781 C 231.390625 118.484375 232.332031 118.199219 233.238281 117.820312 C 234.148438 117.445312 235.015625 116.980469 235.832031 116.433594 C 236.652344 115.886719 237.410156 115.265625 238.105469 114.570312 C 238.804688 113.875 239.425781 113.117188 239.972656 112.296875 C 240.519531 111.476562 240.980469 110.613281 241.359375 109.703125 C 241.734375 108.792969 242.019531 107.855469 242.210938 106.890625 C 242.402344 105.921875 242.5 104.949219 242.5 103.964844 L 242.5 73.964844 C 242.5 72.976562 242.402344 72.003906 242.210938 71.039062 C 242.015625 70.074219 241.730469 69.136719 241.355469 68.226562 C 240.976562 67.316406 240.515625 66.453125 239.96875 65.632812 C 239.417969 64.816406 238.796875 64.058594 238.101562 63.359375 C 237.40625 62.664062 236.648438 62.042969 235.828125 61.496094 C 235.011719 60.949219 234.148438 60.488281 233.238281 60.109375 C 232.328125 59.730469 231.390625 59.445312 230.425781 59.253906 C 229.460938 59.0625 228.484375 58.964844 227.5 58.964844 Z M 227.5 58.964844 " fill-opacity="1" fill-rule="nonzero"/></g><g clip-path="url(#30a288d368)"><path fill="#424242" d="M 97.5 58.964844 C 96.515625 58.964844 95.539062 59.0625 94.574219 59.253906 C 93.609375 59.445312 92.671875 59.730469 91.761719 60.109375 C 90.851562 60.488281 89.988281 60.949219 89.171875 61.496094 C 88.351562 62.042969 87.59375 62.664062 86.898438 63.359375 C 86.203125 64.058594 85.582031 64.816406 85.03125 65.632812 C 84.484375 66.453125 84.023438 67.316406 83.644531 68.226562 C 83.269531 69.136719 82.984375 70.074219 82.789062 71.039062 C 82.597656 72.003906 82.5 72.976562 82.5 73.964844 L 82.5 103.964844 C 82.5 104.949219 82.597656 105.921875 82.789062 106.890625 C 82.980469 107.855469 83.265625 108.792969 83.640625 109.703125 C 84.019531 110.613281 84.480469 111.476562 85.027344 112.296875 C 85.574219 113.117188 86.195312 113.875 86.894531 114.570312 C 87.589844 115.265625 88.347656 115.886719 89.167969 116.433594 C 89.984375 116.980469 90.851562 117.445312 91.757812 117.820312 C 92.667969 118.199219 93.609375 118.484375 94.574219 118.675781 C 95.539062 118.867188 96.515625 118.964844 97.5 118.964844 C 98.484375 118.964844 99.460938 118.867188 100.425781 118.675781 C 101.390625 118.484375 102.332031 118.199219 103.242188 117.820312 C 104.148438 117.445312 105.015625 116.980469 105.832031 116.433594 C 106.652344 115.886719 107.410156 115.265625 108.105469 114.570312 C 108.804688 113.875 109.425781 113.117188 109.972656 112.296875 C 110.519531 111.476562 110.980469 110.613281 111.359375 109.703125 C 111.734375 108.792969 112.019531 107.855469 112.210938 106.890625 C 112.402344 105.921875 112.5 104.949219 112.5 103.964844 L 112.5 73.964844 C 112.5 72.976562 112.402344 72.003906 112.210938 71.039062 C 112.015625 70.074219 111.730469 69.136719 111.355469 68.226562 C 110.976562 67.316406 110.515625 66.453125 109.96875 65.632812 C 109.417969 64.816406 108.796875 64.058594 108.101562 63.359375 C 107.40625 62.664062 106.648438 62.042969 105.828125 61.496094 C 105.011719 60.949219 104.148438 60.488281 103.238281 60.109375 C 102.328125 59.730469 101.390625 59.445312 100.425781 59.253906 C 99.460938 59.0625 98.484375 58.964844 97.5 58.964844 Z M 97.5 58.964844 " fill-opacity="1" fill-rule="nonzero"/></g><path fill="#ffb300" d="M 152.5 153.964844 L 172.5 153.964844 C 173.484375 153.964844 174.460938 154.058594 175.425781 154.25 C 176.390625 154.445312 177.332031 154.726562 178.238281 155.105469 C 179.148438 155.480469 180.015625 155.945312 180.832031 156.492188 C 181.652344 157.039062 182.410156 157.660156 183.105469 158.355469 C 183.804688 159.054688 184.425781 159.8125 184.972656 160.628906 C 185.519531 161.449219 185.980469 162.3125 186.359375 163.222656 C 186.734375 164.132812 187.019531 165.070312 187.210938 166.035156 C 187.402344 167.003906 187.5 167.976562 187.5 168.964844 L 187.5 188.964844 C 187.5 189.949219 187.402344 190.921875 187.210938 191.890625 C 187.019531 192.855469 186.734375 193.792969 186.359375 194.703125 C 185.980469 195.613281 185.519531 196.476562 184.972656 197.296875 C 184.425781 198.117188 183.804688 198.875 183.105469 199.570312 C 182.410156 200.265625 181.652344 200.886719 180.832031 201.433594 C 180.015625 201.980469 179.148438 202.445312 178.238281 202.820312 C 177.332031 203.199219 176.390625 203.484375 175.425781 203.675781 C 174.460938 203.867188 173.484375 203.964844 172.5 203.964844 L 152.5 203.964844 C 151.515625 203.964844 150.539062 203.867188 149.574219 203.675781 C 148.609375 203.484375 147.667969 203.199219 146.757812 202.820312 C 145.851562 202.445312 144.984375 201.980469 144.167969 201.433594 C 143.347656 200.886719 142.589844 200.265625 141.894531 199.570312 C 141.195312 198.875 140.574219 198.117188 140.027344 197.296875 C 139.480469 196.476562 139.019531 195.613281 138.640625 194.703125 C 138.265625 193.792969 137.980469 192.855469 137.789062 191.890625 C 137.597656 190.921875 137.5 189.949219 137.5 188.964844 L 137.5 168.964844 C 137.5 167.976562 137.597656 167.003906 137.789062 166.035156 C 137.980469 165.070312 138.265625 164.132812 138.640625 163.222656 C 139.019531 162.3125 139.480469 161.449219 140.027344 160.628906 C 140.574219 159.8125 141.195312 159.054688 141.894531 158.355469 C 142.589844 157.660156 143.347656 157.039062 144.167969 156.492188 C 144.984375 155.945312 145.851562 155.480469 146.757812 155.105469 C 147.667969 154.726562 148.609375 154.445312 149.574219 154.25 C 150.539062 154.058594 151.515625 153.964844 152.5 153.964844 Z M 152.5 153.964844 " fill-opacity="1" fill-rule="nonzero"/><path fill="#ffb300" d="M 222.5 153.964844 L 242.5 153.964844 C 243.484375 153.964844 244.460938 154.058594 245.425781 154.25 C 246.390625 154.445312 247.332031 154.726562 248.238281 155.105469 C 249.148438 155.480469 250.015625 155.945312 250.832031 156.492188 C 251.652344 157.039062 252.410156 157.660156 253.105469 158.355469 C 253.804688 159.054688 254.425781 159.8125 254.972656 160.628906 C 255.519531 161.449219 255.980469 162.3125 256.359375 163.222656 C 256.734375 164.132812 257.019531 165.070312 257.210938 166.035156 C 257.402344 167.003906 257.5 167.976562 257.5 168.964844 L 257.5 188.964844 C 257.5 189.949219 257.402344 190.921875 257.210938 191.890625 C 257.019531 192.855469 256.734375 193.792969 256.359375 194.703125 C 255.980469 195.613281 255.519531 196.476562 254.972656 197.296875 C 254.425781 198.117188 253.804688 198.875 253.105469 199.570312 C 252.410156 200.265625 251.652344 200.886719 250.832031 201.433594 C 250.015625 201.980469 249.148438 202.445312 248.238281 202.820312 C 247.332031 203.199219 246.390625 203.484375 245.425781 203.675781 C 244.460938 203.867188 243.484375 203.964844 242.5 203.964844 L 222.5 203.964844 C 221.515625 203.964844 220.539062 203.867188 219.574219 203.675781 C 218.609375 203.484375 217.667969 203.199219 216.757812 202.820312 C 215.851562 202.445312 214.984375 201.980469 214.167969 201.433594 C 213.347656 200.886719 212.589844 200.265625 211.894531 199.570312 C 211.195312 198.875 210.574219 198.117188 210.027344 197.296875 C 209.480469 196.476562 209.019531 195.613281 208.640625 194.703125 C 208.265625 193.792969 207.980469 192.855469 207.789062 191.890625 C 207.597656 190.921875 207.5 189.949219 207.5 188.964844 L 207.5 168.964844 C 207.5 167.976562 207.597656 167.003906 207.789062 166.035156 C 207.980469 165.070312 208.265625 164.132812 208.640625 163.222656 C 209.019531 162.3125 209.480469 161.449219 210.027344 160.628906 C 210.574219 159.8125 211.195312 159.054688 211.894531 158.355469 C 212.589844 157.660156 213.347656 157.039062 214.167969 156.492188 C 214.984375 155.945312 215.851562 155.480469 216.757812 155.105469 C 217.667969 154.726562 218.609375 154.445312 219.574219 154.25 C 220.539062 154.058594 221.515625 153.964844 222.5 153.964844 Z M 222.5 153.964844 " fill-opacity="1" fill-rule="nonzero"/><path fill="#ffb300" d="M 82.5 153.964844 L 102.5 153.964844 C 103.484375 153.964844 104.460938 154.058594 105.425781 154.25 C 106.390625 154.445312 107.332031 154.726562 108.242188 155.105469 C 109.148438 155.480469 110.015625 155.945312 110.832031 156.492188 C 111.652344 157.039062 112.410156 157.660156 113.105469 158.355469 C 113.804688 159.054688 114.425781 159.8125 114.972656 160.628906 C 115.519531 161.449219 115.980469 162.3125 116.359375 163.222656 C 116.734375 164.132812 117.019531 165.070312 117.210938 166.035156 C 117.402344 167.003906 117.5 167.976562 117.5 168.964844 L 117.5 188.964844 C 117.5 189.949219 117.402344 190.921875 117.210938 191.890625 C 117.019531 192.855469 116.734375 193.792969 116.359375 194.703125 C 115.980469 195.613281 115.519531 196.476562 114.972656 197.296875 C 114.425781 198.117188 113.804688 198.875 113.105469 199.570312 C 112.410156 200.265625 111.652344 200.886719 110.832031 201.433594 C 110.015625 201.980469 109.148438 202.445312 108.242188 202.820312 C 107.332031 203.199219 106.390625 203.484375 105.425781 203.675781 C 104.460938 203.867188 103.484375 203.964844 102.5 203.964844 L 82.5 203.964844 C 81.515625 203.964844 80.539062 203.867188 79.574219 203.675781 C 78.609375 203.484375 77.667969 203.199219 76.757812 202.820312 C 75.851562 202.445312 74.984375 201.980469 74.167969 201.433594 C 73.347656 200.886719 72.589844 200.265625 71.894531 199.570312 C 71.195312 198.875 70.574219 198.117188 70.027344 197.296875 C 69.480469 196.476562 69.019531 195.613281 68.640625 194.703125 C 68.265625 193.792969 67.980469 192.855469 67.789062 191.890625 C 67.597656 190.921875 67.5 189.949219 67.5 188.964844 L 67.5 168.964844 C 67.5 167.976562 67.597656 167.003906 67.789062 166.035156 C 67.980469 165.070312 68.265625 164.132812 68.640625 163.222656 C 69.019531 162.3125 69.480469 161.449219 70.027344 160.628906 C 70.574219 159.8125 71.195312 159.054688 71.894531 158.355469 C 72.589844 157.660156 73.347656 157.039062 74.167969 156.492188 C 74.984375 155.945312 75.851562 155.480469 76.757812 155.105469 C 77.667969 154.726562 78.609375 154.445312 79.574219 154.25 C 80.539062 154.058594 81.515625 153.964844 82.5 153.964844 Z M 82.5 153.964844 " fill-opacity="1" fill-rule="nonzero"/><path fill="#ffb300" d="M 152.5 223.964844 L 172.5 223.964844 C 173.484375 223.964844 174.460938 224.058594 175.425781 224.25 C 176.390625 224.445312 177.332031 224.726562 178.238281 225.105469 C 179.148438 225.480469 180.015625 225.945312 180.832031 226.492188 C 181.652344 227.039062 182.410156 227.660156 183.105469 228.355469 C 183.804688 229.054688 184.425781 229.8125 184.972656 230.628906 C 185.519531 231.449219 185.980469 232.3125 186.359375 233.222656 C 186.734375 234.132812 187.019531 235.070312 187.210938 236.035156 C 187.402344 237.003906 187.5 237.976562 187.5 238.964844 L 187.5 258.964844 C 187.5 259.949219 187.402344 260.921875 187.210938 261.890625 C 187.019531 262.855469 186.734375 263.792969 186.359375 264.703125 C 185.980469 265.613281 185.519531 266.476562 184.972656 267.296875 C 184.425781 268.117188 183.804688 268.875 183.105469 269.570312 C 182.410156 270.265625 181.652344 270.886719 180.832031 271.433594 C 180.015625 271.980469 179.148438 272.445312 178.238281 272.820312 C 177.332031 273.199219 176.390625 273.484375 175.425781 273.675781 C 174.460938 273.867188 173.484375 273.964844 172.5 273.964844 L 152.5 273.964844 C 151.515625 273.964844 150.539062 273.867188 149.574219 273.675781 C 148.609375 273.484375 147.667969 273.199219 146.757812 272.820312 C 145.851562 272.445312 144.984375 271.980469 144.167969 271.433594 C 143.347656 270.886719 142.589844 270.265625 141.894531 269.570312 C 141.195312 268.875 140.574219 268.117188 140.027344 267.296875 C 139.480469 266.476562 139.019531 265.613281 138.640625 264.703125 C 138.265625 263.792969 137.980469 262.855469 137.789062 261.890625 C 137.597656 260.921875 137.5 259.949219 137.5 258.964844 L 137.5 238.964844 C 137.5 237.976562 137.597656 237.003906 137.789062 236.035156 C 137.980469 235.070312 138.265625 234.132812 138.640625 233.222656 C 139.019531 232.3125 139.480469 231.449219 140.027344 230.628906 C 140.574219 229.8125 141.195312 229.054688 141.894531 228.355469 C 142.589844 227.660156 143.347656 227.039062 144.167969 226.492188 C 144.984375 225.945312 145.851562 225.480469 146.757812 225.105469 C 147.667969 224.726562 148.609375 224.445312 149.574219 224.25 C 150.539062 224.058594 151.515625 223.964844 152.5 223.964844 Z M 152.5 223.964844 " fill-opacity="1" fill-rule="nonzero"/><path fill="#ffb300" d="M 82.5 223.964844 L 102.5 223.964844 C 103.484375 223.964844 104.460938 224.058594 105.425781 224.25 C 106.390625 224.445312 107.332031 224.726562 108.242188 225.105469 C 109.148438 225.480469 110.015625 225.945312 110.832031 226.492188 C 111.652344 227.039062 112.410156 227.660156 113.105469 228.355469 C 113.804688 229.054688 114.425781 229.8125 114.972656 230.628906 C 115.519531 231.449219 115.980469 232.3125 116.359375 233.222656 C 116.734375 234.132812 117.019531 235.070312 117.210938 236.035156 C 117.402344 237.003906 117.5 237.976562 117.5 238.964844 L 117.5 258.964844 C 117.5 259.949219 117.402344 260.921875 117.210938 261.890625 C 117.019531 262.855469 116.734375 263.792969 116.359375 264.703125 C 115.980469 265.613281 115.519531 266.476562 114.972656 267.296875 C 114.425781 268.117188 113.804688 268.875 113.105469 269.570312 C 112.410156 270.265625 111.652344 270.886719 110.832031 271.433594 C 110.015625 271.980469 109.148438 272.445312 108.242188 272.820312 C 107.332031 273.199219 106.390625 273.484375 105.425781 273.675781 C 104.460938 273.867188 103.484375 273.964844 102.5 273.964844 L 82.5 273.964844 C 81.515625 273.964844 80.539062 273.867188 79.574219 273.675781 C 78.609375 273.484375 77.667969 273.199219 76.757812 272.820312 C 75.851562 272.445312 74.984375 271.980469 74.167969 271.433594 C 73.347656 270.886719 72.589844 270.265625 71.894531 269.570312 C 71.195312 268.875 70.574219 268.117188 70.027344 267.296875 C 69.480469 266.476562 69.019531 265.613281 68.640625 264.703125 C 68.265625 263.792969 67.980469 262.855469 67.789062 261.890625 C 67.597656 260.921875 67.5 259.949219 67.5 258.964844 L 67.5 238.964844 C 67.5 237.976562 67.597656 237.003906 67.789062 236.035156 C 67.980469 235.070312 68.265625 234.132812 68.640625 233.222656 C 69.019531 232.3125 69.480469 231.449219 70.027344 230.628906 C 70.574219 229.8125 71.195312 229.054688 71.894531 228.355469 C 72.589844 227.660156 73.347656 227.039062 74.167969 226.492188 C 74.984375 225.945312 75.851562 225.480469 76.757812 225.105469 C 77.667969 224.726562 78.609375 224.445312 79.574219 224.25 C 80.539062 224.058594 81.515625 223.964844 82.5 223.964844 Z M 82.5 223.964844 " fill-opacity="1" fill-rule="nonzero"/><g clip-path="url(#27c081c228)"><path fill="#f5f5f5" d="M 337.5 253.964844 C 337.5 255.191406 337.46875 256.417969 337.410156 257.644531 C 337.347656 258.867188 337.257812 260.09375 337.140625 261.3125 C 337.019531 262.535156 336.867188 263.753906 336.6875 264.96875 C 336.507812 266.183594 336.296875 267.390625 336.058594 268.59375 C 335.820312 269.796875 335.550781 270.996094 335.253906 272.1875 C 334.953125 273.378906 334.625 274.558594 334.269531 275.734375 C 333.914062 276.910156 333.527344 278.074219 333.117188 279.230469 C 332.703125 280.386719 332.261719 281.53125 331.789062 282.664062 C 331.320312 283.796875 330.824219 284.921875 330.300781 286.03125 C 329.773438 287.140625 329.222656 288.234375 328.644531 289.316406 C 328.066406 290.398438 327.460938 291.46875 326.828125 292.519531 C 326.199219 293.574219 325.542969 294.609375 324.859375 295.628906 C 324.179688 296.652344 323.472656 297.65625 322.742188 298.640625 C 322.007812 299.625 321.253906 300.59375 320.476562 301.542969 C 319.695312 302.492188 318.894531 303.421875 318.070312 304.328125 C 317.246094 305.238281 316.402344 306.128906 315.53125 306.996094 C 314.664062 307.863281 313.777344 308.710938 312.867188 309.535156 C 311.957031 310.359375 311.027344 311.160156 310.078125 311.9375 C 309.128906 312.71875 308.164062 313.472656 307.175781 314.203125 C 306.191406 314.933594 305.1875 315.640625 304.167969 316.324219 C 303.148438 317.003906 302.109375 317.660156 301.058594 318.292969 C 300.003906 318.921875 298.9375 319.527344 297.855469 320.105469 C 296.773438 320.6875 295.675781 321.238281 294.566406 321.761719 C 293.457031 322.285156 292.335938 322.785156 291.203125 323.253906 C 290.066406 323.722656 288.921875 324.164062 287.765625 324.578125 C 286.609375 324.992188 285.445312 325.378906 284.269531 325.734375 C 283.097656 326.089844 281.914062 326.417969 280.722656 326.714844 C 279.53125 327.011719 278.335938 327.28125 277.132812 327.523438 C 275.929688 327.761719 274.71875 327.972656 273.503906 328.152344 C 272.289062 328.332031 271.074219 328.480469 269.851562 328.601562 C 268.628906 328.722656 267.40625 328.8125 266.179688 328.871094 C 264.953125 328.933594 263.726562 328.964844 262.5 328.964844 C 261.273438 328.964844 260.046875 328.933594 258.820312 328.871094 C 257.59375 328.8125 256.371094 328.722656 255.148438 328.601562 C 253.925781 328.480469 252.710938 328.332031 251.496094 328.152344 C 250.28125 327.972656 249.070312 327.761719 247.867188 327.523438 C 246.664062 327.28125 245.46875 327.011719 244.277344 326.714844 C 243.085938 326.417969 241.902344 326.089844 240.730469 325.734375 C 239.554688 325.378906 238.390625 324.992188 237.234375 324.578125 C 236.078125 324.164062 234.933594 323.722656 233.796875 323.253906 C 232.664062 322.785156 231.542969 322.285156 230.433594 321.761719 C 229.324219 321.238281 228.226562 320.6875 227.144531 320.105469 C 226.0625 319.527344 224.996094 318.921875 223.941406 318.292969 C 222.890625 317.660156 221.851562 317.003906 220.832031 316.324219 C 219.8125 315.640625 218.808594 314.933594 217.824219 314.203125 C 216.835938 313.472656 215.871094 312.71875 214.921875 311.9375 C 213.972656 311.160156 213.042969 310.359375 212.132812 309.535156 C 211.222656 308.710938 210.335938 307.863281 209.46875 306.996094 C 208.597656 306.128906 207.753906 305.238281 206.929688 304.328125 C 206.105469 303.421875 205.304688 302.492188 204.523438 301.542969 C 203.746094 300.59375 202.992188 299.625 202.257812 298.640625 C 201.527344 297.65625 200.820312 296.652344 200.140625 295.628906 C 199.457031 294.609375 198.800781 293.574219 198.171875 292.519531 C 197.539062 291.46875 196.933594 290.398438 196.355469 289.316406 C 195.777344 288.234375 195.226562 287.140625 194.699219 286.03125 C 194.175781 284.921875 193.679688 283.796875 193.210938 282.664062 C 192.738281 281.53125 192.296875 280.386719 191.882812 279.230469 C 191.46875 278.074219 191.085938 276.910156 190.730469 275.734375 C 190.375 274.558594 190.046875 273.378906 189.746094 272.1875 C 189.449219 270.996094 189.179688 269.796875 188.941406 268.59375 C 188.703125 267.390625 188.492188 266.183594 188.3125 264.96875 C 188.132812 263.753906 187.980469 262.535156 187.859375 261.3125 C 187.742188 260.09375 187.652344 258.867188 187.589844 257.644531 C 187.53125 256.417969 187.5 255.191406 187.5 253.964844 C 187.5 252.734375 187.53125 251.507812 187.589844 250.28125 C 187.652344 249.058594 187.742188 247.832031 187.859375 246.613281 C 187.980469 245.390625 188.132812 244.171875 188.3125 242.957031 C 188.492188 241.746094 188.703125 240.535156 188.941406 239.332031 C 189.179688 238.128906 189.449219 236.929688 189.746094 235.738281 C 190.046875 234.550781 190.375 233.367188 190.730469 232.191406 C 191.085938 231.015625 191.46875 229.851562 191.882812 228.695312 C 192.296875 227.539062 192.738281 226.394531 193.210938 225.261719 C 193.679688 224.128906 194.175781 223.007812 194.699219 221.894531 C 195.226562 220.785156 195.777344 219.691406 196.355469 218.609375 C 196.933594 217.527344 197.539062 216.457031 198.171875 215.40625 C 198.800781 214.351562 199.457031 213.316406 200.140625 212.296875 C 200.820312 211.273438 201.527344 210.273438 202.257812 209.285156 C 202.992188 208.300781 203.746094 207.332031 204.523438 206.382812 C 205.304688 205.433594 206.105469 204.503906 206.929688 203.597656 C 207.753906 202.6875 208.597656 201.796875 209.46875 200.929688 C 210.335938 200.0625 211.222656 199.214844 212.132812 198.390625 C 213.042969 197.566406 213.972656 196.765625 214.921875 195.988281 C 215.871094 195.207031 216.835938 194.453125 217.824219 193.722656 C 218.808594 192.992188 219.8125 192.285156 220.832031 191.601562 C 221.851562 190.921875 222.890625 190.265625 223.941406 189.632812 C 224.996094 189.003906 226.0625 188.398438 227.144531 187.820312 C 228.226562 187.242188 229.324219 186.6875 230.433594 186.164062 C 231.542969 185.640625 232.664062 185.140625 233.796875 184.671875 C 234.933594 184.203125 236.078125 183.761719 237.234375 183.347656 C 238.390625 182.933594 239.554688 182.550781 240.730469 182.191406 C 241.902344 181.835938 243.085938 181.507812 244.277344 181.210938 C 245.46875 180.914062 246.664062 180.644531 247.867188 180.402344 C 249.070312 180.164062 250.28125 179.953125 251.496094 179.773438 C 252.710938 179.59375 253.925781 179.445312 255.148438 179.324219 C 256.371094 179.203125 257.59375 179.113281 258.820312 179.054688 C 260.046875 178.992188 261.273438 178.964844 262.5 178.964844 C 263.726562 178.96875 264.953125 179 266.175781 179.066406 C 267.402344 179.128906 268.621094 179.226562 269.84375 179.347656 C 271.0625 179.472656 272.277344 179.625 273.492188 179.808594 C 274.703125 179.992188 275.910156 180.207031 277.113281 180.449219 C 278.316406 180.691406 279.511719 180.964844 280.699219 181.265625 C 281.886719 181.566406 283.070312 181.894531 284.242188 182.253906 C 285.414062 182.613281 286.578125 183 287.730469 183.414062 C 288.882812 183.828125 290.027344 184.273438 291.160156 184.746094 C 292.292969 185.214844 293.410156 185.714844 294.519531 186.238281 C 295.625 186.765625 296.722656 187.320312 297.800781 187.898438 C 298.882812 188.476562 299.949219 189.082031 301 189.714844 C 302.050781 190.347656 303.085938 191.003906 304.105469 191.6875 C 305.121094 192.367188 306.125 193.074219 307.109375 193.804688 C 308.09375 194.535156 309.058594 195.292969 310.007812 196.070312 C 310.953125 196.847656 311.882812 197.648438 312.789062 198.472656 C 313.699219 199.296875 314.585938 200.140625 315.453125 201.007812 C 316.320312 201.875 317.167969 202.765625 317.988281 203.671875 C 318.8125 204.582031 319.613281 205.507812 320.394531 206.457031 C 321.171875 207.402344 321.925781 208.371094 322.65625 209.355469 C 323.386719 210.339844 324.09375 211.339844 324.777344 212.359375 C 325.460938 213.378906 326.117188 214.414062 326.746094 215.464844 C 327.378906 216.515625 327.984375 217.582031 328.566406 218.660156 C 329.144531 219.742188 329.695312 220.835938 330.222656 221.945312 C 330.75 223.050781 331.246094 224.171875 331.71875 225.304688 C 332.191406 226.4375 332.632812 227.578125 333.050781 228.730469 C 333.464844 229.886719 333.851562 231.050781 334.210938 232.222656 C 334.570312 233.394531 334.898438 234.574219 335.199219 235.765625 C 335.5 236.953125 335.773438 238.148438 336.015625 239.351562 C 336.257812 240.550781 336.46875 241.757812 336.652344 242.972656 C 336.835938 244.183594 336.992188 245.398438 337.113281 246.621094 C 337.238281 247.839844 337.332031 249.0625 337.398438 250.285156 C 337.460938 251.511719 337.496094 252.738281 337.5 253.964844 Z M 337.5 253.964844 " fill-opacity="1" fill-rule="nonzero"/></g><path fill="#616161" d="M 267.5 179.164062 L 267.5 198.964844 C 267.5 199.292969 267.46875 199.617188 267.402344 199.9375 C 267.339844 200.261719 267.246094 200.574219 267.121094 200.875 C 266.992188 201.179688 266.839844 201.46875 266.65625 201.742188 C 266.476562 202.015625 266.269531 202.265625 266.035156 202.5 C 265.804688 202.730469 265.550781 202.9375 265.277344 203.121094 C 265.003906 203.304688 264.714844 203.457031 264.414062 203.582031 C 264.109375 203.707031 263.796875 203.804688 263.476562 203.867188 C 263.152344 203.929688 262.828125 203.964844 262.5 203.964844 C 262.171875 203.964844 261.847656 203.929688 261.523438 203.867188 C 261.203125 203.804688 260.890625 203.707031 260.585938 203.582031 C 260.285156 203.457031 259.996094 203.304688 259.722656 203.121094 C 259.449219 202.9375 259.195312 202.730469 258.964844 202.5 C 258.730469 202.265625 258.523438 202.015625 258.34375 201.742188 C 258.160156 201.46875 258.007812 201.179688 257.878906 200.875 C 257.753906 200.574219 257.660156 200.261719 257.597656 199.9375 C 257.53125 199.617188 257.5 199.292969 257.5 198.964844 L 257.5 179.164062 C 259.148438 179.011719 260.800781 178.964844 262.5 178.964844 C 264.199219 178.964844 265.851562 179.011719 267.5 179.164062 Z M 267.5 179.164062 " fill-opacity="1" fill-rule="nonzero"/><g clip-path="url(#accdbae7be)"><path fill="#616161" d="M 267.5 308.964844 L 267.5 328.761719 C 265.851562 328.914062 264.199219 328.964844 262.5 328.964844 C 260.800781 328.964844 259.148438 328.914062 257.5 328.761719 L 257.5 308.964844 C 257.5 308.636719 257.53125 308.308594 257.597656 307.988281 C 257.660156 307.664062 257.753906 307.351562 257.878906 307.050781 C 258.007812 306.746094 258.160156 306.457031 258.34375 306.183594 C 258.523438 305.914062 258.730469 305.660156 258.964844 305.425781 C 259.195312 305.195312 259.449219 304.988281 259.722656 304.804688 C 259.996094 304.625 260.285156 304.46875 260.585938 304.34375 C 260.890625 304.21875 261.203125 304.125 261.523438 304.058594 C 261.847656 303.996094 262.171875 303.964844 262.5 303.964844 C 262.828125 303.964844 263.152344 303.996094 263.476562 304.058594 C 263.796875 304.125 264.109375 304.21875 264.414062 304.34375 C 264.714844 304.46875 265.003906 304.625 265.277344 304.804688 C 265.550781 304.988281 265.804688 305.195312 266.035156 305.425781 C 266.269531 305.660156 266.476562 305.914062 266.65625 306.183594 C 266.839844 306.457031 266.992188 306.746094 267.121094 307.050781 C 267.246094 307.351562 267.339844 307.664062 267.402344 307.988281 C 267.46875 308.308594 267.5 308.636719 267.5 308.964844 Z M 267.5 308.964844 " fill-opacity="1" fill-rule="nonzero"/></g><g clip-path="url(#a8a154e805)"><path fill="#616161" d="M 337.5 253.964844 C 337.5 255.664062 337.449219 257.3125 337.300781 258.964844 L 317.5 258.964844 C 317.171875 258.964844 316.847656 258.929688 316.523438 258.867188 C 316.203125 258.804688 315.890625 258.707031 315.585938 258.582031 C 315.285156 258.457031 314.996094 258.304688 314.722656 258.121094 C 314.449219 257.9375 314.195312 257.730469 313.964844 257.5 C 313.730469 257.265625 313.523438 257.015625 313.34375 256.742188 C 313.160156 256.46875 313.007812 256.179688 312.878906 255.875 C 312.753906 255.574219 312.660156 255.261719 312.597656 254.9375 C 312.53125 254.617188 312.5 254.292969 312.5 253.964844 C 312.5 253.636719 312.53125 253.308594 312.597656 252.988281 C 312.660156 252.664062 312.753906 252.351562 312.878906 252.050781 C 313.007812 251.746094 313.160156 251.457031 313.34375 251.183594 C 313.523438 250.914062 313.730469 250.660156 313.964844 250.425781 C 314.195312 250.195312 314.449219 249.988281 314.722656 249.804688 C 314.996094 249.625 315.28125 249.46875 315.585938 249.34375 C 315.890625 249.21875 316.203125 249.125 316.523438 249.058594 C 316.847656 248.996094 317.171875 248.964844 317.5 248.964844 L 337.300781 248.964844 C 337.449219 250.613281 337.5 252.261719 337.5 253.964844 Z M 337.5 253.964844 " fill-opacity="1" fill-rule="nonzero"/></g><path fill="#616161" d="M 212.5 253.964844 C 212.5 254.292969 212.464844 254.617188 212.402344 254.9375 C 212.335938 255.257812 212.242188 255.570312 212.117188 255.875 C 211.988281 256.175781 211.835938 256.464844 211.652344 256.738281 C 211.46875 257.011719 211.261719 257.261719 211.03125 257.496094 C 210.800781 257.726562 210.546875 257.933594 210.273438 258.117188 C 210 258.296875 209.714844 258.453125 209.410156 258.578125 C 209.109375 258.703125 208.796875 258.800781 208.472656 258.863281 C 208.152344 258.929688 207.828125 258.960938 207.5 258.964844 L 187.699219 258.964844 C 187.550781 257.3125 187.5 255.664062 187.5 253.964844 C 187.5 252.261719 187.550781 250.613281 187.699219 248.964844 L 207.5 248.964844 C 207.828125 248.964844 208.152344 248.996094 208.472656 249.0625 C 208.796875 249.125 209.109375 249.222656 209.410156 249.347656 C 209.714844 249.472656 210 249.628906 210.273438 249.808594 C 210.546875 249.992188 210.800781 250.199219 211.03125 250.433594 C 211.261719 250.664062 211.46875 250.917969 211.652344 251.1875 C 211.835938 251.460938 211.988281 251.75 212.117188 252.050781 C 212.242188 252.355469 212.335938 252.667969 212.402344 252.988281 C 212.464844 253.308594 212.5 253.636719 212.5 253.964844 Z M 212.5 253.964844 " fill-opacity="1" fill-rule="nonzero"/><path fill="#424242" d="M 262.5 211.035156 C 262.171875 211.035156 261.847656 211.066406 261.523438 211.128906 C 261.203125 211.195312 260.890625 211.289062 260.585938 211.414062 C 260.285156 211.539062 259.996094 211.695312 259.722656 211.875 C 259.449219 212.058594 259.195312 212.265625 258.964844 212.496094 C 258.730469 212.730469 258.523438 212.984375 258.34375 213.253906 C 258.160156 213.527344 258.007812 213.816406 257.878906 214.121094 C 257.753906 214.421875 257.660156 214.734375 257.597656 215.058594 C 257.53125 215.378906 257.5 215.707031 257.5 216.035156 L 257.5 254.523438 L 238.03125 262.871094 C 237.726562 263 237.441406 263.15625 237.167969 263.339844 C 236.898438 263.527344 236.648438 263.738281 236.417969 263.972656 C 236.1875 264.207031 235.984375 264.460938 235.804688 264.738281 C 235.625 265.011719 235.472656 265.304688 235.351562 265.609375 C 235.230469 265.914062 235.136719 266.226562 235.078125 266.550781 C 235.019531 266.871094 234.988281 267.199219 234.992188 267.527344 C 234.996094 267.855469 235.035156 268.179688 235.101562 268.503906 C 235.167969 268.824219 235.269531 269.136719 235.398438 269.4375 C 235.527344 269.738281 235.683594 270.027344 235.871094 270.296875 C 236.058594 270.566406 236.269531 270.816406 236.503906 271.046875 C 236.738281 271.277344 236.992188 271.480469 237.269531 271.660156 C 237.546875 271.839844 237.835938 271.988281 238.140625 272.109375 C 238.445312 272.234375 238.761719 272.324219 239.082031 272.382812 C 239.40625 272.441406 239.730469 272.472656 240.0625 272.464844 C 240.390625 272.460938 240.714844 272.425781 241.035156 272.355469 C 241.355469 272.289062 241.667969 272.1875 241.96875 272.058594 L 264.46875 262.414062 C 264.921875 262.222656 265.332031 261.96875 265.707031 261.65625 C 266.082031 261.34375 266.40625 260.980469 266.675781 260.574219 C 266.945312 260.164062 267.148438 259.726562 267.289062 259.257812 C 267.429688 258.789062 267.5 258.308594 267.5 257.820312 L 267.5 216.035156 C 267.5 215.707031 267.46875 215.378906 267.402344 215.058594 C 267.339844 214.734375 267.246094 214.421875 267.121094 214.121094 C 266.992188 213.816406 266.839844 213.527344 266.65625 213.253906 C 266.476562 212.984375 266.269531 212.730469 266.035156 212.496094 C 265.804688 212.265625 265.550781 212.058594 265.277344 211.875 C 265.003906 211.695312 264.71875 211.539062 264.414062 211.414062 C 264.109375 211.289062 263.796875 211.195312 263.476562 211.128906 C 263.152344 211.066406 262.828125 211.035156 262.5 211.035156 Z M 262.5 211.035156 " fill-opacity="1" fill-rule="nonzero"/><path fill="#616161" d="M 317.75 203.261719 L 303.148438 217.863281 C 302.917969 218.09375 302.667969 218.300781 302.394531 218.480469 C 302.121094 218.664062 301.835938 218.816406 301.53125 218.941406 C 301.230469 219.066406 300.917969 219.160156 300.597656 219.226562 C 300.277344 219.289062 299.953125 219.320312 299.625 219.320312 C 299.296875 219.320312 298.972656 219.289062 298.652344 219.222656 C 298.332031 219.160156 298.019531 219.066406 297.71875 218.941406 C 297.417969 218.816406 297.128906 218.660156 296.859375 218.480469 C 296.585938 218.296875 296.335938 218.089844 296.101562 217.859375 C 295.871094 217.628906 295.664062 217.378906 295.484375 217.105469 C 295.300781 216.832031 295.148438 216.546875 295.023438 216.242188 C 294.898438 215.941406 294.800781 215.628906 294.738281 215.308594 C 294.675781 214.988281 294.644531 214.664062 294.644531 214.335938 C 294.640625 214.011719 294.675781 213.6875 294.738281 213.363281 C 294.800781 213.042969 294.894531 212.734375 295.019531 212.429688 C 295.144531 212.128906 295.300781 211.839844 295.480469 211.570312 C 295.664062 211.296875 295.867188 211.042969 296.101562 210.8125 L 310.5 196.414062 C 313.0625 198.542969 315.480469 200.824219 317.75 203.261719 Z M 317.75 203.261719 " fill-opacity="1" fill-rule="nonzero"/><path fill="#616161" d="M 225.398438 295.664062 L 211.851562 309.214844 C 209.382812 306.953125 207.082031 304.539062 204.949219 301.964844 L 218.300781 288.5625 C 218.53125 288.328125 218.785156 288.113281 219.058594 287.929688 C 219.335938 287.742188 219.625 287.585938 219.929688 287.457031 C 220.234375 287.328125 220.550781 287.230469 220.875 287.164062 C 221.199219 287.097656 221.527344 287.0625 221.859375 287.0625 C 222.191406 287.058594 222.519531 287.089844 222.84375 287.152344 C 223.171875 287.21875 223.484375 287.3125 223.792969 287.4375 C 224.097656 287.566406 224.390625 287.71875 224.667969 287.902344 C 224.941406 288.085938 225.195312 288.296875 225.429688 288.53125 C 225.667969 288.765625 225.875 289.019531 226.058594 289.296875 C 226.242188 289.574219 226.398438 289.863281 226.523438 290.171875 C 226.648438 290.476562 226.746094 290.792969 226.808594 291.117188 C 226.871094 291.445312 226.902344 291.773438 226.902344 292.105469 C 226.902344 292.433594 226.867188 292.761719 226.800781 293.089844 C 226.734375 293.414062 226.636719 293.726562 226.507812 294.035156 C 226.378906 294.339844 226.21875 294.628906 226.035156 294.902344 C 225.847656 295.175781 225.636719 295.429688 225.398438 295.664062 Z M 225.398438 295.664062 " fill-opacity="1" fill-rule="nonzero"/><path fill="#616161" d="M 318.449219 303.863281 C 316.214844 306.347656 313.832031 308.679688 311.300781 310.863281 L 296.101562 295.664062 C 295.867188 295.429688 295.660156 295.175781 295.480469 294.902344 C 295.296875 294.625 295.144531 294.335938 295.019531 294.03125 C 294.890625 293.726562 294.796875 293.414062 294.734375 293.089844 C 294.667969 292.769531 294.636719 292.441406 294.636719 292.113281 C 294.636719 291.785156 294.667969 291.457031 294.734375 291.132812 C 294.796875 290.8125 294.890625 290.496094 295.019531 290.195312 C 295.144531 289.890625 295.296875 289.597656 295.480469 289.324219 C 295.660156 289.050781 295.867188 288.796875 296.101562 288.5625 C 296.332031 288.332031 296.582031 288.125 296.855469 287.941406 C 297.128906 287.761719 297.414062 287.605469 297.71875 287.480469 C 298.019531 287.355469 298.332031 287.261719 298.652344 287.195312 C 298.972656 287.132812 299.296875 287.101562 299.625 287.101562 C 299.953125 287.101562 300.277344 287.132812 300.597656 287.195312 C 300.917969 287.261719 301.230469 287.355469 301.53125 287.480469 C 301.835938 287.605469 302.121094 287.761719 302.394531 287.941406 C 302.667969 288.125 302.917969 288.332031 303.148438 288.5625 Z M 318.449219 303.863281 " fill-opacity="1" fill-rule="nonzero"/><path fill="#616161" d="M 225.398438 217.863281 C 225.167969 218.09375 224.914062 218.300781 224.636719 218.484375 C 224.363281 218.667969 224.074219 218.820312 223.769531 218.945312 C 223.464844 219.070312 223.152344 219.164062 222.828125 219.230469 C 222.503906 219.292969 222.179688 219.324219 221.851562 219.324219 C 221.519531 219.324219 221.195312 219.292969 220.871094 219.230469 C 220.546875 219.164062 220.234375 219.070312 219.929688 218.945312 C 219.625 218.820312 219.335938 218.667969 219.0625 218.484375 C 218.789062 218.300781 218.535156 218.09375 218.300781 217.863281 L 205.601562 205.164062 C 207.78125 202.632812 210.113281 200.246094 212.601562 198.011719 L 225.398438 210.8125 C 225.632812 211.042969 225.839844 211.296875 226.019531 211.566406 C 226.203125 211.839844 226.355469 212.128906 226.480469 212.429688 C 226.609375 212.730469 226.703125 213.042969 226.765625 213.367188 C 226.832031 213.6875 226.863281 214.011719 226.863281 214.339844 C 226.863281 214.664062 226.832031 214.988281 226.765625 215.3125 C 226.703125 215.632812 226.609375 215.945312 226.480469 216.246094 C 226.355469 216.546875 226.203125 216.835938 226.019531 217.109375 C 225.839844 217.378906 225.632812 217.632812 225.398438 217.863281 Z M 225.398438 217.863281 " fill-opacity="1" fill-rule="nonzero"/><g clip-path="url(#89fad45d1a)"><path fill="#f44336" d="M 262.5 328.964844 C 261.273438 328.964844 260.046875 328.933594 258.820312 328.871094 C 257.59375 328.8125 256.371094 328.722656 255.148438 328.601562 C 253.925781 328.480469 252.710938 328.332031 251.496094 328.152344 C 250.28125 327.972656 249.070312 327.761719 247.867188 327.523438 C 246.664062 327.28125 245.46875 327.011719 244.277344 326.714844 C 243.085938 326.417969 241.902344 326.089844 240.730469 325.734375 C 239.554688 325.378906 238.390625 324.992188 237.234375 324.578125 C 236.078125 324.164062 234.933594 323.722656 233.796875 323.253906 C 232.664062 322.785156 231.542969 322.285156 230.433594 321.761719 C 229.324219 321.238281 228.226562 320.6875 227.144531 320.105469 C 226.0625 319.527344 224.996094 318.921875 223.941406 318.292969 C 222.890625 317.660156 221.851562 317.003906 220.832031 316.324219 C 219.8125 315.640625 218.808594 314.933594 217.824219 314.203125 C 216.835938 313.472656 215.871094 312.71875 214.921875 311.9375 C 213.972656 311.160156 213.042969 310.359375 212.132812 309.535156 C 211.222656 308.710938 210.335938 307.863281 209.46875 306.996094 C 208.597656 306.128906 207.753906 305.238281 206.929688 304.328125 C 206.105469 303.421875 205.304688 302.492188 204.523438 301.542969 C 203.746094 300.59375 202.992188 299.625 202.257812 298.640625 C 201.527344 297.65625 200.820312 296.652344 200.140625 295.628906 C 199.457031 294.609375 198.800781 293.574219 198.171875 292.519531 C 197.539062 291.46875 196.933594 290.398438 196.355469 289.316406 C 195.777344 288.234375 195.226562 287.140625 194.699219 286.03125 C 194.175781 284.921875 193.679688 283.796875 193.210938 282.664062 C 192.738281 281.53125 192.296875 280.386719 191.882812 279.230469 C 191.46875 278.074219 191.085938 276.910156 190.730469 275.734375 C 190.375 274.558594 190.046875 273.378906 189.746094 272.1875 C 189.449219 270.996094 189.179688 269.796875 188.941406 268.59375 C 188.703125 267.390625 188.492188 266.183594 188.3125 264.96875 C 188.132812 263.753906 187.980469 262.535156 187.859375 261.3125 C 187.742188 260.09375 187.652344 258.867188 187.589844 257.644531 C 187.53125 256.417969 187.5 255.191406 187.5 253.964844 C 187.5 252.734375 187.53125 251.507812 187.589844 250.28125 C 187.652344 249.058594 187.742188 247.832031 187.859375 246.613281 C 187.980469 245.390625 188.132812 244.171875 188.3125 242.957031 C 188.492188 241.746094 188.703125 240.535156 188.941406 239.332031 C 189.179688 238.128906 189.449219 236.929688 189.746094 235.738281 C 190.046875 234.550781 190.375 233.367188 190.730469 232.191406 C 191.085938 231.015625 191.46875 229.851562 191.882812 228.695312 C 192.296875 227.539062 192.738281 226.394531 193.210938 225.261719 C 193.679688 224.128906 194.175781 223.007812 194.699219 221.894531 C 195.226562 220.785156 195.777344 219.691406 196.355469 218.609375 C 196.933594 217.527344 197.539062 216.457031 198.171875 215.40625 C 198.800781 214.351562 199.457031 213.316406 200.140625 212.296875 C 200.820312 211.273438 201.527344 210.273438 202.257812 209.285156 C 202.992188 208.300781 203.746094 207.332031 204.523438 206.382812 C 205.304688 205.433594 206.105469 204.503906 206.929688 203.597656 C 207.753906 202.6875 208.597656 201.796875 209.46875 200.929688 C 210.335938 200.0625 211.222656 199.214844 212.132812 198.390625 C 213.042969 197.566406 213.972656 196.765625 214.921875 195.988281 C 215.871094 195.207031 216.835938 194.453125 217.824219 193.722656 C 218.808594 192.992188 219.8125 192.285156 220.832031 191.601562 C 221.851562 190.921875 222.890625 190.265625 223.941406 189.632812 C 224.996094 189.003906 226.0625 188.398438 227.144531 187.820312 C 228.226562 187.242188 229.324219 186.6875 230.433594 186.164062 C 231.542969 185.640625 232.664062 185.140625 233.796875 184.671875 C 234.933594 184.203125 236.078125 183.761719 237.234375 183.347656 C 238.390625 182.933594 239.554688 182.550781 240.730469 182.191406 C 241.902344 181.835938 243.085938 181.507812 244.277344 181.210938 C 245.46875 180.914062 246.664062 180.644531 247.867188 180.402344 C 249.070312 180.164062 250.28125 179.953125 251.496094 179.773438 C 252.710938 179.59375 253.925781 179.445312 255.148438 179.324219 C 256.371094 179.203125 257.59375 179.113281 258.820312 179.054688 C 260.046875 178.992188 261.273438 178.964844 262.5 178.964844 C 263.726562 178.964844 264.953125 178.992188 266.179688 179.054688 C 267.40625 179.113281 268.628906 179.203125 269.851562 179.324219 C 271.074219 179.445312 272.289062 179.59375 273.503906 179.773438 C 274.71875 179.953125 275.929688 180.164062 277.132812 180.402344 C 278.335938 180.644531 279.53125 180.914062 280.722656 181.210938 C 281.914062 181.507812 283.097656 181.835938 284.269531 182.191406 C 285.445312 182.550781 286.609375 182.933594 287.765625 183.347656 C 288.921875 183.761719 290.066406 184.203125 291.203125 184.671875 C 292.335938 185.140625 293.457031 185.640625 294.566406 186.164062 C 295.675781 186.6875 296.773438 187.242188 297.855469 187.820312 C 298.9375 188.398438 300.003906 189.003906 301.058594 189.632812 C 302.109375 190.265625 303.148438 190.921875 304.167969 191.601562 C 305.1875 192.285156 306.191406 192.992188 307.175781 193.722656 C 308.164062 194.453125 309.128906 195.207031 310.078125 195.988281 C 311.027344 196.765625 311.957031 197.566406 312.867188 198.390625 C 313.777344 199.214844 314.664062 200.0625 315.53125 200.929688 C 316.402344 201.796875 317.246094 202.6875 318.070312 203.597656 C 318.894531 204.503906 319.695312 205.433594 320.476562 206.382812 C 321.253906 207.332031 322.007812 208.300781 322.742188 209.285156 C 323.472656 210.273438 324.179688 211.273438 324.859375 212.296875 C 325.542969 213.316406 326.199219 214.351562 326.828125 215.40625 C 327.460938 216.457031 328.066406 217.527344 328.644531 218.609375 C 329.222656 219.691406 329.773438 220.785156 330.300781 221.894531 C 330.824219 223.007812 331.320312 224.128906 331.789062 225.261719 C 332.261719 226.394531 332.703125 227.539062 333.117188 228.695312 C 333.527344 229.851562 333.914062 231.015625 334.269531 232.191406 C 334.625 233.367188 334.953125 234.550781 335.253906 235.738281 C 335.550781 236.929688 335.820312 238.128906 336.058594 239.332031 C 336.296875 240.535156 336.507812 241.746094 336.6875 242.957031 C 336.867188 244.171875 337.019531 245.390625 337.140625 246.613281 C 337.257812 247.832031 337.347656 249.058594 337.410156 250.28125 C 337.46875 251.507812 337.5 252.734375 337.5 253.964844 C 337.5 255.191406 337.46875 256.417969 337.40625 257.640625 C 337.34375 258.867188 337.253906 260.089844 337.132812 261.3125 C 337.007812 262.53125 336.859375 263.75 336.675781 264.964844 C 336.496094 266.175781 336.285156 267.386719 336.042969 268.589844 C 335.804688 269.792969 335.535156 270.988281 335.234375 272.179688 C 334.9375 273.367188 334.609375 274.550781 334.25 275.726562 C 333.894531 276.898438 333.507812 278.0625 333.09375 279.21875 C 332.679688 280.375 332.238281 281.519531 331.769531 282.652344 C 331.296875 283.785156 330.800781 284.90625 330.273438 286.015625 C 329.75 287.125 329.199219 288.21875 328.617188 289.300781 C 328.039062 290.382812 327.433594 291.449219 326.804688 292.503906 C 326.171875 293.554688 325.515625 294.589844 324.835938 295.609375 C 324.152344 296.632812 323.445312 297.632812 322.714844 298.617188 C 321.984375 299.605469 321.226562 300.570312 320.449219 301.519531 C 319.671875 302.46875 318.871094 303.398438 318.046875 304.304688 C 317.222656 305.214844 316.375 306.105469 315.507812 306.972656 C 314.640625 307.839844 313.753906 308.683594 312.84375 309.507812 C 311.933594 310.332031 311.003906 311.132812 310.058594 311.914062 C 309.109375 312.691406 308.140625 313.445312 307.15625 314.175781 C 306.171875 314.910156 305.167969 315.617188 304.148438 316.296875 C 303.128906 316.980469 302.089844 317.636719 301.039062 318.265625 C 299.988281 318.898438 298.917969 319.503906 297.839844 320.082031 C 296.757812 320.660156 295.660156 321.214844 294.550781 321.738281 C 293.441406 322.261719 292.320312 322.761719 291.1875 323.230469 C 290.054688 323.703125 288.910156 324.144531 287.753906 324.558594 C 286.601562 324.972656 285.4375 325.359375 284.261719 325.714844 C 283.085938 326.070312 281.90625 326.398438 280.714844 326.699219 C 279.527344 326.996094 278.328125 327.265625 277.125 327.507812 C 275.921875 327.75 274.714844 327.960938 273.5 328.140625 C 272.285156 328.320312 271.070312 328.472656 269.847656 328.59375 C 268.628906 328.714844 267.40625 328.808594 266.179688 328.867188 C 264.953125 328.929688 263.726562 328.960938 262.5 328.964844 Z M 262.5 188.964844 C 261.4375 188.964844 260.375 188.988281 259.3125 189.042969 C 258.25 189.09375 257.1875 189.171875 256.128906 189.277344 C 255.070312 189.378906 254.015625 189.511719 252.960938 189.667969 C 251.910156 189.824219 250.863281 190.003906 249.820312 190.210938 C 248.777344 190.417969 247.738281 190.652344 246.707031 190.910156 C 245.675781 191.167969 244.648438 191.453125 243.632812 191.761719 C 242.613281 192.070312 241.605469 192.40625 240.601562 192.761719 C 239.601562 193.121094 238.609375 193.503906 237.625 193.910156 C 236.644531 194.316406 235.671875 194.75 234.707031 195.203125 C 233.746094 195.660156 232.796875 196.136719 231.859375 196.636719 C 230.921875 197.140625 229.996094 197.664062 229.082031 198.210938 C 228.171875 198.757812 227.273438 199.328125 226.386719 199.917969 C 225.503906 200.507812 224.632812 201.121094 223.78125 201.753906 C 222.925781 202.386719 222.085938 203.042969 221.265625 203.71875 C 220.441406 204.390625 219.636719 205.085938 218.847656 205.800781 C 218.058594 206.515625 217.289062 207.25 216.539062 208 C 215.785156 208.753906 215.050781 209.523438 214.339844 210.3125 C 213.625 211.101562 212.929688 211.90625 212.253906 212.726562 C 211.578125 213.550781 210.925781 214.386719 210.292969 215.242188 C 209.65625 216.097656 209.046875 216.964844 208.453125 217.851562 C 207.863281 218.734375 207.292969 219.632812 206.746094 220.546875 C 206.199219 221.457031 205.675781 222.382812 205.175781 223.324219 C 204.671875 224.261719 204.195312 225.210938 203.742188 226.171875 C 203.285156 227.132812 202.855469 228.105469 202.449219 229.089844 C 202.039062 230.070312 201.65625 231.0625 201.300781 232.066406 C 200.941406 233.066406 200.609375 234.078125 200.300781 235.09375 C 199.988281 236.113281 199.707031 237.136719 199.449219 238.167969 C 199.1875 239.203125 198.957031 240.238281 198.75 241.28125 C 198.542969 242.324219 198.359375 243.375 198.203125 244.425781 C 198.046875 245.476562 197.917969 246.535156 197.8125 247.59375 C 197.707031 248.652344 197.628906 249.710938 197.578125 250.773438 C 197.527344 251.835938 197.5 252.898438 197.5 253.964844 C 197.5 255.027344 197.527344 256.089844 197.578125 257.152344 C 197.628906 258.214844 197.707031 259.277344 197.8125 260.335938 C 197.917969 261.394531 198.046875 262.449219 198.203125 263.5 C 198.359375 264.554688 198.542969 265.601562 198.75 266.644531 C 198.957031 267.6875 199.1875 268.726562 199.449219 269.757812 C 199.707031 270.789062 199.988281 271.8125 200.300781 272.832031 C 200.609375 273.847656 200.941406 274.859375 201.300781 275.859375 C 201.65625 276.863281 202.039062 277.855469 202.449219 278.835938 C 202.855469 279.820312 203.285156 280.792969 203.742188 281.753906 C 204.195312 282.714844 204.671875 283.664062 205.175781 284.605469 C 205.675781 285.542969 206.199219 286.46875 206.746094 287.378906 C 207.292969 288.292969 207.863281 289.191406 208.453125 290.074219 C 209.046875 290.960938 209.65625 291.828125 210.292969 292.683594 C 210.925781 293.539062 211.578125 294.375 212.253906 295.199219 C 212.929688 296.019531 213.625 296.828125 214.339844 297.613281 C 215.050781 298.402344 215.785156 299.171875 216.539062 299.925781 C 217.289062 300.675781 218.058594 301.410156 218.847656 302.125 C 219.636719 302.839844 220.441406 303.535156 221.265625 304.207031 C 222.085938 304.882812 222.925781 305.539062 223.78125 306.171875 C 224.632812 306.804688 225.503906 307.417969 226.386719 308.007812 C 227.273438 308.597656 228.171875 309.167969 229.082031 309.714844 C 229.996094 310.261719 230.921875 310.785156 231.859375 311.289062 C 232.796875 311.789062 233.746094 312.269531 234.707031 312.722656 C 235.671875 313.175781 236.644531 313.609375 237.625 314.015625 C 238.609375 314.421875 239.601562 314.804688 240.601562 315.164062 C 241.605469 315.523438 242.613281 315.855469 243.632812 316.164062 C 244.648438 316.472656 245.675781 316.757812 246.707031 317.015625 C 247.738281 317.273438 248.777344 317.507812 249.820312 317.714844 C 250.863281 317.921875 251.910156 318.101562 252.960938 318.257812 C 254.015625 318.414062 255.070312 318.546875 256.128906 318.648438 C 257.1875 318.753906 258.25 318.832031 259.3125 318.886719 C 260.375 318.9375 261.4375 318.964844 262.5 318.964844 C 263.5625 318.964844 264.625 318.9375 265.6875 318.886719 C 266.75 318.832031 267.8125 318.753906 268.871094 318.648438 C 269.929688 318.546875 270.984375 318.414062 272.039062 318.257812 C 273.089844 318.101562 274.136719 317.921875 275.179688 317.714844 C 276.222656 317.507812 277.261719 317.273438 278.292969 317.015625 C 279.324219 316.757812 280.351562 316.472656 281.367188 316.164062 C 282.386719 315.855469 283.394531 315.523438 284.398438 315.164062 C 285.398438 314.804688 286.390625 314.421875 287.375 314.015625 C 288.355469 313.609375 289.328125 313.175781 290.292969 312.722656 C 291.253906 312.269531 292.203125 311.789062 293.140625 311.289062 C 294.078125 310.785156 295.003906 310.261719 295.917969 309.714844 C 296.828125 309.167969 297.726562 308.597656 298.613281 308.007812 C 299.496094 307.417969 300.367188 306.804688 301.21875 306.171875 C 302.074219 305.539062 302.914062 304.882812 303.734375 304.207031 C 304.558594 303.535156 305.363281 302.839844 306.152344 302.125 C 306.941406 301.410156 307.710938 300.675781 308.460938 299.925781 C 309.214844 299.171875 309.949219 298.402344 310.660156 297.613281 C 311.375 296.828125 312.070312 296.019531 312.746094 295.199219 C 313.421875 294.375 314.074219 293.539062 314.707031 292.683594 C 315.34375 291.828125 315.953125 290.960938 316.546875 290.074219 C 317.136719 289.191406 317.707031 288.292969 318.253906 287.378906 C 318.800781 286.46875 319.324219 285.542969 319.824219 284.605469 C 320.328125 283.664062 320.804688 282.714844 321.257812 281.753906 C 321.714844 280.792969 322.144531 279.820312 322.550781 278.835938 C 322.960938 277.855469 323.34375 276.863281 323.699219 275.859375 C 324.058594 274.859375 324.390625 273.847656 324.699219 272.832031 C 325.011719 271.8125 325.292969 270.789062 325.550781 269.757812 C 325.808594 268.726562 326.042969 267.6875 326.25 266.644531 C 326.457031 265.601562 326.640625 264.554688 326.796875 263.5 C 326.953125 262.449219 327.082031 261.394531 327.1875 260.335938 C 327.292969 259.277344 327.371094 258.214844 327.421875 257.152344 C 327.472656 256.089844 327.5 255.027344 327.5 253.964844 C 327.5 252.898438 327.472656 251.835938 327.417969 250.773438 C 327.363281 249.710938 327.285156 248.652344 327.179688 247.59375 C 327.074219 246.535156 326.945312 245.480469 326.785156 244.429688 C 326.628906 243.378906 326.449219 242.328125 326.238281 241.289062 C 326.03125 240.246094 325.796875 239.207031 325.539062 238.175781 C 325.277344 237.144531 324.996094 236.121094 324.683594 235.101562 C 324.375 234.085938 324.042969 233.074219 323.683594 232.074219 C 323.324219 231.074219 322.941406 230.082031 322.53125 229.101562 C 322.125 228.117188 321.695312 227.144531 321.238281 226.183594 C 320.785156 225.222656 320.304688 224.273438 319.804688 223.335938 C 319.300781 222.398438 318.777344 221.472656 318.230469 220.5625 C 317.683594 219.648438 317.113281 218.753906 316.523438 217.867188 C 315.933594 216.984375 315.320312 216.113281 314.6875 215.261719 C 314.050781 214.40625 313.398438 213.570312 312.722656 212.746094 C 312.046875 211.925781 311.355469 211.121094 310.640625 210.332031 C 309.925781 209.542969 309.191406 208.773438 308.441406 208.023438 C 307.6875 207.269531 306.917969 206.539062 306.132812 205.824219 C 305.34375 205.109375 304.539062 204.414062 303.714844 203.738281 C 302.894531 203.066406 302.054688 202.410156 301.203125 201.777344 C 300.347656 201.144531 299.480469 200.53125 298.59375 199.941406 C 297.710938 199.347656 296.8125 198.78125 295.902344 198.234375 C 294.988281 197.683594 294.0625 197.160156 293.125 196.660156 C 292.1875 196.15625 291.238281 195.679688 290.277344 195.222656 C 289.316406 194.769531 288.34375 194.335938 287.363281 193.929688 C 286.382812 193.523438 285.390625 193.140625 284.386719 192.78125 C 283.386719 192.421875 282.378906 192.085938 281.359375 191.777344 C 280.34375 191.46875 279.320312 191.183594 278.289062 190.925781 C 277.253906 190.667969 276.21875 190.433594 275.175781 190.222656 C 274.132812 190.015625 273.085938 189.832031 272.035156 189.675781 C 270.980469 189.519531 269.925781 189.386719 268.867188 189.28125 C 267.8125 189.175781 266.75 189.097656 265.6875 189.042969 C 264.625 188.992188 263.5625 188.964844 262.5 188.964844 Z M 262.5 188.964844 " fill-opacity="1" fill-rule="nonzero"/></g></svg>