<svg xmlns="http://www.w3.org/2000/svg" xmlns:xlink="http://www.w3.org/1999/xlink" width="500" zoomAndPan="magnify" viewBox="0 0 375 374.999991" height="500" preserveAspectRatio="xMidYMid meet" version="1.0"><defs><clipPath id="2b2cd3eba1"><path d="M 39.496094 39.496094 L 335.746094 39.496094 L 335.746094 335.746094 L 39.496094 335.746094 Z M 39.496094 39.496094 " clip-rule="nonzero"/></clipPath></defs><rect x="-37.5" width="450" fill="#ffffff" y="-37.499999" height="449.999989" fill-opacity="1"/><rect x="-37.5" width="450" fill="#ffffff" y="-37.499999" height="449.999989" fill-opacity="1"/><g clip-path="url(#2b2cd3eba1)"><path fill="#ff9c33" d="M 335.746094 187.621094 C 335.742188 190.042969 335.683594 192.464844 335.566406 194.886719 C 335.445312 197.308594 335.269531 199.726562 335.03125 202.136719 C 334.792969 204.550781 334.496094 206.957031 334.140625 209.355469 C 333.785156 211.75 333.371094 214.140625 332.898438 216.515625 C 332.425781 218.894531 331.894531 221.257812 331.304688 223.609375 C 330.714844 225.960938 330.070312 228.296875 329.367188 230.617188 C 328.664062 232.9375 327.902344 235.238281 327.085938 237.519531 C 326.269531 239.804688 325.394531 242.066406 324.46875 244.304688 C 323.542969 246.542969 322.558594 248.757812 321.523438 250.949219 C 320.484375 253.140625 319.394531 255.308594 318.253906 257.445312 C 317.109375 259.582031 315.917969 261.691406 314.671875 263.769531 C 313.425781 265.851562 312.128906 267.898438 310.78125 269.914062 C 309.433594 271.929688 308.039062 273.910156 306.59375 275.855469 C 305.148438 277.804688 303.660156 279.714844 302.121094 281.589844 C 300.582031 283.460938 299 285.296875 297.371094 287.09375 C 295.746094 288.890625 294.074219 290.644531 292.359375 292.359375 C 290.644531 294.074219 288.890625 295.746094 287.09375 297.371094 C 285.296875 299 283.460938 300.582031 281.589844 302.121094 C 279.714844 303.660156 277.804688 305.148438 275.855469 306.59375 C 273.910156 308.039062 271.929688 309.433594 269.914062 310.78125 C 267.898438 312.128906 265.851562 313.425781 263.769531 314.671875 C 261.691406 315.917969 259.582031 317.109375 257.445312 318.253906 C 255.308594 319.394531 253.140625 320.484375 250.949219 321.523438 C 248.757812 322.558594 246.542969 323.542969 244.304688 324.46875 C 242.066406 325.394531 239.804688 326.269531 237.519531 327.085938 C 235.238281 327.902344 232.9375 328.664062 230.617188 329.367188 C 228.296875 330.070312 225.960938 330.714844 223.609375 331.304688 C 221.257812 331.894531 218.894531 332.425781 216.515625 332.898438 C 214.140625 333.371094 211.75 333.785156 209.355469 334.140625 C 206.957031 334.496094 204.550781 334.792969 202.136719 335.03125 C 199.726562 335.269531 197.308594 335.445312 194.886719 335.566406 C 192.464844 335.683594 190.042969 335.742188 187.621094 335.746094 C 185.195312 335.742188 182.773438 335.683594 180.351562 335.566406 C 177.929688 335.445312 175.511719 335.269531 173.101562 335.03125 C 170.6875 334.792969 168.28125 334.496094 165.882812 334.140625 C 163.488281 333.785156 161.097656 333.371094 158.722656 332.898438 C 156.34375 332.425781 153.980469 331.894531 151.628906 331.304688 C 149.277344 330.714844 146.941406 330.070312 144.621094 329.367188 C 142.300781 328.664062 140 327.902344 137.71875 327.085938 C 135.433594 326.269531 133.175781 325.394531 130.933594 324.46875 C 128.695312 323.542969 126.480469 322.558594 124.289062 321.523438 C 122.097656 320.484375 119.929688 319.394531 117.792969 318.253906 C 115.65625 317.109375 113.546875 315.917969 111.46875 314.671875 C 109.386719 313.425781 107.339844 312.128906 105.324219 310.78125 C 103.308594 309.433594 101.328125 308.039062 99.382812 306.59375 C 97.433594 305.148438 95.523438 303.660156 93.648438 302.121094 C 91.777344 300.582031 89.941406 299 88.144531 297.371094 C 86.347656 295.746094 84.59375 294.074219 82.878906 292.359375 C 81.164062 290.644531 79.492188 288.890625 77.867188 287.09375 C 76.238281 285.296875 74.65625 283.460938 73.117188 281.589844 C 71.578125 279.714844 70.089844 277.804688 68.644531 275.855469 C 67.199219 273.910156 65.804688 271.929688 64.457031 269.914062 C 63.109375 267.898438 61.8125 265.851562 60.566406 263.769531 C 59.320312 261.691406 58.128906 259.582031 56.984375 257.445312 C 55.84375 255.308594 54.753906 253.140625 53.714844 250.949219 C 52.679688 248.757812 51.695312 246.542969 50.769531 244.304688 C 49.84375 242.066406 48.96875 239.804688 48.152344 237.519531 C 47.335938 235.238281 46.574219 232.9375 45.871094 230.617188 C 45.167969 228.296875 44.523438 225.960938 43.933594 223.609375 C 43.34375 221.257812 42.8125 218.894531 42.339844 216.515625 C 41.867188 214.140625 41.453125 211.75 41.097656 209.355469 C 40.742188 206.957031 40.445312 204.550781 40.207031 202.136719 C 39.96875 199.726562 39.792969 197.308594 39.671875 194.886719 C 39.554688 192.464844 39.496094 190.042969 39.496094 187.621094 C 39.496094 185.195312 39.554688 182.773438 39.671875 180.351562 C 39.792969 177.929688 39.96875 175.511719 40.207031 173.101562 C 40.445312 170.6875 40.742188 168.28125 41.097656 165.882812 C 41.453125 163.488281 41.867188 161.097656 42.339844 158.722656 C 42.8125 156.34375 43.34375 153.980469 43.933594 151.628906 C 44.523438 149.277344 45.167969 146.941406 45.871094 144.621094 C 46.574219 142.300781 47.335938 140 48.152344 137.71875 C 48.96875 135.433594 49.84375 133.175781 50.769531 130.933594 C 51.695312 128.695312 52.679688 126.480469 53.714844 124.289062 C 54.753906 122.097656 55.84375 119.929688 56.984375 117.792969 C 58.128906 115.65625 59.320312 113.546875 60.566406 111.46875 C 61.8125 109.386719 63.109375 107.339844 64.457031 105.324219 C 65.804688 103.308594 67.199219 101.328125 68.644531 99.382812 C 70.089844 97.433594 71.578125 95.523438 73.117188 93.648438 C 74.65625 91.777344 76.238281 89.941406 77.867188 88.144531 C 79.492188 86.347656 81.164062 84.59375 82.878906 82.878906 C 84.59375 81.164062 86.347656 79.492188 88.144531 77.867188 C 89.941406 76.238281 91.777344 74.65625 93.648438 73.117188 C 95.523438 71.578125 97.433594 70.089844 99.382812 68.644531 C 101.328125 67.199219 103.308594 65.804688 105.324219 64.457031 C 107.339844 63.109375 109.386719 61.8125 111.46875 60.566406 C 113.546875 59.320312 115.65625 58.128906 117.792969 56.984375 C 119.929688 55.84375 122.097656 54.753906 124.289062 53.714844 C 126.480469 52.679688 128.695312 51.695312 130.933594 50.769531 C 133.175781 49.84375 135.433594 48.96875 137.71875 48.152344 C 140 47.335938 142.300781 46.574219 144.621094 45.871094 C 146.941406 45.167969 149.277344 44.523438 151.628906 43.933594 C 153.980469 43.34375 156.34375 42.8125 158.722656 42.339844 C 161.097656 41.867188 163.488281 41.453125 165.882812 41.097656 C 168.28125 40.742188 170.6875 40.445312 173.101562 40.207031 C 175.511719 39.96875 177.929688 39.792969 180.351562 39.671875 C 182.773438 39.554688 185.195312 39.496094 187.621094 39.496094 C 190.042969 39.496094 192.464844 39.554688 194.886719 39.671875 C 197.308594 39.792969 199.726562 39.96875 202.136719 40.207031 C 204.550781 40.445312 206.957031 40.742188 209.355469 41.097656 C 211.75 41.453125 214.140625 41.867188 216.515625 42.339844 C 218.894531 42.8125 221.257812 43.34375 223.609375 43.933594 C 225.960938 44.523438 228.296875 45.167969 230.617188 45.871094 C 232.9375 46.574219 235.238281 47.335938 237.519531 48.152344 C 239.804688 48.96875 242.066406 49.84375 244.304688 50.769531 C 246.542969 51.695312 248.757812 52.679688 250.949219 53.714844 C 253.140625 54.753906 255.308594 55.84375 257.445312 56.984375 C 259.582031 58.128906 261.691406 59.320312 263.769531 60.566406 C 265.851562 61.8125 267.898438 63.109375 269.914062 64.457031 C 271.929688 65.804688 273.910156 67.199219 275.855469 68.644531 C 277.804688 70.089844 279.714844 71.578125 281.589844 73.117188 C 283.460938 74.65625 285.296875 76.238281 287.09375 77.867188 C 288.890625 79.492188 290.644531 81.164062 292.359375 82.878906 C 294.074219 84.59375 295.746094 86.347656 297.371094 88.144531 C 299 89.941406 300.582031 91.777344 302.121094 93.648438 C 303.660156 95.523438 305.148438 97.433594 306.59375 99.382812 C 308.039062 101.328125 309.433594 103.308594 310.78125 105.324219 C 312.128906 107.339844 313.425781 109.386719 314.671875 111.46875 C 315.917969 113.546875 317.109375 115.65625 318.253906 117.792969 C 319.394531 119.929688 320.484375 122.097656 321.523438 124.289062 C 322.558594 126.480469 323.542969 128.695312 324.46875 130.933594 C 325.394531 133.171875 326.269531 135.433594 327.085938 137.71875 C 327.902344 140 328.664062 142.300781 329.367188 144.621094 C 330.070312 146.941406 330.714844 149.277344 331.304688 151.628906 C 331.894531 153.980469 332.425781 156.34375 332.898438 158.722656 C 333.371094 161.097656 333.785156 163.488281 334.140625 165.882812 C 334.496094 168.28125 334.792969 170.6875 335.03125 173.101562 C 335.269531 175.511719 335.445312 177.929688 335.566406 180.351562 C 335.683594 182.773438 335.742188 185.195312 335.746094 187.621094 Z M 335.746094 187.621094 " fill-opacity="1" fill-rule="nonzero"/></g><path fill="#ffbc5f" d="M 316.390625 187.621094 C 316.390625 189.726562 316.335938 191.832031 316.234375 193.9375 C 316.128906 196.042969 315.976562 198.144531 315.769531 200.242188 C 315.5625 202.339844 315.304688 204.429688 314.996094 206.511719 C 314.6875 208.597656 314.324219 210.675781 313.914062 212.742188 C 313.503906 214.808594 313.042969 216.863281 312.53125 218.90625 C 312.019531 220.953125 311.457031 222.984375 310.84375 225 C 310.234375 227.015625 309.570312 229.015625 308.863281 231 C 308.152344 232.984375 307.394531 234.949219 306.585938 236.898438 C 305.78125 238.84375 304.925781 240.769531 304.027344 242.675781 C 303.125 244.582031 302.175781 246.460938 301.183594 248.320312 C 300.191406 250.179688 299.152344 252.011719 298.070312 253.820312 C 296.984375 255.628906 295.859375 257.40625 294.6875 259.160156 C 293.515625 260.914062 292.304688 262.632812 291.046875 264.328125 C 289.792969 266.019531 288.496094 267.679688 287.160156 269.308594 C 285.824219 270.9375 284.445312 272.535156 283.03125 274.097656 C 281.617188 275.65625 280.164062 277.183594 278.671875 278.671875 C 277.183594 280.164062 275.65625 281.617188 274.097656 283.03125 C 272.535156 284.445312 270.9375 285.824219 269.308594 287.160156 C 267.679688 288.496094 266.019531 289.792969 264.328125 291.046875 C 262.632812 292.304688 260.914062 293.515625 259.160156 294.6875 C 257.40625 295.859375 255.628906 296.984375 253.820312 298.070312 C 252.011719 299.152344 250.179688 300.191406 248.320312 301.183594 C 246.460938 302.175781 244.582031 303.125 242.675781 304.027344 C 240.769531 304.925781 238.84375 305.78125 236.898438 306.585938 C 234.949219 307.394531 232.984375 308.152344 231 308.863281 C 229.015625 309.570312 227.015625 310.234375 225 310.84375 C 222.984375 311.457031 220.953125 312.019531 218.90625 312.53125 C 216.863281 313.042969 214.808594 313.503906 212.742188 313.914062 C 210.675781 314.324219 208.597656 314.6875 206.511719 314.996094 C 204.429688 315.304688 202.339844 315.5625 200.242188 315.769531 C 198.144531 315.976562 196.042969 316.128906 193.9375 316.234375 C 191.832031 316.335938 189.726562 316.390625 187.621094 316.390625 C 185.511719 316.390625 183.40625 316.335938 181.300781 316.234375 C 179.195312 316.128906 177.09375 315.976562 174.996094 315.769531 C 172.898438 315.5625 170.808594 315.304688 168.726562 314.996094 C 166.640625 314.6875 164.5625 314.324219 162.496094 313.914062 C 160.429688 313.503906 158.375 313.042969 156.332031 312.53125 C 154.285156 312.019531 152.257812 311.457031 150.238281 310.84375 C 148.222656 310.234375 146.222656 309.570312 144.238281 308.863281 C 142.253906 308.152344 140.289062 307.394531 138.339844 306.585938 C 136.394531 305.78125 134.46875 304.925781 132.5625 304.027344 C 130.65625 303.125 128.777344 302.175781 126.917969 301.183594 C 125.058594 300.191406 123.226562 299.152344 121.417969 298.070312 C 119.609375 296.984375 117.832031 295.859375 116.078125 294.6875 C 114.324219 293.515625 112.605469 292.304688 110.910156 291.046875 C 109.21875 289.792969 107.558594 288.496094 105.929688 287.160156 C 104.300781 285.824219 102.703125 284.445312 101.140625 283.03125 C 99.582031 281.617188 98.054688 280.164062 96.566406 278.671875 C 95.074219 277.183594 93.621094 275.65625 92.207031 274.097656 C 90.792969 272.535156 89.414062 270.9375 88.078125 269.308594 C 86.742188 267.679688 85.445312 266.019531 84.191406 264.328125 C 82.933594 262.632812 81.722656 260.914062 80.550781 259.160156 C 79.378906 257.40625 78.253906 255.628906 77.167969 253.820312 C 76.085938 252.011719 75.046875 250.179688 74.054688 248.320312 C 73.0625 246.460938 72.113281 244.582031 71.210938 242.675781 C 70.3125 240.769531 69.457031 238.84375 68.652344 236.898438 C 67.84375 234.949219 67.085938 232.984375 66.375 231 C 65.667969 229.015625 65.003906 227.015625 64.394531 225 C 63.78125 222.984375 63.21875 220.953125 62.707031 218.90625 C 62.195312 216.863281 61.734375 214.808594 61.324219 212.742188 C 60.914062 210.675781 60.550781 208.597656 60.242188 206.511719 C 59.933594 204.429688 59.675781 202.339844 59.46875 200.242188 C 59.261719 198.144531 59.109375 196.042969 59.003906 193.9375 C 58.902344 191.832031 58.847656 189.726562 58.847656 187.621094 C 58.847656 185.511719 58.902344 183.40625 59.003906 181.300781 C 59.109375 179.195312 59.261719 177.09375 59.46875 174.996094 C 59.675781 172.898438 59.933594 170.808594 60.242188 168.726562 C 60.550781 166.640625 60.914062 164.5625 61.324219 162.496094 C 61.734375 160.429688 62.195312 158.375 62.707031 156.332031 C 63.21875 154.285156 63.78125 152.257812 64.394531 150.238281 C 65.003906 148.222656 65.667969 146.222656 66.375 144.238281 C 67.085938 142.253906 67.84375 140.289062 68.652344 138.339844 C 69.457031 136.394531 70.3125 134.46875 71.210938 132.5625 C 72.113281 130.65625 73.0625 128.777344 74.054688 126.917969 C 75.046875 125.058594 76.085938 123.226562 77.167969 121.417969 C 78.253906 119.609375 79.378906 117.832031 80.550781 116.078125 C 81.722656 114.324219 82.933594 112.605469 84.191406 110.910156 C 85.445312 109.21875 86.742188 107.558594 88.078125 105.929688 C 89.414062 104.300781 90.792969 102.703125 92.207031 101.140625 C 93.621094 99.582031 95.074219 98.054688 96.566406 96.566406 C 98.054688 95.074219 99.582031 93.621094 101.140625 92.207031 C 102.703125 90.792969 104.300781 89.414062 105.929688 88.078125 C 107.558594 86.742188 109.21875 85.445312 110.910156 84.191406 C 112.605469 82.933594 114.324219 81.722656 116.078125 80.550781 C 117.832031 79.378906 119.609375 78.253906 121.417969 77.167969 C 123.226562 76.085938 125.058594 75.046875 126.917969 74.054688 C 128.777344 73.0625 130.65625 72.113281 132.5625 71.210938 C 134.46875 70.3125 136.394531 69.457031 138.339844 68.652344 C 140.289062 67.84375 142.253906 67.085938 144.238281 66.375 C 146.222656 65.667969 148.222656 65.003906 150.238281 64.394531 C 152.257812 63.78125 154.285156 63.21875 156.332031 62.707031 C 158.375 62.195312 160.429688 61.734375 162.496094 61.324219 C 164.5625 60.914062 166.640625 60.550781 168.726562 60.242188 C 170.808594 59.933594 172.898438 59.675781 174.996094 59.46875 C 177.09375 59.261719 179.195312 59.109375 181.300781 59.003906 C 183.40625 58.902344 185.511719 58.847656 187.621094 58.847656 C 189.726562 58.847656 191.832031 58.902344 193.9375 59.003906 C 196.042969 59.109375 198.144531 59.261719 200.242188 59.46875 C 202.339844 59.675781 204.429688 59.933594 206.511719 60.242188 C 208.597656 60.550781 210.675781 60.914062 212.742188 61.324219 C 214.808594 61.734375 216.863281 62.195312 218.90625 62.707031 C 220.953125 63.21875 222.984375 63.78125 225 64.394531 C 227.015625 65.003906 229.015625 65.667969 231 66.375 C 232.984375 67.085938 234.949219 67.84375 236.898438 68.652344 C 238.84375 69.457031 240.769531 70.3125 242.675781 71.210938 C 244.582031 72.113281 246.460938 73.0625 248.320312 74.054688 C 250.179688 75.046875 252.011719 76.085938 253.820312 77.167969 C 255.628906 78.253906 257.40625 79.378906 259.160156 80.550781 C 260.914062 81.722656 262.632812 82.933594 264.328125 84.191406 C 266.019531 85.445312 267.679688 86.742188 269.308594 88.078125 C 270.9375 89.414062 272.535156 90.792969 274.097656 92.207031 C 275.65625 93.621094 277.183594 95.074219 278.671875 96.566406 C 280.164062 98.054688 281.617188 99.582031 283.03125 101.140625 C 284.445312 102.703125 285.824219 104.300781 287.160156 105.929688 C 288.496094 107.558594 289.792969 109.21875 291.046875 110.910156 C 292.304688 112.605469 293.515625 114.324219 294.6875 116.078125 C 295.859375 117.832031 296.984375 119.609375 298.070312 121.417969 C 299.152344 123.226562 300.191406 125.058594 301.183594 126.917969 C 302.175781 128.777344 303.125 130.65625 304.027344 132.5625 C 304.925781 134.46875 305.78125 136.394531 306.585938 138.339844 C 307.394531 140.289062 308.152344 142.253906 308.863281 144.238281 C 309.570312 146.222656 310.234375 148.222656 310.84375 150.238281 C 311.457031 152.257812 312.019531 154.285156 312.53125 156.332031 C 313.042969 158.375 313.503906 160.429688 313.914062 162.496094 C 314.324219 164.5625 314.6875 166.640625 314.996094 168.726562 C 315.304688 170.808594 315.5625 172.898438 315.769531 174.996094 C 315.976562 177.09375 316.128906 179.195312 316.234375 181.300781 C 316.335938 183.40625 316.390625 185.511719 316.390625 187.621094 Z M 316.390625 187.621094 " fill-opacity="1" fill-rule="nonzero"/><path fill="#ffad39" d="M 181.992188 316.289062 C 113.457031 313.328125 58.847656 256.84375 58.847656 187.621094 C 58.847656 118.394531 113.457031 61.910156 181.992188 58.949219 C 250.425781 61.910156 305.03125 118.394531 305.03125 187.621094 C 305.03125 256.84375 250.425781 313.328125 181.992188 316.289062 Z M 181.992188 316.289062 " fill-opacity="1" fill-rule="evenodd"/><path fill="#7b295a" d="M 242.917969 231.070312 C 241.933594 231.070312 234.625 226.527344 233.242188 225.738281 C 229.390625 229.984375 222.476562 227.121094 222.476562 221.195312 C 222.476562 218.230469 224.355469 215.863281 227.121094 215.171875 L 227.121094 205.097656 C 227.121094 202.925781 230.378906 202.925781 230.378906 205.097656 L 230.378906 215.171875 C 233.835938 215.960938 235.613281 219.417969 234.820312 222.773438 L 243.710938 228.007812 C 245.191406 228.898438 244.5 231.070312 242.917969 231.070312 Z M 209.246094 259.707031 L 117.507812 259.707031 C 109.902344 259.707031 103.386719 253.089844 103.386719 245.191406 L 103.386719 141.898438 C 103.386719 134.097656 109.707031 127.679688 117.507812 127.679688 L 124.417969 127.679688 C 124.417969 122.542969 123.828125 118.789062 128.171875 114.347656 C 133.109375 109.507812 141.601562 110 145.75 114.542969 C 149.601562 118.691406 149.105469 122.839844 149.105469 127.679688 L 155.722656 127.679688 C 155.722656 122.640625 155.128906 118.394531 159.179688 114.347656 C 166.289062 107.335938 180.015625 111.484375 180.015625 122.742188 L 180.015625 127.679688 L 186.632812 127.679688 C 186.632812 122.050781 186.039062 119.183594 190.382812 114.445312 C 194.628906 109.707031 203.320312 109.707031 207.566406 114.445312 C 211.910156 119.183594 211.320312 122.050781 211.320312 127.679688 L 218.230469 127.679688 C 226.03125 127.679688 232.351562 134.097656 232.351562 141.898438 L 232.351562 178.238281 C 254.472656 180.113281 271.851562 198.679688 271.851562 221.195312 C 271.851562 253.980469 237.488281 273.925781 209.246094 259.707031 Z M 124.417969 131.035156 L 117.507812 131.035156 C 111.582031 131.035156 106.644531 135.875 106.644531 141.898438 L 106.644531 154.042969 L 229.09375 154.042969 L 229.09375 141.898438 C 229.09375 135.875 224.253906 131.035156 218.230469 131.035156 L 197.789062 131.035156 L 197.789062 145.453125 C 197.789062 153.058594 186.632812 152.660156 186.632812 145.453125 L 186.632812 131.035156 L 166.882812 131.035156 L 166.882812 145.453125 C 166.882812 152.660156 155.722656 153.058594 155.722656 145.453125 L 155.722656 131.035156 L 135.578125 131.035156 L 135.578125 145.453125 C 135.578125 153.058594 124.417969 152.660156 124.417969 145.453125 Z M 106.644531 157.304688 L 106.644531 245.191406 C 106.644531 251.3125 111.679688 256.449219 117.507812 256.449219 L 203.714844 256.449219 C 197.296875 251.808594 192.160156 245.585938 189.101562 238.277344 L 180.410156 238.277344 C 180.410156 241.535156 181.003906 244.894531 178.730469 244.894531 C 176.460938 244.894531 177.054688 241.535156 177.054688 238.277344 L 158.683594 238.277344 C 158.683594 241.535156 159.277344 244.894531 157.007812 244.894531 C 154.734375 244.894531 155.328125 241.535156 155.328125 238.277344 L 137.257812 238.277344 C 137.257812 241.535156 137.949219 244.894531 135.578125 244.894531 C 133.308594 244.894531 133.996094 241.535156 133.996094 238.277344 L 122.148438 238.277344 C 119.976562 238.277344 119.976562 235.019531 122.148438 235.019531 L 133.996094 235.019531 L 133.996094 216.554688 L 122.148438 216.554688 C 119.976562 216.554688 119.976562 213.292969 122.148438 213.292969 L 133.996094 213.292969 L 133.996094 195.222656 L 122.148438 195.222656 C 119.976562 195.222656 119.976562 191.867188 122.148438 191.867188 L 133.996094 191.867188 L 133.996094 173.496094 L 122.148438 173.496094 C 119.976562 173.496094 119.976562 170.140625 122.148438 170.140625 L 133.996094 170.140625 C 133.996094 166.980469 133.308594 163.621094 135.578125 163.621094 C 137.949219 163.621094 137.257812 166.980469 137.257812 170.140625 L 155.328125 170.140625 C 155.328125 166.980469 154.734375 163.621094 157.007812 163.621094 C 159.277344 163.621094 158.683594 166.980469 158.683594 170.140625 L 177.054688 170.140625 C 177.054688 166.980469 176.460938 163.621094 178.730469 163.621094 C 181.003906 163.621094 180.410156 166.980469 180.410156 170.140625 L 198.777344 170.140625 C 198.777344 166.980469 198.183594 163.621094 200.457031 163.621094 C 202.726562 163.621094 202.136719 166.980469 202.136719 170.140625 L 213.589844 170.140625 C 215.761719 170.140625 215.761719 173.496094 213.589844 173.496094 L 202.136719 173.496094 L 202.136719 187.324219 C 209.542969 181.496094 218.921875 178.039062 229.09375 178.039062 L 229.09375 157.304688 Z M 194.53125 129.457031 L 194.53125 122.742188 C 194.53125 117.507812 203.417969 117.507812 203.417969 122.742188 L 203.417969 127.679688 L 208.058594 127.679688 C 208.058594 122.542969 208.652344 120.46875 205.097656 116.617188 C 202.136719 113.359375 195.714844 113.457031 192.851562 116.617188 C 189.101562 120.667969 189.890625 123.234375 189.890625 129.355469 L 189.890625 145.453125 C 189.890625 148.316406 194.53125 148.808594 194.53125 145.453125 Z M 197.789062 127.679688 L 200.160156 127.679688 C 200.160156 121.753906 200.554688 122.148438 198.777344 122.148438 C 197.394531 122.148438 197.789062 122.640625 197.789062 127.679688 Z M 166.882812 127.679688 L 168.855469 127.679688 L 168.855469 122.445312 C 168.757812 122.34375 168.660156 122.246094 168.558594 122.148438 L 167.179688 122.148438 L 166.882812 122.742188 Z M 172.117188 127.679688 L 176.757812 127.679688 C 176.757812 123.433594 177.347656 119.777344 174.289062 116.714844 C 169.546875 111.777344 158.980469 114.246094 158.980469 122.742188 L 158.980469 145.453125 C 158.980469 148.808594 163.621094 148.316406 163.621094 145.453125 L 163.621094 122.742188 C 163.621094 121.851562 163.917969 120.863281 164.511719 120.171875 C 165.597656 118.789062 166.683594 118.789062 168.164062 118.789062 C 170.632812 118.789062 172.117188 120.371094 172.117188 122.742188 Z M 135.578125 127.679688 L 137.949219 127.679688 C 137.949219 121.652344 138.34375 122.148438 136.269531 122.148438 C 135.28125 123.332031 135.578125 121.359375 135.578125 127.679688 Z M 141.207031 127.679688 L 145.847656 127.679688 C 145.847656 123.726562 146.441406 120.074219 143.28125 116.617188 C 140.515625 113.65625 134.097656 113.0625 130.542969 116.714844 C 126.886719 120.371094 127.679688 123.925781 127.679688 129.355469 L 127.679688 145.453125 C 127.679688 148.316406 132.320312 148.808594 132.320312 145.453125 L 132.320312 122.742188 C 132.320312 118.988281 137.554688 117.507812 140.023438 119.976562 C 141.699219 121.652344 141.207031 124.8125 141.207031 127.679688 Z M 137.257812 173.496094 L 137.257812 191.867188 L 155.328125 191.867188 L 155.328125 173.496094 Z M 137.257812 195.222656 L 137.257812 213.292969 L 155.328125 213.292969 L 155.328125 195.222656 Z M 137.257812 216.554688 L 137.257812 235.019531 L 155.328125 235.019531 L 155.328125 216.554688 Z M 158.683594 173.496094 L 158.683594 191.867188 L 177.054688 191.867188 L 177.054688 173.496094 Z M 158.683594 195.222656 L 158.683594 213.292969 L 177.054688 213.292969 L 177.054688 195.222656 Z M 158.683594 216.554688 L 158.683594 235.019531 L 177.054688 235.019531 L 177.054688 216.554688 Z M 180.410156 173.496094 L 180.410156 191.867188 L 197.199219 191.867188 C 197.691406 191.273438 198.285156 190.777344 198.777344 190.1875 L 198.777344 173.496094 Z M 180.410156 195.222656 L 180.410156 213.292969 L 186.335938 213.292969 C 187.621094 206.578125 190.382812 200.457031 194.433594 195.222656 Z M 180.410156 216.554688 L 180.410156 235.019531 L 187.816406 235.019531 C 185.941406 229.191406 185.25 222.773438 185.941406 216.554688 Z M 200.949219 192.753906 C 193.542969 199.964844 188.902344 210.035156 188.902344 221.195312 C 188.902344 243.117188 206.777344 260.992188 228.796875 260.992188 C 250.71875 260.992188 268.59375 243.117188 268.59375 221.195312 C 268.59375 199.273438 250.71875 181.398438 228.796875 181.398438 C 218.625 181.398438 209.441406 185.152344 202.433594 191.371094 C 201.9375 191.765625 201.445312 192.261719 200.949219 192.753906 Z M 228.796875 256.449219 C 209.441406 256.449219 193.542969 240.550781 193.542969 221.195312 C 193.542969 201.9375 209.34375 186.335938 228.796875 186.335938 C 260.003906 186.335938 275.804688 223.859375 253.585938 246.078125 C 246.96875 252.695312 238.082031 256.449219 228.796875 256.449219 Z M 228.796875 189.59375 C 211.121094 189.59375 196.804688 203.8125 196.804688 221.195312 C 196.804688 238.773438 211.121094 253.089844 228.796875 253.089844 C 246.375 253.089844 260.695312 238.773438 260.695312 221.195312 C 260.695312 203.8125 246.375 189.59375 228.796875 189.59375 Z M 228.796875 200.457031 C 227.808594 200.457031 227.121094 199.765625 227.121094 198.777344 L 227.121094 191.867188 C 227.121094 189.691406 230.378906 189.691406 230.378906 191.867188 L 230.378906 198.777344 C 230.378906 199.765625 229.6875 200.457031 228.796875 200.457031 Z M 239.957031 203.417969 C 238.671875 203.417969 237.882812 202.035156 238.574219 200.949219 L 241.832031 195.027344 C 242.820312 193.148438 245.78125 194.730469 244.695312 196.703125 L 241.4375 202.628906 C 241.140625 203.121094 240.550781 203.417969 239.957031 203.417969 Z M 248.152344 211.617188 C 246.472656 211.617188 245.882812 209.34375 247.363281 208.554688 L 253.289062 205.296875 C 255.164062 204.210938 256.746094 207.074219 254.867188 208.160156 C 253.878906 208.652344 248.941406 211.617188 248.152344 211.617188 Z M 258.027344 222.871094 L 251.117188 222.871094 C 248.941406 222.871094 248.941406 219.515625 251.117188 219.515625 L 258.027344 219.515625 C 260.199219 219.515625 260.199219 222.871094 258.027344 222.871094 Z M 254.078125 237.683594 C 253.1875 237.683594 248.746094 234.625 247.363281 233.835938 C 245.488281 232.648438 247.164062 229.785156 249.042969 230.96875 L 254.964844 234.625 C 256.347656 235.414062 255.757812 237.683594 254.078125 237.683594 Z M 243.214844 248.152344 C 242.621094 248.152344 242.128906 247.855469 241.832031 247.363281 L 238.476562 241.4375 C 237.390625 239.464844 240.351562 237.882812 241.339844 239.757812 L 244.695312 245.683594 C 245.289062 246.871094 244.402344 248.152344 243.214844 248.152344 Z M 228.796875 252.101562 C 227.808594 252.101562 227.121094 251.410156 227.121094 250.523438 L 227.121094 243.609375 C 227.121094 241.4375 230.378906 241.4375 230.378906 243.609375 L 230.378906 250.523438 C 230.378906 251.410156 229.6875 252.101562 228.796875 252.101562 Z M 214.28125 248.152344 C 212.996094 248.152344 212.207031 246.871094 212.898438 245.78125 L 216.15625 239.859375 C 217.144531 237.882812 220.109375 239.5625 219.023438 241.4375 L 215.761719 247.363281 C 215.464844 247.855469 214.875 248.152344 214.28125 248.152344 Z M 203.417969 237.683594 C 201.839844 237.683594 201.148438 235.511719 202.53125 234.625 L 208.457031 230.96875 C 210.332031 229.882812 212.011719 232.648438 210.234375 233.835938 C 209.148438 234.425781 204.40625 237.683594 203.417969 237.683594 Z M 206.382812 222.871094 L 199.46875 222.871094 C 197.296875 222.871094 197.296875 219.515625 199.46875 219.515625 L 206.382812 219.515625 C 208.554688 219.515625 208.554688 222.871094 206.382812 222.871094 Z M 209.34375 211.617188 C 208.457031 211.617188 203.714844 208.75 202.628906 208.160156 C 200.753906 207.074219 202.332031 204.210938 204.210938 205.296875 L 210.132812 208.554688 C 211.617188 209.34375 211.121094 211.617188 209.34375 211.617188 Z M 217.539062 203.417969 C 216.949219 203.417969 216.453125 203.121094 216.15625 202.53125 L 212.800781 196.605469 C 211.8125 194.730469 214.675781 193.148438 215.664062 195.027344 L 219.023438 200.949219 C 219.613281 202.136719 218.726562 203.417969 217.539062 203.417969 Z M 231.070312 223.167969 C 231.265625 222.378906 231.761719 222.675781 231.761719 221.195312 C 231.761719 217.246094 225.835938 217.246094 225.835938 221.195312 C 225.835938 224.355469 229.390625 225.636719 231.070312 223.167969 Z M 231.070312 223.167969 " fill-opacity="1" fill-rule="evenodd"/><path fill="#ffeae0" d="M 233.242188 225.738281 C 229.390625 229.984375 222.476562 227.121094 222.476562 221.195312 C 222.476562 218.230469 224.355469 215.863281 227.121094 215.171875 L 227.121094 205.097656 C 227.121094 202.925781 230.378906 202.925781 230.378906 205.097656 L 230.378906 215.171875 C 233.835938 215.960938 235.613281 219.417969 234.820312 222.773438 L 243.710938 228.007812 C 245.191406 228.898438 244.5 231.070312 242.917969 231.070312 C 241.933594 231.070312 234.625 226.527344 233.242188 225.738281 Z M 196.804688 221.195312 C 196.804688 238.773438 211.121094 253.089844 228.796875 253.089844 C 246.375 253.089844 260.695312 238.773438 260.695312 221.195312 C 260.695312 203.8125 246.375 189.59375 228.796875 189.59375 C 211.121094 189.59375 196.804688 203.8125 196.804688 221.195312 Z M 228.796875 200.457031 C 227.808594 200.457031 227.121094 199.765625 227.121094 198.777344 L 227.121094 191.867188 C 227.121094 189.691406 230.378906 189.691406 230.378906 191.867188 L 230.378906 198.777344 C 230.378906 199.765625 229.6875 200.457031 228.796875 200.457031 Z M 239.957031 203.417969 C 238.671875 203.417969 237.882812 202.035156 238.574219 200.949219 L 241.832031 195.027344 C 242.820312 193.148438 245.78125 194.730469 244.695312 196.703125 L 241.4375 202.628906 C 241.140625 203.121094 240.550781 203.417969 239.957031 203.417969 Z M 248.152344 211.617188 C 246.472656 211.617188 245.882812 209.34375 247.363281 208.554688 L 253.289062 205.296875 C 255.164062 204.210938 256.746094 207.074219 254.867188 208.160156 C 253.878906 208.652344 248.941406 211.617188 248.152344 211.617188 Z M 251.117188 222.871094 C 248.941406 222.871094 248.941406 219.515625 251.117188 219.515625 L 258.027344 219.515625 C 260.199219 219.515625 260.199219 222.871094 258.027344 222.871094 Z M 254.078125 237.683594 C 253.1875 237.683594 248.746094 234.625 247.363281 233.835938 C 245.488281 232.648438 247.164062 229.785156 249.042969 230.96875 L 254.964844 234.625 C 256.347656 235.414062 255.757812 237.683594 254.078125 237.683594 Z M 243.214844 248.152344 C 242.621094 248.152344 242.128906 247.855469 241.832031 247.363281 L 238.476562 241.4375 C 237.390625 239.464844 240.351562 237.882812 241.339844 239.757812 L 244.695312 245.683594 C 245.289062 246.871094 244.402344 248.152344 243.214844 248.152344 Z M 227.121094 250.523438 L 227.121094 243.609375 C 227.121094 241.4375 230.378906 241.4375 230.378906 243.609375 L 230.378906 250.523438 C 230.378906 251.410156 229.6875 252.101562 228.796875 252.101562 C 227.808594 252.101562 227.121094 251.410156 227.121094 250.523438 Z M 212.898438 245.78125 L 216.15625 239.859375 C 217.144531 237.882812 220.109375 239.5625 219.023438 241.4375 L 215.761719 247.363281 C 215.464844 247.855469 214.875 248.152344 214.28125 248.152344 C 212.996094 248.152344 212.207031 246.871094 212.898438 245.78125 Z M 202.53125 234.625 L 208.457031 230.96875 C 210.332031 229.882812 212.011719 232.648438 210.234375 233.835938 C 209.148438 234.425781 204.40625 237.683594 203.417969 237.683594 C 201.839844 237.683594 201.148438 235.511719 202.53125 234.625 Z M 206.382812 219.515625 C 208.554688 219.515625 208.554688 222.871094 206.382812 222.871094 L 199.46875 222.871094 C 197.296875 222.871094 197.296875 219.515625 199.46875 219.515625 Z M 209.34375 211.617188 C 208.457031 211.617188 203.714844 208.75 202.628906 208.160156 C 200.753906 207.074219 202.332031 204.210938 204.210938 205.296875 L 210.132812 208.554688 C 211.617188 209.34375 211.121094 211.617188 209.34375 211.617188 Z M 217.539062 203.417969 C 216.949219 203.417969 216.453125 203.121094 216.15625 202.53125 L 212.800781 196.605469 C 211.8125 194.730469 214.675781 193.148438 215.664062 195.027344 L 219.023438 200.949219 C 219.613281 202.136719 218.726562 203.417969 217.539062 203.417969 Z M 217.539062 203.417969 " fill-opacity="1" fill-rule="evenodd"/><path fill="#ffc855" d="M 225.835938 221.195312 C 225.835938 224.355469 229.390625 225.636719 231.070312 223.167969 C 231.265625 222.378906 231.761719 222.675781 231.761719 221.195312 C 231.761719 217.246094 225.835938 217.246094 225.835938 221.195312 Z M 225.835938 221.195312 " fill-opacity="1" fill-rule="evenodd"/><path fill="#00b09a" d="M 193.542969 221.195312 C 193.542969 201.9375 209.34375 186.335938 228.796875 186.335938 C 260.003906 186.335938 275.804688 223.859375 253.585938 246.078125 C 246.96875 252.695312 238.082031 256.449219 228.796875 256.449219 C 209.441406 256.449219 193.542969 240.550781 193.542969 221.195312 Z M 188.902344 221.195312 C 188.902344 243.117188 206.777344 260.992188 228.796875 260.992188 C 250.71875 260.992188 268.59375 243.117188 268.59375 221.195312 C 268.59375 199.273438 250.71875 181.398438 228.796875 181.398438 C 218.625 181.398438 209.441406 185.152344 202.433594 191.371094 C 201.9375 191.765625 201.445312 192.261719 200.949219 192.753906 C 193.542969 199.964844 188.902344 210.035156 188.902344 221.195312 Z M 188.902344 221.195312 " fill-opacity="1" fill-rule="evenodd"/><path fill="#ebf5fc" d="M 202.136719 187.324219 C 209.542969 181.496094 218.921875 178.039062 229.09375 178.039062 L 229.09375 157.304688 L 106.644531 157.304688 L 106.644531 245.191406 C 106.644531 251.3125 111.679688 256.449219 117.507812 256.449219 L 203.714844 256.449219 C 197.296875 251.808594 192.160156 245.585938 189.101562 238.277344 L 180.410156 238.277344 C 180.410156 241.535156 181.003906 244.894531 178.730469 244.894531 C 176.460938 244.894531 177.054688 241.535156 177.054688 238.277344 L 158.683594 238.277344 C 158.683594 241.535156 159.277344 244.894531 157.007812 244.894531 C 154.734375 244.894531 155.328125 241.535156 155.328125 238.277344 L 137.257812 238.277344 C 137.257812 241.535156 137.949219 244.894531 135.578125 244.894531 C 133.308594 244.894531 133.996094 241.535156 133.996094 238.277344 L 122.148438 238.277344 C 119.976562 238.277344 119.976562 235.019531 122.148438 235.019531 L 133.996094 235.019531 L 133.996094 216.554688 L 122.148438 216.554688 C 119.976562 216.554688 119.976562 213.292969 122.148438 213.292969 L 133.996094 213.292969 L 133.996094 195.222656 L 122.148438 195.222656 C 119.976562 195.222656 119.976562 191.867188 122.148438 191.867188 L 133.996094 191.867188 L 133.996094 173.496094 L 122.148438 173.496094 C 119.976562 173.496094 119.976562 170.140625 122.148438 170.140625 L 133.996094 170.140625 C 133.996094 166.980469 133.308594 163.621094 135.578125 163.621094 C 137.949219 163.621094 137.257812 166.980469 137.257812 170.140625 L 155.328125 170.140625 C 155.328125 166.980469 154.734375 163.621094 157.007812 163.621094 C 159.277344 163.621094 158.683594 166.980469 158.683594 170.140625 L 177.054688 170.140625 C 177.054688 166.980469 176.460938 163.621094 178.730469 163.621094 C 181.003906 163.621094 180.410156 166.980469 180.410156 170.140625 L 198.777344 170.140625 C 198.777344 166.980469 198.183594 163.621094 200.457031 163.621094 C 202.726562 163.621094 202.136719 166.980469 202.136719 170.140625 L 213.589844 170.140625 C 215.761719 170.140625 215.761719 173.496094 213.589844 173.496094 L 202.136719 173.496094 Z M 202.136719 187.324219 " fill-opacity="1" fill-rule="evenodd"/><path fill="#ebf5fc" d="M 198.777344 190.1875 L 198.777344 173.496094 L 180.410156 173.496094 L 180.410156 191.867188 L 197.199219 191.867188 C 197.691406 191.273438 198.285156 190.777344 198.777344 190.1875 Z M 198.777344 190.1875 " fill-opacity="1" fill-rule="evenodd"/><path fill="#ebf5fc" d="M 158.683594 173.496094 L 177.054688 173.496094 L 177.054688 191.867188 L 158.683594 191.867188 Z M 158.683594 173.496094 " fill-opacity="1" fill-rule="evenodd"/><path fill="#ebf5fc" d="M 137.257812 173.496094 L 155.328125 173.496094 L 155.328125 191.867188 L 137.257812 191.867188 Z M 137.257812 173.496094 " fill-opacity="1" fill-rule="evenodd"/><path fill="#ebf5fc" d="M 137.257812 195.222656 L 155.328125 195.222656 L 155.328125 213.292969 L 137.257812 213.292969 Z M 137.257812 195.222656 " fill-opacity="1" fill-rule="evenodd"/><path fill="#ebf5fc" d="M 158.683594 195.222656 L 177.054688 195.222656 L 177.054688 213.292969 L 158.683594 213.292969 Z M 158.683594 195.222656 " fill-opacity="1" fill-rule="evenodd"/><path fill="#ebf5fc" d="M 158.683594 216.554688 L 177.054688 216.554688 L 177.054688 235.019531 L 158.683594 235.019531 Z M 158.683594 216.554688 " fill-opacity="1" fill-rule="evenodd"/><path fill="#ebf5fc" d="M 180.410156 195.222656 L 180.410156 213.292969 L 186.335938 213.292969 C 187.621094 206.578125 190.382812 200.457031 194.433594 195.222656 Z M 180.410156 195.222656 " fill-opacity="1" fill-rule="evenodd"/><path fill="#ebf5fc" d="M 185.941406 216.554688 L 180.410156 216.554688 L 180.410156 235.019531 L 187.816406 235.019531 C 185.941406 229.191406 185.25 222.773438 185.941406 216.554688 Z M 185.941406 216.554688 " fill-opacity="1" fill-rule="evenodd"/><path fill="#ebf5fc" d="M 137.257812 216.554688 L 155.328125 216.554688 L 155.328125 235.019531 L 137.257812 235.019531 Z M 137.257812 216.554688 " fill-opacity="1" fill-rule="evenodd"/><path fill="#00b09a" d="M 106.644531 154.042969 L 229.09375 154.042969 L 229.09375 141.898438 C 229.09375 135.875 224.253906 131.035156 218.230469 131.035156 L 197.789062 131.035156 L 197.789062 145.453125 C 197.789062 153.058594 186.632812 152.660156 186.632812 145.453125 L 186.632812 131.035156 L 166.882812 131.035156 L 166.882812 145.453125 C 166.882812 152.660156 155.722656 153.058594 155.722656 145.453125 L 155.722656 131.035156 L 135.578125 131.035156 L 135.578125 145.453125 C 135.578125 153.058594 124.417969 152.660156 124.417969 145.453125 L 124.417969 131.035156 L 117.507812 131.035156 C 111.582031 131.035156 106.644531 135.875 106.644531 141.898438 Z M 106.644531 154.042969 " fill-opacity="1" fill-rule="evenodd"/><path fill="#e6e6e6" d="M 132.320312 145.453125 L 132.320312 122.742188 C 132.320312 118.988281 137.554688 117.507812 140.023438 119.976562 C 141.699219 121.652344 141.207031 124.8125 141.207031 127.679688 L 145.847656 127.679688 C 145.847656 123.726562 146.441406 120.074219 143.28125 116.617188 C 140.515625 113.65625 134.097656 113.0625 130.542969 116.714844 C 126.886719 120.371094 127.679688 123.925781 127.679688 129.355469 L 127.679688 145.453125 C 127.679688 148.316406 132.320312 148.808594 132.320312 145.453125 Z M 132.320312 145.453125 " fill-opacity="1" fill-rule="evenodd"/><path fill="#e6e6e6" d="M 158.980469 122.742188 L 158.980469 145.453125 C 158.980469 148.808594 163.621094 148.316406 163.621094 145.453125 L 163.621094 122.742188 C 163.621094 121.851562 163.917969 120.863281 164.511719 120.171875 C 165.597656 118.789062 166.683594 118.789062 168.164062 118.789062 C 170.632812 118.789062 172.117188 120.371094 172.117188 122.742188 L 172.117188 127.679688 L 176.757812 127.679688 C 176.757812 123.433594 177.347656 119.777344 174.289062 116.714844 C 169.546875 111.777344 158.980469 114.246094 158.980469 122.742188 Z M 158.980469 122.742188 " fill-opacity="1" fill-rule="evenodd"/><path fill="#e6e6e6" d="M 189.890625 129.355469 L 189.890625 145.453125 C 189.890625 148.316406 194.53125 148.808594 194.53125 145.453125 L 194.53125 122.742188 C 194.53125 117.507812 203.417969 117.507812 203.417969 122.742188 L 203.417969 127.679688 L 208.058594 127.679688 C 208.058594 122.542969 208.652344 120.46875 205.097656 116.617188 C 202.136719 113.359375 195.714844 113.457031 192.851562 116.617188 C 189.101562 120.667969 189.890625 123.234375 189.890625 129.355469 Z M 189.890625 129.355469 " fill-opacity="1" fill-rule="evenodd"/></svg>