<svg xmlns="http://www.w3.org/2000/svg" xmlns:xlink="http://www.w3.org/1999/xlink" width="500" zoomAndPan="magnify" viewBox="0 0 375 374.999991" height="500" preserveAspectRatio="xMidYMid meet" version="1.0"><defs><clipPath id="47c39c03ab"><path d="M 91 93 L 199 93 L 199 201 L 91 201 Z M 91 93 " clip-rule="nonzero"/></clipPath><clipPath id="f0ca9855da"><path d="M 111.667969 85.488281 L 207.191406 181.011719 L 179.277344 208.925781 L 83.753906 113.402344 Z M 111.667969 85.488281 " clip-rule="nonzero"/></clipPath><clipPath id="9eb243fe46"><path d="M 125.625 99.445312 L 193.164062 166.980469 C 196.863281 170.683594 198.945312 175.703125 198.945312 180.9375 C 198.945312 186.171875 196.863281 191.195312 193.164062 194.894531 C 189.460938 198.597656 184.441406 200.675781 179.203125 200.675781 C 173.96875 200.675781 168.949219 198.597656 165.246094 194.894531 L 97.710938 127.359375 C 94.007812 123.660156 91.929688 118.636719 91.929688 113.402344 C 91.929688 108.167969 94.007812 103.148438 97.710938 99.445312 C 101.414062 95.742188 106.433594 93.664062 111.667969 93.664062 C 116.902344 93.664062 121.925781 95.742188 125.625 99.445312 Z M 125.625 99.445312 " clip-rule="nonzero"/></clipPath><clipPath id="22a7b6847e"><path d="M 91 162 L 199 162 L 199 270 L 91 270 Z M 91 162 " clip-rule="nonzero"/></clipPath><clipPath id="1285915b6f"><path d="M 207.121094 181.8125 L 111.59375 277.339844 L 83.679688 249.421875 L 179.203125 153.898438 Z M 207.121094 181.8125 " clip-rule="nonzero"/></clipPath><clipPath id="0a55c2b197"><path d="M 193.160156 195.773438 L 125.625 263.308594 C 121.925781 267.007812 116.902344 269.089844 111.667969 269.089844 C 106.433594 269.089844 101.414062 267.007812 97.710938 263.308594 C 94.007812 259.605469 91.929688 254.585938 91.929688 249.347656 C 91.929688 244.113281 94.007812 239.09375 97.710938 235.390625 L 165.246094 167.855469 C 168.949219 164.152344 173.96875 162.074219 179.203125 162.074219 C 184.4375 162.074219 189.460938 164.152344 193.160156 167.855469 C 196.863281 171.558594 198.945312 176.578125 198.945312 181.8125 C 198.945312 187.050781 196.863281 192.070312 193.160156 195.773438 Z M 193.160156 195.773438 " clip-rule="nonzero"/></clipPath><clipPath id="b2f2c16f13"><path d="M 176 93 L 284 93 L 284 201 L 176 201 Z M 176 93 " clip-rule="nonzero"/></clipPath><clipPath id="7eadcd6db0"><path d="M 195.78125 85.488281 L 291.304688 181.011719 L 263.390625 208.925781 L 167.863281 113.402344 Z M 195.78125 85.488281 " clip-rule="nonzero"/></clipPath><clipPath id="7b1571d20b"><path d="M 209.738281 99.445312 L 277.273438 166.980469 C 280.976562 170.683594 283.054688 175.703125 283.054688 180.9375 C 283.054688 186.171875 280.976562 191.195312 277.273438 194.894531 C 273.570312 198.597656 268.550781 200.675781 263.316406 200.675781 C 258.082031 200.675781 253.058594 198.597656 249.359375 194.894531 L 181.824219 127.359375 C 178.121094 123.660156 176.039062 118.636719 176.039062 113.402344 C 176.039062 108.167969 178.121094 103.148438 181.824219 99.445312 C 185.523438 95.742188 190.546875 93.664062 195.78125 93.664062 C 201.015625 93.664062 206.035156 95.742188 209.738281 99.445312 Z M 209.738281 99.445312 " clip-rule="nonzero"/></clipPath><clipPath id="a466a35b15"><path d="M 176 162 L 284 162 L 284 270 L 176 270 Z M 176 162 " clip-rule="nonzero"/></clipPath><clipPath id="4479824b75"><path d="M 291.230469 181.8125 L 195.707031 277.339844 L 167.792969 249.421875 L 263.316406 153.898438 Z M 291.230469 181.8125 " clip-rule="nonzero"/></clipPath><clipPath id="7baa45b584"><path d="M 277.273438 195.773438 L 209.738281 263.308594 C 206.035156 267.007812 201.015625 269.089844 195.78125 269.089844 C 190.542969 269.089844 185.523438 267.007812 181.820312 263.308594 C 178.121094 259.605469 176.039062 254.585938 176.039062 249.347656 C 176.039062 244.113281 178.121094 239.09375 181.820312 235.390625 L 249.359375 167.855469 C 253.058594 164.152344 258.082031 162.074219 263.316406 162.074219 C 268.550781 162.074219 273.570312 164.152344 277.273438 167.855469 C 280.976562 171.558594 283.054688 176.578125 283.054688 181.8125 C 283.054688 187.050781 280.976562 192.070312 277.273438 195.773438 Z M 277.273438 195.773438 " clip-rule="nonzero"/></clipPath></defs><rect x="-37.5" width="450" fill="#ffffff" y="-37.499999" height="449.999989" fill-opacity="1"/><rect x="-37.5" width="450" fill="#ffffff" y="-37.499999" height="449.999989" fill-opacity="1"/><path fill="#ffc702" d="M 324.691406 115.460938 C 317.128906 66.863281 304.355469 56.34375 253.050781 43.964844 C 226.3125 37.507812 147.464844 38.105469 121.179688 43.964844 C 69.667969 55.445312 56.519531 66.777344 49.539062 115.460938 C 43.609375 156.832031 44.191406 215.898438 49.539062 247.324219 C 57.796875 295.8125 69.667969 307.339844 121.179688 318.824219 C 147.464844 324.683594 226.3125 325.277344 253.050781 318.824219 C 304.355469 306.441406 314.085938 295.355469 324.691406 247.324219 C 331.371094 217.085938 330.578125 153.261719 324.691406 115.460938 Z M 324.691406 115.460938 " fill-opacity="1" fill-rule="nonzero"/><g clip-path="url(#47c39c03ab)"><g clip-path="url(#f0ca9855da)"><g clip-path="url(#9eb243fe46)"><path fill="#ffffff" d="M 111.667969 85.488281 L 207.085938 180.902344 L 179.167969 208.816406 L 83.753906 113.402344 Z M 111.667969 85.488281 " fill-opacity="1" fill-rule="nonzero"/></g></g></g><g clip-path="url(#22a7b6847e)"><g clip-path="url(#1285915b6f)"><g clip-path="url(#0a55c2b197)"><path fill="#ffffff" d="M 207.121094 181.8125 L 111.703125 277.230469 L 83.789062 249.3125 L 179.203125 153.898438 Z M 207.121094 181.8125 " fill-opacity="1" fill-rule="nonzero"/></g></g></g><g clip-path="url(#b2f2c16f13)"><g clip-path="url(#7eadcd6db0)"><g clip-path="url(#7b1571d20b)"><path fill="#ffffff" d="M 195.78125 85.488281 L 291.195312 180.902344 L 263.28125 208.816406 L 167.863281 113.402344 Z M 195.78125 85.488281 " fill-opacity="1" fill-rule="nonzero"/></g></g></g><g clip-path="url(#a466a35b15)"><g clip-path="url(#4479824b75)"><g clip-path="url(#7baa45b584)"><path fill="#ffffff" d="M 291.230469 181.8125 L 195.816406 277.230469 L 167.898438 249.3125 L 263.316406 153.898438 Z M 291.230469 181.8125 " fill-opacity="1" fill-rule="nonzero"/></g></g></g></svg>