<svg xmlns="http://www.w3.org/2000/svg" xmlns:xlink="http://www.w3.org/1999/xlink" width="500" zoomAndPan="magnify" viewBox="0 0 375 374.999991" height="500" preserveAspectRatio="xMidYMid meet" version="1.0"><defs><clipPath id="000efb8028"><path d="M 38.789062 38.789062 L 336.539062 38.789062 L 336.539062 336.539062 L 38.789062 336.539062 Z M 38.789062 38.789062 " clip-rule="nonzero"/></clipPath></defs><rect x="-37.5" width="450" fill="#ffffff" y="-37.499999" height="449.999989" fill-opacity="1"/><rect x="-37.5" width="450" fill="#ffffff" y="-37.499999" height="449.999989" fill-opacity="1"/><g clip-path="url(#000efb8028)"><path fill="#ffb300" d="M 336.539062 187.664062 C 336.539062 190.097656 336.476562 192.535156 336.359375 194.96875 C 336.238281 197.402344 336.058594 199.828125 335.820312 202.253906 C 335.582031 204.679688 335.285156 207.097656 334.925781 209.507812 C 334.566406 211.917969 334.152344 214.316406 333.675781 216.707031 C 333.203125 219.097656 332.667969 221.472656 332.074219 223.835938 C 331.484375 226.199219 330.832031 228.546875 330.125 230.878906 C 329.417969 233.210938 328.65625 235.523438 327.835938 237.816406 C 327.015625 240.109375 326.136719 242.382812 325.203125 244.632812 C 324.273438 246.886719 323.285156 249.113281 322.242188 251.3125 C 321.203125 253.515625 320.105469 255.691406 318.957031 257.839844 C 317.808594 259.988281 316.609375 262.109375 315.355469 264.199219 C 314.105469 266.289062 312.800781 268.347656 311.445312 270.371094 C 310.09375 272.398438 308.691406 274.390625 307.238281 276.347656 C 305.789062 278.304688 304.289062 280.222656 302.742188 282.109375 C 301.199219 283.992188 299.609375 285.835938 297.972656 287.640625 C 296.335938 289.445312 294.65625 291.210938 292.933594 292.933594 C 291.210938 294.65625 289.445312 296.335938 287.640625 297.972656 C 285.835938 299.609375 283.992188 301.199219 282.109375 302.742188 C 280.222656 304.289062 278.304688 305.789062 276.347656 307.238281 C 274.390625 308.691406 272.398438 310.09375 270.371094 311.445312 C 268.347656 312.800781 266.289062 314.105469 264.199219 315.355469 C 262.109375 316.609375 259.988281 317.808594 257.839844 318.957031 C 255.691406 320.105469 253.515625 321.203125 251.3125 322.242188 C 249.113281 323.285156 246.886719 324.273438 244.632812 325.203125 C 242.382812 326.136719 240.109375 327.011719 237.816406 327.835938 C 235.523438 328.65625 233.210938 329.417969 230.878906 330.125 C 228.546875 330.832031 226.199219 331.484375 223.835938 332.074219 C 221.472656 332.667969 219.097656 333.203125 216.707031 333.675781 C 214.316406 334.152344 211.917969 334.566406 209.507812 334.925781 C 207.097656 335.285156 204.679688 335.582031 202.253906 335.820312 C 199.828125 336.058594 197.402344 336.238281 194.96875 336.359375 C 192.535156 336.476562 190.097656 336.539062 187.664062 336.539062 C 185.226562 336.539062 182.789062 336.476562 180.355469 336.359375 C 177.921875 336.238281 175.496094 336.058594 173.070312 335.820312 C 170.644531 335.582031 168.226562 335.285156 165.816406 334.925781 C 163.40625 334.566406 161.007812 334.152344 158.617188 333.675781 C 156.226562 333.203125 153.851562 332.667969 151.488281 332.074219 C 149.125 331.484375 146.777344 330.832031 144.445312 330.125 C 142.113281 329.417969 139.800781 328.65625 137.507812 327.835938 C 135.214844 327.011719 132.941406 326.136719 130.691406 325.203125 C 128.4375 324.273438 126.210938 323.285156 124.011719 322.242188 C 121.808594 321.203125 119.632812 320.105469 117.484375 318.957031 C 115.335938 317.808594 113.214844 316.609375 111.125 315.355469 C 109.035156 314.105469 106.976562 312.800781 104.953125 311.445312 C 102.925781 310.09375 100.933594 308.691406 98.976562 307.238281 C 97.019531 305.789062 95.101562 304.289062 93.21875 302.742188 C 91.332031 301.199219 89.488281 299.609375 87.683594 297.972656 C 85.878906 296.335938 84.113281 294.65625 82.390625 292.933594 C 80.667969 291.210938 78.988281 289.445312 77.351562 287.640625 C 75.71875 285.835938 74.125 283.992188 72.582031 282.109375 C 71.035156 280.222656 69.535156 278.304688 68.085938 276.347656 C 66.632812 274.390625 65.230469 272.398438 63.878906 270.371094 C 62.523438 268.347656 61.21875 266.289062 59.96875 264.199219 C 58.714844 262.109375 57.515625 259.988281 56.367188 257.839844 C 55.21875 255.691406 54.121094 253.515625 53.082031 251.3125 C 52.039062 249.113281 51.050781 246.886719 50.121094 244.632812 C 49.1875 242.382812 48.3125 240.109375 47.488281 237.816406 C 46.667969 235.523438 45.90625 233.210938 45.199219 230.878906 C 44.492188 228.546875 43.839844 226.199219 43.25 223.835938 C 42.65625 221.472656 42.125 219.097656 41.648438 216.707031 C 41.171875 214.316406 40.757812 211.917969 40.398438 209.507812 C 40.042969 207.097656 39.742188 204.679688 39.503906 202.253906 C 39.265625 199.828125 39.085938 197.402344 38.964844 194.96875 C 38.847656 192.535156 38.789062 190.097656 38.789062 187.664062 C 38.789062 185.226562 38.847656 182.789062 38.964844 180.355469 C 39.085938 177.921875 39.265625 175.496094 39.503906 173.070312 C 39.742188 170.644531 40.042969 168.226562 40.398438 165.816406 C 40.757812 163.40625 41.171875 161.007812 41.648438 158.617188 C 42.125 156.226562 42.65625 153.851562 43.25 151.488281 C 43.839844 149.125 44.492188 146.777344 45.199219 144.445312 C 45.90625 142.113281 46.667969 139.800781 47.488281 137.507812 C 48.3125 135.214844 49.1875 132.941406 50.121094 130.691406 C 51.050781 128.4375 52.039062 126.210938 53.082031 124.011719 C 54.121094 121.808594 55.21875 119.632812 56.367188 117.484375 C 57.515625 115.335938 58.714844 113.214844 59.96875 111.125 C 61.21875 109.035156 62.523438 106.976562 63.878906 104.953125 C 65.230469 102.925781 66.632812 100.933594 68.085938 98.976562 C 69.535156 97.019531 71.035156 95.101562 72.582031 93.21875 C 74.125 91.332031 75.71875 89.488281 77.351562 87.683594 C 78.988281 85.878906 80.667969 84.113281 82.390625 82.390625 C 84.113281 80.667969 85.878906 78.988281 87.683594 77.351562 C 89.488281 75.71875 91.332031 74.125 93.21875 72.582031 C 95.101562 71.035156 97.019531 69.535156 98.976562 68.085938 C 100.933594 66.632812 102.925781 65.230469 104.953125 63.878906 C 106.976562 62.523438 109.035156 61.21875 111.125 59.96875 C 113.214844 58.714844 115.335938 57.515625 117.484375 56.367188 C 119.632812 55.21875 121.808594 54.121094 124.011719 53.082031 C 126.210938 52.039062 128.4375 51.050781 130.691406 50.121094 C 132.941406 49.1875 135.214844 48.3125 137.507812 47.488281 C 139.800781 46.667969 142.113281 45.90625 144.445312 45.199219 C 146.777344 44.492188 149.125 43.839844 151.488281 43.25 C 153.851562 42.65625 156.226562 42.125 158.617188 41.648438 C 161.007812 41.171875 163.40625 40.757812 165.816406 40.398438 C 168.226562 40.042969 170.644531 39.742188 173.070312 39.503906 C 175.496094 39.265625 177.921875 39.085938 180.355469 38.964844 C 182.789062 38.847656 185.226562 38.789062 187.664062 38.789062 C 190.097656 38.789062 192.535156 38.847656 194.96875 38.964844 C 197.402344 39.085938 199.828125 39.265625 202.253906 39.503906 C 204.679688 39.742188 207.097656 40.042969 209.507812 40.398438 C 211.917969 40.757812 214.316406 41.171875 216.707031 41.648438 C 219.097656 42.125 221.472656 42.65625 223.835938 43.25 C 226.199219 43.839844 228.546875 44.492188 230.878906 45.199219 C 233.210938 45.90625 235.523438 46.667969 237.816406 47.488281 C 240.109375 48.3125 242.382812 49.1875 244.632812 50.121094 C 246.886719 51.050781 249.113281 52.039062 251.3125 53.082031 C 253.515625 54.121094 255.691406 55.21875 257.839844 56.367188 C 259.988281 57.515625 262.109375 58.714844 264.199219 59.96875 C 266.289062 61.21875 268.347656 62.523438 270.371094 63.878906 C 272.398438 65.230469 274.390625 66.632812 276.347656 68.085938 C 278.304688 69.535156 280.222656 71.035156 282.109375 72.582031 C 283.992188 74.125 285.835938 75.71875 287.640625 77.351562 C 289.445312 78.988281 291.210938 80.667969 292.933594 82.390625 C 294.65625 84.113281 296.335938 85.878906 297.972656 87.683594 C 299.609375 89.488281 301.199219 91.332031 302.742188 93.21875 C 304.289062 95.101562 305.789062 97.019531 307.238281 98.976562 C 308.691406 100.933594 310.09375 102.925781 311.445312 104.953125 C 312.800781 106.976562 314.105469 109.035156 315.355469 111.125 C 316.609375 113.214844 317.808594 115.335938 318.957031 117.484375 C 320.105469 119.632812 321.203125 121.808594 322.242188 124.011719 C 323.285156 126.210938 324.273438 128.4375 325.203125 130.691406 C 326.136719 132.941406 327.015625 135.214844 327.835938 137.507812 C 328.65625 139.800781 329.417969 142.113281 330.125 144.445312 C 330.832031 146.777344 331.484375 149.125 332.074219 151.488281 C 332.667969 153.851562 333.203125 156.226562 333.675781 158.617188 C 334.152344 161.007812 334.566406 163.40625 334.925781 165.816406 C 335.285156 168.226562 335.582031 170.644531 335.820312 173.070312 C 336.058594 175.496094 336.238281 177.921875 336.359375 180.355469 C 336.476562 182.789062 336.539062 185.226562 336.539062 187.664062 Z M 336.539062 187.664062 " fill-opacity="1" fill-rule="nonzero"/></g><path fill="#ffca28" d="M 327.90625 187.664062 C 327.90625 189.957031 327.851562 192.25 327.738281 194.542969 C 327.625 196.835938 327.457031 199.125 327.230469 201.410156 C 327.007812 203.691406 326.726562 205.96875 326.390625 208.242188 C 326.050781 210.511719 325.660156 212.769531 325.210938 215.023438 C 324.765625 217.273438 324.261719 219.511719 323.703125 221.738281 C 323.144531 223.964844 322.535156 226.175781 321.867188 228.371094 C 321.203125 230.570312 320.480469 232.75 319.707031 234.910156 C 318.933594 237.070312 318.109375 239.210938 317.230469 241.332031 C 316.351562 243.453125 315.421875 245.550781 314.441406 247.625 C 313.460938 249.699219 312.429688 251.75 311.347656 253.773438 C 310.265625 255.796875 309.132812 257.792969 307.953125 259.761719 C 306.773438 261.730469 305.546875 263.667969 304.269531 265.578125 C 302.996094 267.484375 301.675781 269.363281 300.308594 271.207031 C 298.941406 273.050781 297.527344 274.859375 296.074219 276.632812 C 294.617188 278.40625 293.117188 280.144531 291.578125 281.84375 C 290.035156 283.546875 288.453125 285.207031 286.828125 286.828125 C 285.207031 288.453125 283.546875 290.035156 281.84375 291.578125 C 280.144531 293.117188 278.40625 294.617188 276.632812 296.074219 C 274.859375 297.527344 273.050781 298.941406 271.207031 300.308594 C 269.363281 301.675781 267.484375 302.996094 265.578125 304.269531 C 263.667969 305.546875 261.730469 306.773438 259.761719 307.953125 C 257.792969 309.132812 255.796875 310.265625 253.773438 311.347656 C 251.75 312.429688 249.699219 313.460938 247.625 314.441406 C 245.550781 315.421875 243.453125 316.351562 241.332031 317.230469 C 239.210938 318.109375 237.070312 318.933594 234.910156 319.707031 C 232.75 320.480469 230.570312 321.203125 228.371094 321.867188 C 226.175781 322.535156 223.964844 323.144531 221.738281 323.703125 C 219.511719 324.261719 217.273438 324.765625 215.023438 325.210938 C 212.769531 325.660156 210.511719 326.050781 208.242188 326.390625 C 205.96875 326.726562 203.691406 327.007812 201.410156 327.230469 C 199.125 327.457031 196.835938 327.625 194.542969 327.738281 C 192.25 327.851562 189.957031 327.90625 187.664062 327.90625 C 185.367188 327.90625 183.074219 327.851562 180.78125 327.738281 C 178.488281 327.625 176.199219 327.457031 173.914062 327.230469 C 171.632812 327.007812 169.355469 326.726562 167.085938 326.390625 C 164.8125 326.050781 162.554688 325.660156 160.300781 325.210938 C 158.050781 324.765625 155.8125 324.261719 153.585938 323.703125 C 151.359375 323.144531 149.148438 322.535156 146.953125 321.867188 C 144.753906 321.203125 142.578125 320.480469 140.414062 319.707031 C 138.253906 318.933594 136.113281 318.109375 133.992188 317.230469 C 131.871094 316.351562 129.773438 315.421875 127.699219 314.441406 C 125.625 313.460938 123.574219 312.429688 121.550781 311.347656 C 119.527344 310.265625 117.53125 309.132812 115.5625 307.953125 C 113.59375 306.773438 111.65625 305.546875 109.746094 304.269531 C 107.839844 302.996094 105.960938 301.675781 104.117188 300.308594 C 102.273438 298.941406 100.464844 297.527344 98.691406 296.074219 C 96.917969 294.617188 95.179688 293.117188 93.480469 291.578125 C 91.777344 290.035156 90.117188 288.453125 88.496094 286.828125 C 86.871094 285.207031 85.289062 283.546875 83.746094 281.84375 C 82.207031 280.144531 80.707031 278.40625 79.25 276.632812 C 77.796875 274.859375 76.382812 273.050781 75.015625 271.207031 C 73.648438 269.363281 72.328125 267.484375 71.054688 265.578125 C 69.777344 263.667969 68.550781 261.730469 67.371094 259.761719 C 66.191406 257.792969 65.058594 255.796875 63.976562 253.773438 C 62.894531 251.75 61.863281 249.699219 60.882812 247.625 C 59.902344 245.550781 58.972656 243.453125 58.09375 241.332031 C 57.214844 239.210938 56.390625 237.070312 55.617188 234.910156 C 54.84375 232.75 54.121094 230.570312 53.457031 228.371094 C 52.789062 226.175781 52.179688 223.964844 51.621094 221.738281 C 51.0625 219.511719 50.558594 217.273438 50.113281 215.023438 C 49.664062 212.769531 49.273438 210.511719 48.9375 208.242188 C 48.597656 205.96875 48.316406 203.691406 48.09375 201.410156 C 47.867188 199.125 47.699219 196.835938 47.585938 194.542969 C 47.472656 192.25 47.417969 189.957031 47.417969 187.664062 C 47.417969 185.367188 47.472656 183.074219 47.585938 180.78125 C 47.699219 178.488281 47.867188 176.199219 48.09375 173.914062 C 48.316406 171.632812 48.597656 169.355469 48.9375 167.085938 C 49.273438 164.8125 49.664062 162.554688 50.113281 160.300781 C 50.558594 158.050781 51.0625 155.8125 51.621094 153.585938 C 52.179688 151.359375 52.789062 149.148438 53.457031 146.953125 C 54.121094 144.753906 54.84375 142.578125 55.617188 140.414062 C 56.390625 138.253906 57.214844 136.113281 58.09375 133.992188 C 58.972656 131.871094 59.902344 129.773438 60.882812 127.699219 C 61.863281 125.625 62.894531 123.574219 63.976562 121.550781 C 65.058594 119.527344 66.191406 117.53125 67.371094 115.5625 C 68.550781 113.59375 69.777344 111.65625 71.054688 109.746094 C 72.328125 107.839844 73.648438 105.960938 75.015625 104.117188 C 76.382812 102.273438 77.796875 100.464844 79.25 98.691406 C 80.707031 96.917969 82.207031 95.179688 83.746094 93.480469 C 85.289062 91.777344 86.871094 90.117188 88.496094 88.496094 C 90.117188 86.871094 91.777344 85.289062 93.480469 83.746094 C 95.179688 82.207031 96.917969 80.707031 98.691406 79.25 C 100.464844 77.796875 102.273438 76.382812 104.117188 75.015625 C 105.960938 73.648438 107.839844 72.328125 109.746094 71.054688 C 111.65625 69.777344 113.59375 68.550781 115.5625 67.371094 C 117.53125 66.191406 119.527344 65.058594 121.550781 63.976562 C 123.574219 62.894531 125.625 61.863281 127.699219 60.882812 C 129.773438 59.902344 131.871094 58.972656 133.992188 58.09375 C 136.113281 57.214844 138.253906 56.390625 140.414062 55.617188 C 142.578125 54.84375 144.753906 54.121094 146.953125 53.457031 C 149.148438 52.789062 151.359375 52.179688 153.585938 51.621094 C 155.8125 51.0625 158.050781 50.558594 160.300781 50.113281 C 162.554688 49.664062 164.8125 49.273438 167.085938 48.9375 C 169.355469 48.597656 171.632812 48.316406 173.914062 48.09375 C 176.199219 47.867188 178.488281 47.699219 180.78125 47.585938 C 183.074219 47.472656 185.367188 47.417969 187.664062 47.417969 C 189.957031 47.417969 192.25 47.472656 194.542969 47.585938 C 196.835938 47.699219 199.125 47.867188 201.410156 48.09375 C 203.691406 48.316406 205.96875 48.597656 208.242188 48.9375 C 210.511719 49.273438 212.769531 49.664062 215.023438 50.113281 C 217.273438 50.558594 219.511719 51.0625 221.738281 51.621094 C 223.964844 52.179688 226.175781 52.789062 228.375 53.457031 C 230.570312 54.121094 232.75 54.84375 234.910156 55.617188 C 237.070312 56.390625 239.210938 57.214844 241.332031 58.09375 C 243.453125 58.972656 245.550781 59.902344 247.625 60.882812 C 249.699219 61.863281 251.75 62.894531 253.773438 63.976562 C 255.796875 65.058594 257.792969 66.191406 259.761719 67.371094 C 261.730469 68.550781 263.667969 69.777344 265.578125 71.054688 C 267.484375 72.328125 269.363281 73.648438 271.207031 75.015625 C 273.050781 76.382812 274.859375 77.796875 276.632812 79.25 C 278.40625 80.707031 280.144531 82.207031 281.84375 83.746094 C 283.546875 85.289062 285.207031 86.871094 286.828125 88.496094 C 288.453125 90.117188 290.035156 91.777344 291.578125 93.480469 C 293.117188 95.179688 294.617188 96.917969 296.074219 98.691406 C 297.527344 100.464844 298.941406 102.273438 300.308594 104.117188 C 301.675781 105.960938 302.996094 107.839844 304.269531 109.746094 C 305.546875 111.65625 306.773438 113.59375 307.953125 115.5625 C 309.132812 117.53125 310.265625 119.527344 311.347656 121.550781 C 312.429688 123.574219 313.460938 125.625 314.441406 127.699219 C 315.421875 129.773438 316.351562 131.871094 317.230469 133.992188 C 318.109375 136.113281 318.933594 138.253906 319.707031 140.414062 C 320.480469 142.578125 321.203125 144.753906 321.867188 146.953125 C 322.535156 149.148438 323.144531 151.359375 323.703125 153.585938 C 324.261719 155.8125 324.765625 158.050781 325.210938 160.300781 C 325.660156 162.554688 326.050781 164.8125 326.390625 167.085938 C 326.726562 169.355469 327.007812 171.632812 327.230469 173.914062 C 327.457031 176.199219 327.625 178.488281 327.738281 180.78125 C 327.851562 183.074219 327.90625 185.367188 327.90625 187.664062 Z M 327.90625 187.664062 " fill-opacity="1" fill-rule="nonzero"/><path fill="#ffa000" d="M 306.332031 187.664062 C 306.332031 189.605469 306.28125 191.546875 306.1875 193.484375 C 306.09375 195.425781 305.949219 197.359375 305.757812 199.292969 C 305.570312 201.226562 305.332031 203.152344 305.046875 205.074219 C 304.761719 206.996094 304.429688 208.910156 304.050781 210.8125 C 303.671875 212.71875 303.246094 214.613281 302.773438 216.496094 C 302.300781 218.378906 301.785156 220.25 301.222656 222.109375 C 300.65625 223.96875 300.046875 225.8125 299.394531 227.640625 C 298.738281 229.46875 298.039062 231.28125 297.296875 233.074219 C 296.554688 234.867188 295.765625 236.644531 294.9375 238.398438 C 294.105469 240.15625 293.234375 241.890625 292.320312 243.601562 C 291.402344 245.316406 290.445312 247.003906 289.449219 248.671875 C 288.449219 250.335938 287.410156 251.976562 286.332031 253.589844 C 285.253906 255.207031 284.132812 256.792969 282.976562 258.351562 C 281.820312 259.914062 280.625 261.441406 279.394531 262.945312 C 278.160156 264.445312 276.894531 265.917969 275.589844 267.355469 C 274.285156 268.792969 272.945312 270.199219 271.574219 271.574219 C 270.199219 272.945312 268.792969 274.285156 267.355469 275.589844 C 265.917969 276.894531 264.445312 278.160156 262.945312 279.394531 C 261.445312 280.625 259.914062 281.820312 258.351562 282.976562 C 256.792969 284.132812 255.207031 285.253906 253.589844 286.332031 C 251.976562 287.410156 250.335938 288.449219 248.671875 289.449219 C 247.003906 290.445312 245.316406 291.402344 243.601562 292.320312 C 241.890625 293.234375 240.15625 294.105469 238.398438 294.9375 C 236.644531 295.765625 234.867188 296.554688 233.074219 297.296875 C 231.28125 298.039062 229.46875 298.738281 227.640625 299.394531 C 225.8125 300.046875 223.96875 300.65625 222.109375 301.222656 C 220.25 301.785156 218.378906 302.300781 216.496094 302.773438 C 214.613281 303.246094 212.71875 303.671875 210.8125 304.050781 C 208.910156 304.429688 206.996094 304.761719 205.074219 305.046875 C 203.152344 305.332031 201.226562 305.570312 199.292969 305.757812 C 197.359375 305.949219 195.425781 306.09375 193.484375 306.1875 C 191.546875 306.28125 189.605469 306.332031 187.664062 306.332031 C 185.71875 306.332031 183.777344 306.28125 181.839844 306.1875 C 179.898438 306.09375 177.964844 305.949219 176.03125 305.757812 C 174.097656 305.570312 172.171875 305.332031 170.25 305.046875 C 168.328125 304.761719 166.414062 304.429688 164.511719 304.050781 C 162.605469 303.671875 160.710938 303.246094 158.828125 302.773438 C 156.945312 302.300781 155.074219 301.785156 153.214844 301.222656 C 151.355469 300.65625 149.511719 300.046875 147.683594 299.394531 C 145.855469 298.738281 144.042969 298.039062 142.25 297.296875 C 140.457031 296.554688 138.679688 295.765625 136.925781 294.9375 C 135.167969 294.105469 133.433594 293.234375 131.722656 292.320312 C 130.007812 291.402344 128.320312 290.445312 126.65625 289.449219 C 124.988281 288.449219 123.347656 287.410156 121.734375 286.332031 C 120.117188 285.253906 118.53125 284.132812 116.972656 282.976562 C 115.410156 281.820312 113.882812 280.625 112.378906 279.394531 C 110.878906 278.160156 109.410156 276.894531 107.96875 275.589844 C 106.53125 274.285156 105.125 272.945312 103.75 271.574219 C 102.378906 270.199219 101.039062 268.792969 99.734375 267.355469 C 98.429688 265.917969 97.164062 264.445312 95.929688 262.945312 C 94.699219 261.441406 93.503906 259.914062 92.347656 258.351562 C 91.191406 256.792969 90.070312 255.207031 88.992188 253.589844 C 87.914062 251.976562 86.875 250.335938 85.875 248.671875 C 84.878906 247.003906 83.921875 245.316406 83.007812 243.601562 C 82.089844 241.890625 81.21875 240.15625 80.386719 238.398438 C 79.558594 236.644531 78.769531 234.867188 78.027344 233.074219 C 77.285156 231.28125 76.585938 229.46875 75.929688 227.640625 C 75.277344 225.8125 74.667969 223.96875 74.105469 222.109375 C 73.539062 220.25 73.023438 218.378906 72.550781 216.496094 C 72.078125 214.613281 71.652344 212.71875 71.273438 210.8125 C 70.894531 208.910156 70.5625 206.996094 70.277344 205.074219 C 69.992188 203.152344 69.753906 201.226562 69.566406 199.292969 C 69.375 197.359375 69.230469 195.425781 69.136719 193.484375 C 69.042969 191.546875 68.992188 189.605469 68.992188 187.664062 C 68.992188 185.71875 69.042969 183.777344 69.136719 181.839844 C 69.230469 179.898438 69.375 177.964844 69.566406 176.03125 C 69.753906 174.097656 69.992188 172.171875 70.277344 170.25 C 70.5625 168.328125 70.894531 166.414062 71.273438 164.511719 C 71.652344 162.605469 72.078125 160.710938 72.550781 158.828125 C 73.023438 156.945312 73.539062 155.074219 74.105469 153.214844 C 74.667969 151.355469 75.277344 149.511719 75.929688 147.683594 C 76.585938 145.855469 77.285156 144.042969 78.027344 142.25 C 78.769531 140.457031 79.558594 138.679688 80.386719 136.925781 C 81.21875 135.167969 82.089844 133.433594 83.007812 131.722656 C 83.921875 130.007812 84.878906 128.320312 85.875 126.65625 C 86.875 124.988281 87.914062 123.347656 88.992188 121.734375 C 90.070312 120.117188 91.191406 118.53125 92.347656 116.972656 C 93.503906 115.410156 94.699219 113.882812 95.929688 112.378906 C 97.164062 110.878906 98.429688 109.410156 99.734375 107.96875 C 101.039062 106.53125 102.378906 105.125 103.75 103.75 C 105.125 102.378906 106.53125 101.039062 107.96875 99.734375 C 109.410156 98.429688 110.878906 97.164062 112.378906 95.929688 C 113.882812 94.699219 115.410156 93.503906 116.972656 92.347656 C 118.53125 91.191406 120.117188 90.070312 121.734375 88.992188 C 123.347656 87.914062 124.988281 86.875 126.65625 85.875 C 128.320312 84.878906 130.007812 83.921875 131.722656 83.007812 C 133.433594 82.089844 135.167969 81.21875 136.925781 80.386719 C 138.679688 79.558594 140.457031 78.769531 142.25 78.027344 C 144.042969 77.285156 145.855469 76.585938 147.683594 75.929688 C 149.511719 75.277344 151.355469 74.667969 153.214844 74.105469 C 155.074219 73.539062 156.945312 73.023438 158.828125 72.550781 C 160.710938 72.078125 162.605469 71.652344 164.511719 71.273438 C 166.414062 70.894531 168.328125 70.5625 170.25 70.277344 C 172.171875 69.992188 174.097656 69.753906 176.03125 69.566406 C 177.964844 69.375 179.898438 69.230469 181.839844 69.136719 C 183.777344 69.042969 185.71875 68.992188 187.664062 68.992188 C 189.605469 68.992188 191.546875 69.042969 193.484375 69.136719 C 195.425781 69.230469 197.359375 69.375 199.292969 69.566406 C 201.226562 69.753906 203.152344 69.992188 205.074219 70.277344 C 206.996094 70.5625 208.910156 70.894531 210.8125 71.273438 C 212.71875 71.652344 214.613281 72.078125 216.496094 72.550781 C 218.378906 73.023438 220.25 73.539062 222.109375 74.105469 C 223.96875 74.667969 225.8125 75.277344 227.640625 75.929688 C 229.46875 76.585938 231.28125 77.285156 233.074219 78.027344 C 234.867188 78.769531 236.644531 79.558594 238.398438 80.386719 C 240.15625 81.21875 241.890625 82.089844 243.601562 83.007812 C 245.316406 83.921875 247.003906 84.878906 248.671875 85.875 C 250.335938 86.875 251.976562 87.914062 253.589844 88.992188 C 255.207031 90.070312 256.792969 91.191406 258.351562 92.347656 C 259.914062 93.503906 261.445312 94.699219 262.945312 95.929688 C 264.445312 97.164062 265.917969 98.429688 267.355469 99.734375 C 268.792969 101.039062 270.199219 102.378906 271.574219 103.75 C 272.945312 105.125 274.285156 106.53125 275.589844 107.96875 C 276.894531 109.410156 278.160156 110.878906 279.394531 112.378906 C 280.625 113.882812 281.820312 115.410156 282.976562 116.972656 C 284.132812 118.53125 285.253906 120.117188 286.332031 121.734375 C 287.410156 123.347656 288.449219 124.988281 289.449219 126.65625 C 290.445312 128.320312 291.402344 130.007812 292.320312 131.722656 C 293.234375 133.433594 294.105469 135.167969 294.9375 136.925781 C 295.765625 138.679688 296.554688 140.457031 297.296875 142.25 C 298.039062 144.042969 298.738281 145.855469 299.394531 147.683594 C 300.046875 149.511719 300.65625 151.355469 301.222656 153.214844 C 301.785156 155.074219 302.300781 156.945312 302.773438 158.828125 C 303.246094 160.710938 303.671875 162.605469 304.050781 164.511719 C 304.429688 166.414062 304.761719 168.328125 305.046875 170.25 C 305.332031 172.171875 305.570312 174.097656 305.757812 176.03125 C 305.949219 177.964844 306.09375 179.898438 306.1875 181.839844 C 306.28125 183.777344 306.332031 185.71875 306.332031 187.664062 Z M 306.332031 187.664062 " fill-opacity="1" fill-rule="nonzero"/></svg>