<svg xmlns="http://www.w3.org/2000/svg" xmlns:xlink="http://www.w3.org/1999/xlink" width="500" zoomAndPan="magnify" viewBox="0 0 375 374.999991" height="500" preserveAspectRatio="xMidYMid meet" version="1.0"><defs><clipPath id="fd2bfeda1e"><path d="M 104.773438 134.601562 L 270.246094 134.601562 L 270.246094 174.082031 L 104.773438 174.082031 Z M 104.773438 134.601562 " clip-rule="nonzero"/></clipPath><clipPath id="c829514969"><path d="M 124.511719 134.601562 L 250.488281 134.601562 C 255.722656 134.601562 260.742188 136.683594 264.445312 140.382812 C 268.148438 144.085938 270.226562 149.105469 270.226562 154.339844 C 270.226562 159.578125 268.148438 164.597656 264.445312 168.300781 C 260.742188 172 255.722656 174.082031 250.488281 174.082031 L 124.511719 174.082031 C 119.277344 174.082031 114.257812 172 110.554688 168.300781 C 106.851562 164.597656 104.773438 159.578125 104.773438 154.339844 C 104.773438 149.105469 106.851562 144.085938 110.554688 140.382812 C 114.257812 136.683594 119.277344 134.601562 124.511719 134.601562 Z M 124.511719 134.601562 " clip-rule="nonzero"/></clipPath><clipPath id="847e6882b0"><path d="M 104.773438 188.671875 L 270.246094 188.671875 L 270.246094 228.152344 L 104.773438 228.152344 Z M 104.773438 188.671875 " clip-rule="nonzero"/></clipPath><clipPath id="e308ea160c"><path d="M 124.511719 188.671875 L 250.488281 188.671875 C 255.722656 188.671875 260.742188 190.753906 264.445312 194.453125 C 268.148438 198.15625 270.226562 203.175781 270.226562 208.414062 C 270.226562 213.648438 268.148438 218.667969 264.445312 222.371094 C 260.742188 226.074219 255.722656 228.152344 250.488281 228.152344 L 124.511719 228.152344 C 119.277344 228.152344 114.257812 226.074219 110.554688 222.371094 C 106.851562 218.667969 104.773438 213.648438 104.773438 208.414062 C 104.773438 203.175781 106.851562 198.15625 110.554688 194.453125 C 114.257812 190.753906 119.277344 188.671875 124.511719 188.671875 Z M 124.511719 188.671875 " clip-rule="nonzero"/></clipPath></defs><rect x="-37.5" width="450" fill="#ffffff" y="-37.499999" height="449.999989" fill-opacity="1"/><rect x="-37.5" width="450" fill="#ffffff" y="-37.499999" height="449.999989" fill-opacity="1"/><path fill="#ffc702" d="M 324.691406 115.460938 C 317.128906 66.863281 304.355469 56.34375 253.050781 43.964844 C 226.3125 37.507812 147.464844 38.105469 121.179688 43.964844 C 69.667969 55.445312 56.519531 66.777344 49.539062 115.460938 C 43.609375 156.832031 44.191406 215.898438 49.539062 247.324219 C 57.796875 295.8125 69.667969 307.339844 121.179688 318.824219 C 147.464844 324.683594 226.3125 325.277344 253.050781 318.824219 C 304.355469 306.441406 314.085938 295.355469 324.691406 247.324219 C 331.371094 217.085938 330.578125 153.261719 324.691406 115.460938 Z M 324.691406 115.460938 " fill-opacity="1" fill-rule="nonzero"/><g clip-path="url(#fd2bfeda1e)"><g clip-path="url(#c829514969)"><path fill="#ffffff" d="M 104.773438 134.601562 L 270.246094 134.601562 L 270.246094 174.082031 L 104.773438 174.082031 Z M 104.773438 134.601562 " fill-opacity="1" fill-rule="nonzero"/></g></g><g clip-path="url(#847e6882b0)"><g clip-path="url(#e308ea160c)"><path fill="#ffffff" d="M 104.773438 188.671875 L 270.246094 188.671875 L 270.246094 228.152344 L 104.773438 228.152344 Z M 104.773438 188.671875 " fill-opacity="1" fill-rule="nonzero"/></g></g></svg>