<svg xmlns="http://www.w3.org/2000/svg" xmlns:xlink="http://www.w3.org/1999/xlink" width="500" zoomAndPan="magnify" viewBox="0 0 375 374.999991" height="500" preserveAspectRatio="xMidYMid meet" version="1.0"><defs><clipPath id="007147cad2"><path d="M 99 127 L 207 127 L 207 235 L 99 235 Z M 99 127 " clip-rule="nonzero"/></clipPath><clipPath id="190aeee5bf"><path d="M 91.609375 215.144531 L 187.136719 119.617188 L 215.050781 147.535156 L 119.527344 243.058594 Z M 91.609375 215.144531 " clip-rule="nonzero"/></clipPath><clipPath id="caf04cfdcc"><path d="M 105.570312 201.183594 L 173.105469 133.648438 C 176.804688 129.949219 181.828125 127.867188 187.0625 127.867188 C 192.296875 127.867188 197.316406 129.949219 201.019531 133.648438 C 204.722656 137.351562 206.800781 142.371094 206.800781 147.609375 C 206.800781 152.84375 204.722656 157.863281 201.019531 161.566406 L 133.484375 229.101562 C 129.78125 232.804688 124.761719 234.882812 119.527344 234.882812 C 114.292969 234.882812 109.269531 232.804688 105.570312 229.101562 C 101.867188 225.398438 99.785156 220.378906 99.785156 215.144531 C 99.785156 209.90625 101.867188 204.886719 105.570312 201.183594 Z M 105.570312 201.183594 " clip-rule="nonzero"/></clipPath><clipPath id="1c08edb59e"><path d="M 168 127 L 276 127 L 276 235 L 168 235 Z M 168 127 " clip-rule="nonzero"/></clipPath><clipPath id="482b89ad7f"><path d="M 187.9375 119.691406 L 283.460938 215.214844 L 255.546875 243.132812 L 160.023438 147.609375 Z M 187.9375 119.691406 " clip-rule="nonzero"/></clipPath><clipPath id="ce72c63f4a"><path d="M 201.894531 133.648438 L 269.429688 201.1875 C 273.132812 204.886719 275.210938 209.910156 275.210938 215.144531 C 275.210938 220.378906 273.132812 225.398438 269.429688 229.101562 C 265.730469 232.804688 260.707031 234.882812 255.472656 234.882812 C 250.238281 234.882812 245.21875 232.804688 241.515625 229.101562 L 173.980469 161.566406 C 170.277344 157.863281 168.199219 152.84375 168.199219 147.609375 C 168.199219 142.371094 170.277344 137.351562 173.980469 133.648438 C 177.679688 129.949219 182.703125 127.867188 187.9375 127.867188 C 193.171875 127.867188 198.195312 129.949219 201.894531 133.648438 Z M 201.894531 133.648438 " clip-rule="nonzero"/></clipPath></defs><rect x="-37.5" width="450" fill="#ffffff" y="-37.499999" height="449.999989" fill-opacity="1"/><rect x="-37.5" width="450" fill="#ffffff" y="-37.499999" height="449.999989" fill-opacity="1"/><path fill="#ffc702" d="M 324.691406 115.460938 C 317.128906 66.863281 304.355469 56.34375 253.050781 43.964844 C 226.3125 37.507812 147.464844 38.105469 121.179688 43.964844 C 69.667969 55.445312 56.519531 66.777344 49.539062 115.460938 C 43.609375 156.832031 44.191406 215.898438 49.539062 247.324219 C 57.796875 295.8125 69.667969 307.339844 121.179688 318.824219 C 147.464844 324.683594 226.3125 325.277344 253.050781 318.824219 C 304.355469 306.441406 314.085938 295.355469 324.691406 247.324219 C 331.371094 217.085938 330.578125 153.261719 324.691406 115.460938 Z M 324.691406 115.460938 " fill-opacity="1" fill-rule="nonzero"/><g clip-path="url(#007147cad2)"><g clip-path="url(#190aeee5bf)"><g clip-path="url(#caf04cfdcc)"><path fill="#ffffff" d="M 91.609375 215.144531 L 187.027344 119.726562 L 214.941406 147.644531 L 119.527344 243.058594 Z M 91.609375 215.144531 " fill-opacity="1" fill-rule="nonzero"/></g></g></g><g clip-path="url(#1c08edb59e)"><g clip-path="url(#482b89ad7f)"><g clip-path="url(#ce72c63f4a)"><path fill="#ffffff" d="M 187.9375 119.691406 L 283.351562 215.109375 L 255.4375 243.023438 L 160.023438 147.609375 Z M 187.9375 119.691406 " fill-opacity="1" fill-rule="nonzero"/></g></g></g></svg>