<?xml version="1.0" ?><svg id="Layer_2" style="enable-background:new 0 0 32 32;" version="1.1" viewBox="0 0 32 32" xml:space="preserve" xmlns="http://www.w3.org/2000/svg" xmlns:xlink="http://www.w3.org/1999/xlink"><g><path d="M30,6.62H2c-0.83002,0-1.5,0.66998-1.5,1.5v3.77002c0,0.82996,0.66998,1.5,1.5,1.5c1.44,0,2.60999,1.16998,2.60999,2.60999   S3.44,18.60999,2,18.60999c-0.83002,0-1.5,0.66998-1.5,1.5V23.88c0,0.82996,0.66998,1.5,1.5,1.5h28c0.83002,0,1.5-0.67004,1.5-1.5   v-3.77002c0-0.83002-0.66998-1.5-1.5-1.5c-1.44,0-2.60999-1.16998-2.60999-2.60999S28.56,13.39001,30,13.39001   c0.83002,0,1.5-0.67004,1.5-1.5V8.12C31.5,7.28998,30.83002,6.62,30,6.62z M22.5,19.5c0,0.82001-0.66998,1.5-1.5,1.5   s-1.5-0.67999-1.5-1.5v-7c0-0.82001,0.66998-1.5,1.5-1.5s1.5,0.67999,1.5,1.5V19.5z"/></g></svg>