<svg xmlns="http://www.w3.org/2000/svg" xmlns:xlink="http://www.w3.org/1999/xlink" width="500" zoomAndPan="magnify" viewBox="0 0 375 374.999991" height="500" preserveAspectRatio="xMidYMid meet" version="1.0"><defs><clipPath id="18f33d2e23"><path d="M 93.714844 93.773438 L 176.640625 93.773438 L 176.640625 176.378906 L 93.714844 176.378906 Z M 93.714844 93.773438 " clip-rule="nonzero"/></clipPath><clipPath id="9c709501db"><path d="M 113.964844 93.773438 L 156.191406 93.773438 C 167.375 93.773438 176.441406 102.839844 176.441406 114.023438 L 176.441406 156.128906 C 176.441406 167.3125 167.375 176.378906 156.191406 176.378906 L 113.964844 176.378906 C 102.78125 176.378906 93.714844 167.3125 93.714844 156.128906 L 93.714844 114.023438 C 93.714844 102.839844 102.78125 93.773438 113.964844 93.773438 Z M 113.964844 93.773438 " clip-rule="nonzero"/></clipPath><clipPath id="5d4e48e76f"><path d="M 198.558594 93.773438 L 281.488281 93.773438 L 281.488281 176.378906 L 198.558594 176.378906 Z M 198.558594 93.773438 " clip-rule="nonzero"/></clipPath><clipPath id="973bbf51a9"><path d="M 218.808594 93.773438 L 261.035156 93.773438 C 272.21875 93.773438 281.285156 102.839844 281.285156 114.023438 L 281.285156 156.128906 C 281.285156 167.3125 272.21875 176.378906 261.035156 176.378906 L 218.808594 176.378906 C 207.625 176.378906 198.558594 167.3125 198.558594 156.128906 L 198.558594 114.023438 C 198.558594 102.839844 207.625 93.773438 218.808594 93.773438 Z M 218.808594 93.773438 " clip-rule="nonzero"/></clipPath><clipPath id="fecb612d24"><path d="M 198.558594 198.621094 L 281.488281 198.621094 L 281.488281 281.226562 L 198.558594 281.226562 Z M 198.558594 198.621094 " clip-rule="nonzero"/></clipPath><clipPath id="e3e6bc5cec"><path d="M 218.808594 198.621094 L 261.035156 198.621094 C 272.21875 198.621094 281.285156 207.6875 281.285156 218.871094 L 281.285156 260.976562 C 281.285156 272.160156 272.21875 281.226562 261.035156 281.226562 L 218.808594 281.226562 C 207.625 281.226562 198.558594 272.160156 198.558594 260.976562 L 198.558594 218.871094 C 198.558594 207.6875 207.625 198.621094 218.808594 198.621094 Z M 218.808594 198.621094 " clip-rule="nonzero"/></clipPath><clipPath id="8d28a15c39"><path d="M 93.714844 198.621094 L 176.640625 198.621094 L 176.640625 281.226562 L 93.714844 281.226562 Z M 93.714844 198.621094 " clip-rule="nonzero"/></clipPath><clipPath id="fdb8d87c75"><path d="M 113.964844 198.621094 L 156.191406 198.621094 C 167.375 198.621094 176.441406 207.6875 176.441406 218.871094 L 176.441406 260.976562 C 176.441406 272.160156 167.375 281.226562 156.191406 281.226562 L 113.964844 281.226562 C 102.78125 281.226562 93.714844 272.160156 93.714844 260.976562 L 93.714844 218.871094 C 93.714844 207.6875 102.78125 198.621094 113.964844 198.621094 Z M 113.964844 198.621094 " clip-rule="nonzero"/></clipPath></defs><path fill="#ffc702" d="M 324.691406 115.460938 C 317.128906 66.863281 304.355469 56.34375 253.050781 43.964844 C 226.3125 37.507812 147.464844 38.105469 121.179688 43.964844 C 69.667969 55.445312 56.519531 66.777344 49.539062 115.460938 C 43.609375 156.832031 44.191406 215.898438 49.539062 247.324219 C 57.796875 295.8125 69.667969 307.339844 121.179688 318.824219 C 147.464844 324.683594 226.3125 325.277344 253.050781 318.824219 C 304.355469 306.441406 314.085938 295.355469 324.691406 247.324219 C 331.371094 217.085938 330.578125 153.261719 324.691406 115.460938 Z M 324.691406 115.460938 " fill-opacity="1" fill-rule="nonzero"/><g clip-path="url(#18f33d2e23)"><g clip-path="url(#9c709501db)"><path fill="#ffffff" d="M 93.714844 93.773438 L 176.320312 93.773438 L 176.320312 176.378906 L 93.714844 176.378906 Z M 93.714844 93.773438 " fill-opacity="1" fill-rule="nonzero"/></g></g><g clip-path="url(#5d4e48e76f)"><g clip-path="url(#973bbf51a9)"><path fill="#ffffff" d="M 198.558594 93.773438 L 281.164062 93.773438 L 281.164062 176.378906 L 198.558594 176.378906 Z M 198.558594 93.773438 " fill-opacity="1" fill-rule="nonzero"/></g></g><g clip-path="url(#fecb612d24)"><g clip-path="url(#e3e6bc5cec)"><path fill="#ffffff" d="M 198.558594 198.621094 L 281.164062 198.621094 L 281.164062 281.226562 L 198.558594 281.226562 Z M 198.558594 198.621094 " fill-opacity="1" fill-rule="nonzero"/></g></g><g clip-path="url(#8d28a15c39)"><g clip-path="url(#fdb8d87c75)"><path fill="#ffffff" d="M 93.714844 198.621094 L 176.320312 198.621094 L 176.320312 281.226562 L 93.714844 281.226562 Z M 93.714844 198.621094 " fill-opacity="1" fill-rule="nonzero"/></g></g></svg>