<svg xmlns="http://www.w3.org/2000/svg" xmlns:xlink="http://www.w3.org/1999/xlink" width="500" zoomAndPan="magnify" viewBox="0 0 375 374.999991" height="500" preserveAspectRatio="xMidYMid meet" version="1.0"><defs><clipPath id="f5a02b25bc"><path d="M 174 99 L 282 99 L 282 207 L 174 207 Z M 174 99 " clip-rule="nonzero"/></clipPath><clipPath id="775e2b813b"><path d="M 194.160156 91.605469 L 289.6875 187.128906 L 261.769531 215.046875 L 166.246094 119.523438 Z M 194.160156 91.605469 " clip-rule="nonzero"/></clipPath><clipPath id="945068124a"><path d="M 208.121094 105.5625 L 275.65625 173.097656 C 279.355469 176.800781 281.4375 181.820312 281.4375 187.058594 C 281.4375 192.292969 279.355469 197.3125 275.65625 201.015625 C 271.953125 204.71875 266.933594 206.796875 261.695312 206.796875 C 256.460938 206.796875 251.441406 204.71875 247.738281 201.015625 L 180.203125 133.480469 C 176.5 129.777344 174.421875 124.757812 174.421875 119.523438 C 174.421875 114.285156 176.5 109.265625 180.203125 105.5625 C 183.90625 101.863281 188.925781 99.78125 194.160156 99.78125 C 199.398438 99.78125 204.417969 101.863281 208.121094 105.5625 Z M 208.121094 105.5625 " clip-rule="nonzero"/></clipPath><clipPath id="e605ff7ae7"><path d="M 174 168 L 282 168 L 282 276 L 174 276 Z M 174 168 " clip-rule="nonzero"/></clipPath><clipPath id="17dc98486a"><path d="M 289.613281 187.933594 L 194.089844 283.457031 L 166.171875 255.542969 L 261.695312 160.015625 Z M 289.613281 187.933594 " clip-rule="nonzero"/></clipPath><clipPath id="cf0cd7fc92"><path d="M 275.65625 201.890625 L 208.117188 269.425781 C 204.417969 273.128906 199.394531 275.207031 194.160156 275.207031 C 188.925781 275.207031 183.90625 273.128906 180.203125 269.425781 C 176.5 265.722656 174.421875 260.703125 174.421875 255.46875 C 174.421875 250.234375 176.5 245.210938 180.203125 241.511719 L 247.738281 173.976562 C 251.441406 170.273438 256.460938 168.191406 261.695312 168.191406 C 266.933594 168.191406 271.953125 170.273438 275.65625 173.976562 C 279.355469 177.675781 281.4375 182.699219 281.4375 187.933594 C 281.4375 193.167969 279.355469 198.1875 275.65625 201.890625 Z M 275.65625 201.890625 " clip-rule="nonzero"/></clipPath><clipPath id="6b9d7abeb3"><path d="M 117.089844 104.164062 L 156.570312 104.164062 L 156.570312 270.867188 L 117.089844 270.867188 Z M 117.089844 104.164062 " clip-rule="nonzero"/></clipPath><clipPath id="f058bf46b9"><path d="M 156.570312 123.902344 L 156.570312 251.097656 C 156.570312 256.332031 154.488281 261.351562 150.789062 265.054688 C 147.085938 268.757812 142.066406 270.835938 136.828125 270.835938 C 131.59375 270.835938 126.574219 268.757812 122.871094 265.054688 C 119.167969 261.351562 117.089844 256.332031 117.089844 251.097656 L 117.089844 123.902344 C 117.089844 118.667969 119.167969 113.644531 122.871094 109.945312 C 126.574219 106.242188 131.59375 104.164062 136.828125 104.164062 C 142.066406 104.164062 147.085938 106.242188 150.789062 109.945312 C 154.488281 113.644531 156.570312 118.667969 156.570312 123.902344 Z M 156.570312 123.902344 " clip-rule="nonzero"/></clipPath></defs><path fill="#ffc702" d="M 324.691406 115.460938 C 317.128906 66.863281 304.355469 56.34375 253.050781 43.964844 C 226.3125 37.507812 147.464844 38.105469 121.179688 43.964844 C 69.667969 55.445312 56.519531 66.777344 49.539062 115.460938 C 43.609375 156.832031 44.191406 215.898438 49.539062 247.324219 C 57.796875 295.8125 69.667969 307.339844 121.179688 318.824219 C 147.464844 324.683594 226.3125 325.277344 253.050781 318.824219 C 304.355469 306.441406 314.085938 295.355469 324.691406 247.324219 C 331.371094 217.085938 330.578125 153.261719 324.691406 115.460938 Z M 324.691406 115.460938 " fill-opacity="1" fill-rule="nonzero"/><g clip-path="url(#f5a02b25bc)"><g clip-path="url(#775e2b813b)"><g clip-path="url(#945068124a)"><path fill="#ffffff" d="M 194.160156 91.605469 L 289.578125 187.019531 L 261.660156 214.9375 L 166.246094 119.523438 Z M 194.160156 91.605469 " fill-opacity="1" fill-rule="nonzero"/></g></g></g><g clip-path="url(#e605ff7ae7)"><g clip-path="url(#17dc98486a)"><g clip-path="url(#cf0cd7fc92)"><path fill="#ffffff" d="M 289.613281 187.933594 L 194.195312 283.347656 L 166.28125 255.433594 L 261.695312 160.015625 Z M 289.613281 187.933594 " fill-opacity="1" fill-rule="nonzero"/></g></g></g><g clip-path="url(#6b9d7abeb3)"><g clip-path="url(#f058bf46b9)"><path fill="#ffffff" d="M 156.570312 104.164062 L 156.570312 270.867188 L 117.089844 270.867188 L 117.089844 104.164062 Z M 156.570312 104.164062 " fill-opacity="1" fill-rule="nonzero"/></g></g></svg>