<svg xmlns="http://www.w3.org/2000/svg" xmlns:xlink="http://www.w3.org/1999/xlink" width="500" zoomAndPan="magnify" viewBox="0 0 375 374.999991" height="500" preserveAspectRatio="xMidYMid meet" version="1.0"><defs><clipPath id="068df5b546"><path d="M 37.5 81 L 337.5 81 L 337.5 311 L 37.5 311 Z M 37.5 81 " clip-rule="nonzero"/></clipPath></defs><rect x="-37.5" width="450" fill="#ffffff" y="-37.499999" height="449.999989" fill-opacity="1"/><rect x="-37.5" width="450" fill="#ffffff" y="-37.499999" height="449.999989" fill-opacity="1"/><path fill="#f0555d" d="M 40.957031 131.433594 L 40.957031 107.804688 C 40.957031 95.199219 51.164062 84.972656 63.753906 84.972656 L 311.046875 84.972656 C 323.632812 84.972656 333.84375 95.199219 333.84375 107.804688 L 333.84375 131.433594 Z M 40.957031 131.433594 " fill-opacity="1" fill-rule="nonzero"/><path fill="#ffffff" d="M 333.835938 131.433594 L 333.835938 284.628906 C 333.835938 297.234375 323.625 307.457031 311.039062 307.457031 L 63.753906 307.457031 C 51.164062 307.457031 40.957031 297.234375 40.957031 284.628906 L 40.957031 131.433594 Z M 333.835938 131.433594 " fill-opacity="1" fill-rule="nonzero"/><g clip-path="url(#068df5b546)"><path fill="#000000" d="M 311.039062 310.925781 L 63.753906 310.925781 C 49.277344 310.925781 37.5 299.128906 37.5 284.632812 L 37.5 107.804688 C 37.5 93.308594 49.277344 81.511719 63.753906 81.511719 L 311.039062 81.511719 C 325.515625 81.511719 337.292969 93.308594 337.292969 107.804688 L 337.292969 284.632812 C 337.292969 299.128906 325.515625 310.925781 311.039062 310.925781 Z M 63.753906 88.4375 C 53.085938 88.4375 44.414062 97.125 44.414062 107.804688 L 44.414062 284.632812 C 44.414062 295.316406 53.085938 304.003906 63.753906 304.003906 L 311.039062 304.003906 C 321.703125 304.003906 330.378906 295.316406 330.378906 284.632812 L 330.378906 107.804688 C 330.378906 97.125 321.703125 88.4375 311.039062 88.4375 Z M 63.753906 88.4375 " fill-opacity="1" fill-rule="nonzero"/></g><path fill="#000000" d="M 268.519531 105.832031 C 261.054688 105.832031 255 99.769531 255 92.292969 L 255 77.65625 C 255 70.179688 261.054688 64.117188 268.519531 64.117188 C 275.984375 64.117188 282.042969 70.179688 282.042969 77.65625 L 282.042969 92.292969 C 282.042969 99.773438 275.984375 105.832031 268.519531 105.832031 Z M 268.519531 105.832031 " fill-opacity="1" fill-rule="nonzero"/><path fill="#000000" d="M 214.4375 105.832031 C 206.972656 105.832031 200.917969 99.769531 200.917969 92.292969 L 200.917969 77.65625 C 200.917969 70.179688 206.972656 64.117188 214.4375 64.117188 C 221.902344 64.117188 227.957031 70.179688 227.957031 77.65625 L 227.957031 92.292969 C 227.957031 99.773438 221.902344 105.832031 214.4375 105.832031 Z M 214.4375 105.832031 " fill-opacity="1" fill-rule="nonzero"/><path fill="#000000" d="M 160.355469 105.832031 C 152.890625 105.832031 146.835938 99.769531 146.835938 92.292969 L 146.835938 77.65625 C 146.835938 70.179688 152.890625 64.117188 160.355469 64.117188 C 167.820312 64.117188 173.875 70.179688 173.875 77.65625 L 173.875 92.292969 C 173.875 99.773438 167.820312 105.832031 160.355469 105.832031 Z M 160.355469 105.832031 " fill-opacity="1" fill-rule="nonzero"/><path fill="#000000" d="M 106.273438 105.832031 C 98.804688 105.832031 92.75 99.769531 92.75 92.292969 L 92.75 77.65625 C 92.757812 70.179688 98.804688 64.117188 106.273438 64.117188 C 113.738281 64.117188 119.792969 70.179688 119.792969 77.65625 L 119.792969 92.292969 C 119.792969 99.773438 113.746094 105.832031 106.273438 105.832031 Z M 106.273438 105.832031 " fill-opacity="1" fill-rule="nonzero"/><path fill="#ffffff" d="M 97.816406 200.6875 L 74.351562 200.6875 C 70.714844 200.6875 67.769531 197.738281 67.769531 194.097656 L 67.769531 170.589844 C 67.769531 166.945312 70.714844 163.996094 74.351562 163.996094 L 97.824219 163.996094 C 101.460938 163.996094 104.40625 166.945312 104.40625 170.589844 L 104.40625 194.097656 C 104.398438 197.738281 101.453125 200.6875 97.816406 200.6875 Z M 97.816406 200.6875 " fill-opacity="1" fill-rule="nonzero"/><path fill="#000000" d="M 97.824219 204.148438 L 74.351562 204.148438 C 68.820312 204.148438 64.3125 199.644531 64.3125 194.097656 L 64.3125 170.589844 C 64.3125 165.050781 68.8125 160.535156 74.351562 160.535156 L 97.824219 160.535156 C 103.355469 160.535156 107.863281 165.042969 107.863281 170.589844 L 107.863281 194.097656 C 107.855469 199.644531 103.355469 204.148438 97.824219 204.148438 Z M 74.351562 167.464844 C 72.628906 167.464844 71.226562 168.871094 71.226562 170.59375 L 71.226562 194.105469 C 71.226562 195.828125 72.628906 197.234375 74.351562 197.234375 L 97.824219 197.234375 C 99.546875 197.234375 100.949219 195.828125 100.949219 194.105469 L 100.949219 170.59375 C 100.949219 168.871094 99.546875 167.464844 97.824219 167.464844 Z M 74.351562 167.464844 " fill-opacity="1" fill-rule="nonzero"/><path fill="#ffffff" d="M 165.421875 200.6875 L 141.945312 200.6875 C 138.3125 200.6875 135.367188 197.738281 135.367188 194.097656 L 135.367188 170.589844 C 135.367188 166.945312 138.3125 163.996094 141.945312 163.996094 L 165.421875 163.996094 C 169.058594 163.996094 172.003906 166.945312 172.003906 170.589844 L 172.003906 194.097656 C 172.003906 197.738281 169.058594 200.6875 165.421875 200.6875 Z M 165.421875 200.6875 " fill-opacity="1" fill-rule="nonzero"/><path fill="#000000" d="M 165.421875 204.148438 L 141.945312 204.148438 C 136.410156 204.148438 131.910156 199.644531 131.910156 194.097656 L 131.910156 170.589844 C 131.910156 165.050781 136.410156 160.535156 141.945312 160.535156 L 165.421875 160.535156 C 170.953125 160.535156 175.457031 165.042969 175.457031 170.589844 L 175.457031 194.097656 C 175.457031 199.644531 170.957031 204.148438 165.421875 204.148438 Z M 141.953125 167.464844 C 140.226562 167.464844 138.828125 168.871094 138.828125 170.59375 L 138.828125 194.105469 C 138.828125 195.828125 140.234375 197.234375 141.953125 197.234375 L 165.429688 197.234375 C 167.148438 197.234375 168.554688 195.828125 168.554688 194.105469 L 168.554688 170.59375 C 168.554688 168.871094 167.148438 167.464844 165.429688 167.464844 Z M 141.953125 167.464844 " fill-opacity="1" fill-rule="nonzero"/><path fill="#ffffff" d="M 232.84375 200.6875 L 209.371094 200.6875 C 205.734375 200.6875 202.789062 197.738281 202.789062 194.097656 L 202.789062 170.589844 C 202.789062 166.945312 205.734375 163.996094 209.371094 163.996094 L 232.84375 163.996094 C 236.480469 163.996094 239.425781 166.945312 239.425781 170.589844 L 239.425781 194.097656 C 239.425781 197.738281 236.476562 200.6875 232.84375 200.6875 Z M 232.84375 200.6875 " fill-opacity="1" fill-rule="nonzero"/><path fill="#000000" d="M 232.84375 204.148438 L 209.371094 204.148438 C 203.835938 204.148438 199.335938 199.644531 199.335938 194.097656 L 199.335938 170.589844 C 199.335938 165.050781 203.835938 160.535156 209.371094 160.535156 L 232.84375 160.535156 C 238.382812 160.535156 242.882812 165.042969 242.882812 170.589844 L 242.882812 194.097656 C 242.882812 199.644531 238.382812 204.148438 232.84375 204.148438 Z M 209.371094 167.464844 C 207.648438 167.464844 206.246094 168.871094 206.246094 170.59375 L 206.246094 194.105469 C 206.246094 195.828125 207.648438 197.234375 209.371094 197.234375 L 232.84375 197.234375 C 234.566406 197.234375 235.96875 195.828125 235.96875 194.105469 L 235.96875 170.59375 C 235.96875 168.871094 234.566406 167.464844 232.84375 167.464844 Z M 209.371094 167.464844 " fill-opacity="1" fill-rule="nonzero"/><path fill="#ffffff" d="M 300.441406 200.6875 L 276.96875 200.6875 C 273.332031 200.6875 270.386719 197.738281 270.386719 194.097656 L 270.386719 170.589844 C 270.386719 166.945312 273.332031 163.996094 276.96875 163.996094 L 300.441406 163.996094 C 304.078125 163.996094 307.023438 166.945312 307.023438 170.589844 L 307.023438 194.097656 C 307.023438 197.738281 304.078125 200.6875 300.441406 200.6875 Z M 300.441406 200.6875 " fill-opacity="1" fill-rule="nonzero"/><path fill="#000000" d="M 300.441406 204.148438 L 276.96875 204.148438 C 271.4375 204.148438 266.9375 199.644531 266.9375 194.097656 L 266.9375 170.589844 C 266.9375 165.050781 271.4375 160.535156 276.96875 160.535156 L 300.441406 160.535156 C 305.980469 160.535156 310.480469 165.042969 310.480469 170.589844 L 310.480469 194.097656 C 310.480469 199.644531 305.980469 204.148438 300.441406 204.148438 Z M 276.96875 167.464844 C 275.246094 167.464844 273.851562 168.871094 273.851562 170.59375 L 273.851562 194.105469 C 273.851562 195.828125 275.246094 197.234375 276.96875 197.234375 L 300.441406 197.234375 C 302.164062 197.234375 303.566406 195.828125 303.566406 194.105469 L 303.566406 170.59375 C 303.566406 168.871094 302.164062 167.464844 300.441406 167.464844 Z M 276.96875 167.464844 " fill-opacity="1" fill-rule="nonzero"/><path fill="#ffffff" d="M 97.816406 266.980469 L 74.351562 266.980469 C 70.714844 266.980469 67.769531 264.03125 67.769531 260.390625 L 67.769531 236.878906 C 67.769531 233.238281 70.714844 230.289062 74.351562 230.289062 L 97.824219 230.289062 C 101.460938 230.289062 104.40625 233.238281 104.40625 236.878906 L 104.40625 260.390625 C 104.398438 264.03125 101.453125 266.980469 97.816406 266.980469 Z M 97.816406 266.980469 " fill-opacity="1" fill-rule="nonzero"/><path fill="#000000" d="M 97.824219 270.441406 L 74.351562 270.441406 C 68.820312 270.441406 64.3125 265.9375 64.3125 260.390625 L 64.3125 236.878906 C 64.3125 231.34375 68.8125 226.828125 74.351562 226.828125 L 97.824219 226.828125 C 103.355469 226.828125 107.863281 231.335938 107.863281 236.878906 L 107.863281 260.390625 C 107.855469 265.929688 103.355469 270.441406 97.824219 270.441406 Z M 74.351562 233.757812 C 72.628906 233.757812 71.226562 235.164062 71.226562 236.886719 L 71.226562 260.398438 C 71.226562 262.121094 72.628906 263.527344 74.351562 263.527344 L 97.824219 263.527344 C 99.546875 263.527344 100.949219 262.121094 100.949219 260.398438 L 100.949219 236.886719 C 100.949219 235.164062 99.546875 233.757812 97.824219 233.757812 Z M 74.351562 233.757812 " fill-opacity="1" fill-rule="nonzero"/><path fill="#ffffff" d="M 165.421875 266.980469 L 141.945312 266.980469 C 138.3125 266.980469 135.367188 264.03125 135.367188 260.390625 L 135.367188 236.878906 C 135.367188 233.238281 138.3125 230.289062 141.945312 230.289062 L 165.421875 230.289062 C 169.058594 230.289062 172.003906 233.238281 172.003906 236.878906 L 172.003906 260.390625 C 172.003906 264.03125 169.058594 266.980469 165.421875 266.980469 Z M 165.421875 266.980469 " fill-opacity="1" fill-rule="nonzero"/><path fill="#000000" d="M 165.421875 270.441406 L 141.945312 270.441406 C 136.410156 270.441406 131.910156 265.9375 131.910156 260.390625 L 131.910156 236.878906 C 131.910156 231.34375 136.410156 226.828125 141.945312 226.828125 L 165.421875 226.828125 C 170.953125 226.828125 175.457031 231.335938 175.457031 236.878906 L 175.457031 260.390625 C 175.457031 265.929688 170.957031 270.441406 165.421875 270.441406 Z M 141.953125 233.757812 C 140.226562 233.757812 138.828125 235.164062 138.828125 236.886719 L 138.828125 260.398438 C 138.828125 262.121094 140.234375 263.527344 141.953125 263.527344 L 165.429688 263.527344 C 167.148438 263.527344 168.554688 262.121094 168.554688 260.398438 L 168.554688 236.886719 C 168.554688 235.164062 167.148438 233.757812 165.429688 233.757812 Z M 141.953125 233.757812 " fill-opacity="1" fill-rule="nonzero"/><path fill="#ffffff" d="M 232.84375 266.980469 L 209.371094 266.980469 C 205.734375 266.980469 202.789062 264.03125 202.789062 260.390625 L 202.789062 236.878906 C 202.789062 233.238281 205.734375 230.289062 209.371094 230.289062 L 232.84375 230.289062 C 236.480469 230.289062 239.425781 233.238281 239.425781 236.878906 L 239.425781 260.390625 C 239.425781 264.03125 236.476562 266.980469 232.84375 266.980469 Z M 232.84375 266.980469 " fill-opacity="1" fill-rule="nonzero"/><path fill="#000000" d="M 232.84375 270.441406 L 209.371094 270.441406 C 203.835938 270.441406 199.335938 265.9375 199.335938 260.390625 L 199.335938 236.878906 C 199.335938 231.34375 203.835938 226.828125 209.371094 226.828125 L 232.84375 226.828125 C 238.382812 226.828125 242.882812 231.335938 242.882812 236.878906 L 242.882812 260.390625 C 242.882812 265.929688 238.382812 270.441406 232.84375 270.441406 Z M 209.371094 233.757812 C 207.648438 233.757812 206.246094 235.164062 206.246094 236.886719 L 206.246094 260.398438 C 206.246094 262.121094 207.648438 263.527344 209.371094 263.527344 L 232.84375 263.527344 C 234.566406 263.527344 235.96875 262.121094 235.96875 260.398438 L 235.96875 236.886719 C 235.96875 235.164062 234.566406 233.757812 232.84375 233.757812 Z M 209.371094 233.757812 " fill-opacity="1" fill-rule="nonzero"/><path fill="#ffffff" d="M 300.441406 266.980469 L 276.96875 266.980469 C 273.332031 266.980469 270.386719 264.03125 270.386719 260.390625 L 270.386719 236.878906 C 270.386719 233.238281 273.332031 230.289062 276.96875 230.289062 L 300.441406 230.289062 C 304.078125 230.289062 307.023438 233.238281 307.023438 236.878906 L 307.023438 260.390625 C 307.023438 264.03125 304.078125 266.980469 300.441406 266.980469 Z M 300.441406 266.980469 " fill-opacity="1" fill-rule="nonzero"/><path fill="#000000" d="M 300.441406 270.441406 L 276.96875 270.441406 C 271.4375 270.441406 266.9375 265.9375 266.9375 260.390625 L 266.9375 236.878906 C 266.9375 231.34375 271.4375 226.828125 276.96875 226.828125 L 300.441406 226.828125 C 305.980469 226.828125 310.480469 231.335938 310.480469 236.878906 L 310.480469 260.390625 C 310.480469 265.929688 305.980469 270.441406 300.441406 270.441406 Z M 276.96875 233.757812 C 275.246094 233.757812 273.851562 235.164062 273.851562 236.886719 L 273.851562 260.398438 C 273.851562 262.121094 275.246094 263.527344 276.96875 263.527344 L 300.441406 263.527344 C 302.164062 263.527344 303.566406 262.121094 303.566406 260.398438 L 303.566406 236.886719 C 303.566406 235.164062 302.164062 233.757812 300.441406 233.757812 Z M 276.96875 233.757812 " fill-opacity="1" fill-rule="nonzero"/><path fill="#000000" d="M 40.957031 127.972656 L 333.84375 127.972656 L 333.84375 134.894531 L 40.957031 134.894531 Z M 40.957031 127.972656 " fill-opacity="1" fill-rule="nonzero"/></svg>