<svg xmlns="http://www.w3.org/2000/svg" xmlns:xlink="http://www.w3.org/1999/xlink" width="500" zoomAndPan="magnify" viewBox="0 0 375 374.999991" height="500" preserveAspectRatio="xMidYMid meet" version="1.0"><defs><clipPath id="6745523412"><path d="M 88 186 L 157 186 L 157 255 L 88 255 Z M 88 186 " clip-rule="nonzero"/></clipPath><clipPath id="579aeb6953"><path d="M 83.351562 241.671875 L 143.695312 181.324219 L 161.332031 198.960938 L 100.984375 259.304688 Z M 83.351562 241.671875 " clip-rule="nonzero"/></clipPath><clipPath id="6fb658c510"><path d="M 92.167969 232.851562 L 134.832031 190.1875 C 137.171875 187.851562 140.34375 186.535156 143.648438 186.535156 C 146.957031 186.535156 150.128906 187.851562 152.464844 190.1875 C 154.804688 192.527344 156.121094 195.699219 156.121094 199.007812 C 156.117188 202.3125 154.804688 205.484375 152.464844 207.824219 L 109.804688 250.488281 C 107.464844 252.824219 104.292969 254.140625 100.984375 254.140625 C 97.679688 254.140625 94.507812 252.824219 92.167969 250.488281 C 89.828125 248.148438 88.515625 244.976562 88.515625 241.671875 C 88.515625 238.363281 89.828125 235.191406 92.167969 232.851562 Z M 92.167969 232.851562 " clip-rule="nonzero"/></clipPath><clipPath id="e212639a56"><path d="M 131 186 L 200 186 L 200 255 L 131 255 Z M 131 186 " clip-rule="nonzero"/></clipPath><clipPath id="5fa83212af"><path d="M 144.203125 181.371094 L 204.546875 241.714844 L 186.914062 259.351562 L 126.566406 199.007812 Z M 144.203125 181.371094 " clip-rule="nonzero"/></clipPath><clipPath id="7c796941de"><path d="M 153.019531 190.1875 L 195.683594 232.851562 C 198.023438 235.191406 199.335938 238.363281 199.335938 241.671875 C 199.335938 244.976562 198.023438 248.148438 195.683594 250.488281 C 193.34375 252.828125 190.171875 254.140625 186.867188 254.140625 C 183.558594 254.140625 180.386719 252.828125 178.046875 250.488281 L 135.382812 207.824219 C 133.046875 205.484375 131.730469 202.3125 131.730469 199.007812 C 131.730469 195.699219 133.046875 192.527344 135.382812 190.1875 C 137.722656 187.851562 140.894531 186.535156 144.203125 186.535156 C 147.507812 186.535156 150.679688 187.851562 153.019531 190.1875 Z M 153.019531 190.1875 " clip-rule="nonzero"/></clipPath><clipPath id="fe2adb32ee"><path d="M 175 186 L 244 186 L 244 255 L 175 255 Z M 175 186 " clip-rule="nonzero"/></clipPath><clipPath id="71eb233e4e"><path d="M 170.492188 241.671875 L 230.835938 181.324219 L 248.472656 198.960938 L 188.125 259.304688 Z M 170.492188 241.671875 " clip-rule="nonzero"/></clipPath><clipPath id="fd013ed5f5"><path d="M 179.308594 232.851562 L 221.972656 190.1875 C 224.3125 187.851562 227.484375 186.535156 230.789062 186.535156 C 234.097656 186.535156 237.269531 187.851562 239.609375 190.1875 C 241.945312 192.527344 243.261719 195.699219 243.261719 199.007812 C 243.261719 202.3125 241.945312 205.484375 239.609375 207.824219 L 196.945312 250.488281 C 194.605469 252.824219 191.433594 254.140625 188.125 254.140625 C 184.820312 254.140625 181.648438 252.824219 179.308594 250.488281 C 176.972656 248.148438 175.65625 244.976562 175.65625 241.671875 C 175.65625 238.363281 176.972656 235.191406 179.308594 232.851562 Z M 179.308594 232.851562 " clip-rule="nonzero"/></clipPath><clipPath id="ffff14622b"><path d="M 218 186 L 287 186 L 287 255 L 218 255 Z M 218 186 " clip-rule="nonzero"/></clipPath><clipPath id="30f124a75b"><path d="M 231.34375 181.371094 L 291.6875 241.714844 L 274.054688 259.351562 L 213.707031 199.007812 Z M 231.34375 181.371094 " clip-rule="nonzero"/></clipPath><clipPath id="e75f55df8b"><path d="M 240.160156 190.1875 L 282.824219 232.851562 C 285.164062 235.191406 286.476562 238.363281 286.476562 241.671875 C 286.476562 244.976562 285.164062 248.148438 282.824219 250.488281 C 280.488281 252.828125 277.316406 254.140625 274.007812 254.140625 C 270.699219 254.140625 267.527344 252.828125 265.191406 250.488281 L 222.527344 207.824219 C 220.1875 205.484375 218.875 202.3125 218.875 199.007812 C 218.875 195.699219 220.1875 192.527344 222.527344 190.1875 C 224.863281 187.851562 228.035156 186.535156 231.34375 186.535156 C 234.652344 186.535156 237.824219 187.851562 240.160156 190.1875 Z M 240.160156 190.1875 " clip-rule="nonzero"/></clipPath><clipPath id="6aa603759a"><path d="M 88 108 L 157 108 L 157 177 L 88 177 Z M 88 108 " clip-rule="nonzero"/></clipPath><clipPath id="d1ad431a4f"><path d="M 83.351562 163.734375 L 143.695312 103.390625 L 161.332031 121.027344 L 100.984375 181.371094 Z M 83.351562 163.734375 " clip-rule="nonzero"/></clipPath><clipPath id="8bbaac4c0f"><path d="M 92.167969 154.917969 L 134.832031 112.253906 C 137.171875 109.917969 140.34375 108.601562 143.648438 108.601562 C 146.957031 108.601562 150.128906 109.917969 152.464844 112.253906 C 154.804688 114.59375 156.121094 117.765625 156.121094 121.070312 C 156.117188 124.378906 154.804688 127.550781 152.464844 129.890625 L 109.804688 172.554688 C 107.464844 174.890625 104.292969 176.207031 100.984375 176.207031 C 97.679688 176.207031 94.507812 174.890625 92.167969 172.554688 C 89.828125 170.214844 88.515625 167.042969 88.515625 163.734375 C 88.515625 160.429688 89.828125 157.257812 92.167969 154.917969 Z M 92.167969 154.917969 " clip-rule="nonzero"/></clipPath><clipPath id="769e5b1400"><path d="M 131 108 L 200 108 L 200 177 L 131 177 Z M 131 108 " clip-rule="nonzero"/></clipPath><clipPath id="c164821dd0"><path d="M 144.203125 103.4375 L 204.546875 163.78125 L 186.914062 181.417969 L 126.566406 121.074219 Z M 144.203125 103.4375 " clip-rule="nonzero"/></clipPath><clipPath id="1371857031"><path d="M 153.019531 112.253906 L 195.683594 154.917969 C 198.023438 157.257812 199.335938 160.429688 199.335938 163.734375 C 199.335938 167.042969 198.023438 170.214844 195.683594 172.554688 C 193.34375 174.890625 190.171875 176.207031 186.867188 176.207031 C 183.558594 176.207031 180.386719 174.890625 178.046875 172.554688 L 135.382812 129.890625 C 133.046875 127.550781 131.730469 124.378906 131.730469 121.074219 C 131.730469 117.765625 133.046875 114.59375 135.382812 112.253906 C 137.722656 109.917969 140.894531 108.601562 144.203125 108.601562 C 147.507812 108.601562 150.679688 109.917969 153.019531 112.253906 Z M 153.019531 112.253906 " clip-rule="nonzero"/></clipPath><clipPath id="560454a084"><path d="M 175 108 L 244 108 L 244 177 L 175 177 Z M 175 108 " clip-rule="nonzero"/></clipPath><clipPath id="a0a6912aab"><path d="M 170.492188 163.734375 L 230.835938 103.390625 L 248.472656 121.027344 L 188.125 181.371094 Z M 170.492188 163.734375 " clip-rule="nonzero"/></clipPath><clipPath id="502ebef1f6"><path d="M 179.308594 154.917969 L 221.972656 112.253906 C 224.3125 109.917969 227.484375 108.601562 230.789062 108.601562 C 234.097656 108.601562 237.269531 109.917969 239.609375 112.253906 C 241.945312 114.59375 243.261719 117.765625 243.261719 121.070312 C 243.261719 124.378906 241.945312 127.550781 239.609375 129.890625 L 196.945312 172.554688 C 194.605469 174.890625 191.433594 176.207031 188.125 176.207031 C 184.820312 176.207031 181.648438 174.890625 179.308594 172.554688 C 176.972656 170.214844 175.65625 167.042969 175.65625 163.734375 C 175.65625 160.429688 176.972656 157.257812 179.308594 154.917969 Z M 179.308594 154.917969 " clip-rule="nonzero"/></clipPath><clipPath id="3542bc7afe"><path d="M 218 108 L 287 108 L 287 177 L 218 177 Z M 218 108 " clip-rule="nonzero"/></clipPath><clipPath id="f6eb07bd4b"><path d="M 231.34375 103.4375 L 291.6875 163.78125 L 274.054688 181.417969 L 213.707031 121.074219 Z M 231.34375 103.4375 " clip-rule="nonzero"/></clipPath><clipPath id="e4d6060922"><path d="M 240.160156 112.253906 L 282.824219 154.917969 C 285.164062 157.257812 286.476562 160.429688 286.476562 163.734375 C 286.476562 167.042969 285.164062 170.214844 282.824219 172.554688 C 280.488281 174.890625 277.316406 176.207031 274.007812 176.207031 C 270.699219 176.207031 267.527344 174.890625 265.191406 172.554688 L 222.527344 129.890625 C 220.1875 127.550781 218.875 124.378906 218.875 121.074219 C 218.875 117.765625 220.1875 114.59375 222.527344 112.253906 C 224.863281 109.917969 228.035156 108.601562 231.34375 108.601562 C 234.652344 108.601562 237.824219 109.917969 240.160156 112.253906 Z M 240.160156 112.253906 " clip-rule="nonzero"/></clipPath></defs><path fill="#ffc702" d="M 324.691406 115.460938 C 317.128906 66.863281 304.355469 56.34375 253.050781 43.964844 C 226.3125 37.507812 147.464844 38.105469 121.179688 43.964844 C 69.667969 55.445312 56.519531 66.777344 49.539062 115.460938 C 43.609375 156.832031 44.191406 215.898438 49.539062 247.324219 C 57.796875 295.8125 69.667969 307.339844 121.179688 318.824219 C 147.464844 324.683594 226.3125 325.277344 253.050781 318.824219 C 304.355469 306.441406 314.085938 295.355469 324.691406 247.324219 C 331.371094 217.085938 330.578125 153.261719 324.691406 115.460938 Z M 324.691406 115.460938 " fill-opacity="1" fill-rule="nonzero"/><g clip-path="url(#6745523412)"><g clip-path="url(#579aeb6953)"><g clip-path="url(#6fb658c510)"><path fill="#ffffff" d="M 83.351562 241.671875 L 143.625 181.394531 L 161.261719 199.027344 L 100.984375 259.304688 Z M 83.351562 241.671875 " fill-opacity="1" fill-rule="nonzero"/></g></g></g><g clip-path="url(#e212639a56)"><g clip-path="url(#5fa83212af)"><g clip-path="url(#7c796941de)"><path fill="#ffffff" d="M 144.203125 181.371094 L 204.476562 241.648438 L 186.84375 259.28125 L 126.566406 199.007812 Z M 144.203125 181.371094 " fill-opacity="1" fill-rule="nonzero"/></g></g></g><g clip-path="url(#fe2adb32ee)"><g clip-path="url(#71eb233e4e)"><g clip-path="url(#fd013ed5f5)"><path fill="#ffffff" d="M 170.492188 241.671875 L 230.769531 181.394531 L 248.402344 199.027344 L 188.125 259.304688 Z M 170.492188 241.671875 " fill-opacity="1" fill-rule="nonzero"/></g></g></g><g clip-path="url(#ffff14622b)"><g clip-path="url(#30f124a75b)"><g clip-path="url(#e75f55df8b)"><path fill="#ffffff" d="M 231.34375 181.371094 L 291.621094 241.648438 L 273.984375 259.28125 L 213.707031 199.007812 Z M 231.34375 181.371094 " fill-opacity="1" fill-rule="nonzero"/></g></g></g><g clip-path="url(#6aa603759a)"><g clip-path="url(#d1ad431a4f)"><g clip-path="url(#8bbaac4c0f)"><path fill="#ffffff" d="M 83.351562 163.734375 L 143.625 103.460938 L 161.261719 121.09375 L 100.984375 181.371094 Z M 83.351562 163.734375 " fill-opacity="1" fill-rule="nonzero"/></g></g></g><g clip-path="url(#769e5b1400)"><g clip-path="url(#c164821dd0)"><g clip-path="url(#1371857031)"><path fill="#ffffff" d="M 144.203125 103.4375 L 204.476562 163.714844 L 186.84375 181.347656 L 126.566406 121.074219 Z M 144.203125 103.4375 " fill-opacity="1" fill-rule="nonzero"/></g></g></g><g clip-path="url(#560454a084)"><g clip-path="url(#a0a6912aab)"><g clip-path="url(#502ebef1f6)"><path fill="#ffffff" d="M 170.492188 163.734375 L 230.769531 103.460938 L 248.402344 121.09375 L 188.125 181.371094 Z M 170.492188 163.734375 " fill-opacity="1" fill-rule="nonzero"/></g></g></g><g clip-path="url(#3542bc7afe)"><g clip-path="url(#f6eb07bd4b)"><g clip-path="url(#e4d6060922)"><path fill="#ffffff" d="M 231.34375 103.4375 L 291.621094 163.714844 L 273.984375 181.347656 L 213.707031 121.074219 Z M 231.34375 103.4375 " fill-opacity="1" fill-rule="nonzero"/></g></g></g></svg>