<svg xmlns="http://www.w3.org/2000/svg" xmlns:xlink="http://www.w3.org/1999/xlink" width="500" zoomAndPan="magnify" viewBox="0 0 375 374.999991" height="500" preserveAspectRatio="xMidYMid meet" version="1.0"><defs><clipPath id="b3f6ab4676"><path d="M 99 66 L 207 66 L 207 174 L 99 174 Z M 99 66 " clip-rule="nonzero"/></clipPath><clipPath id="d3d14184d2"><path d="M 91.609375 153.460938 L 187.136719 57.933594 L 215.050781 85.851562 L 119.527344 181.375 Z M 91.609375 153.460938 " clip-rule="nonzero"/></clipPath><clipPath id="827e8a8562"><path d="M 105.570312 139.5 L 173.105469 71.964844 C 176.804688 68.265625 181.828125 66.183594 187.0625 66.183594 C 192.296875 66.183594 197.316406 68.265625 201.019531 71.964844 C 204.722656 75.667969 206.800781 80.6875 206.800781 85.925781 C 206.800781 91.160156 204.722656 96.179688 201.019531 99.882812 L 133.484375 167.417969 C 129.78125 171.121094 124.761719 173.199219 119.527344 173.199219 C 114.292969 173.199219 109.269531 171.121094 105.570312 167.417969 C 101.867188 163.714844 99.785156 158.695312 99.785156 153.460938 C 99.785156 148.222656 101.867188 143.203125 105.570312 139.5 Z M 105.570312 139.5 " clip-rule="nonzero"/></clipPath><clipPath id="cf82ad0444"><path d="M 168 66 L 276 66 L 276 174 L 168 174 Z M 168 66 " clip-rule="nonzero"/></clipPath><clipPath id="14b641f0f6"><path d="M 187.9375 58.007812 L 283.460938 153.53125 L 255.546875 181.449219 L 160.023438 85.925781 Z M 187.9375 58.007812 " clip-rule="nonzero"/></clipPath><clipPath id="7bdd82b52f"><path d="M 201.894531 71.964844 L 269.429688 139.503906 C 273.132812 143.203125 275.210938 148.226562 275.210938 153.460938 C 275.210938 158.695312 273.132812 163.714844 269.429688 167.417969 C 265.730469 171.121094 260.707031 173.199219 255.472656 173.199219 C 250.238281 173.199219 245.21875 171.121094 241.515625 167.417969 L 173.980469 99.882812 C 170.277344 96.179688 168.199219 91.160156 168.199219 85.925781 C 168.199219 80.6875 170.277344 75.667969 173.980469 71.964844 C 177.679688 68.265625 182.703125 66.183594 187.9375 66.183594 C 193.171875 66.183594 198.195312 68.265625 201.894531 71.964844 Z M 201.894531 71.964844 " clip-rule="nonzero"/></clipPath><clipPath id="ecaeda0e06"><path d="M 168 195 L 276 195 L 276 303 L 168 303 Z M 168 195 " clip-rule="nonzero"/></clipPath><clipPath id="039a0182e4"><path d="M 283.382812 215.414062 L 187.855469 310.9375 L 159.941406 283.023438 L 255.464844 187.496094 Z M 283.382812 215.414062 " clip-rule="nonzero"/></clipPath><clipPath id="6b3afc0ecf"><path d="M 269.421875 229.371094 L 201.886719 296.90625 C 198.183594 300.609375 193.164062 302.6875 187.929688 302.6875 C 182.695312 302.6875 177.671875 300.609375 173.972656 296.90625 C 170.269531 293.207031 168.191406 288.183594 168.191406 282.949219 C 168.191406 277.714844 170.269531 272.691406 173.972656 268.992188 L 241.507812 201.457031 C 245.210938 197.753906 250.230469 195.675781 255.464844 195.675781 C 260.699219 195.675781 265.722656 197.753906 269.421875 201.457031 C 273.125 205.15625 275.203125 210.179688 275.203125 215.414062 C 275.203125 220.648438 273.125 225.667969 269.421875 229.371094 Z M 269.421875 229.371094 " clip-rule="nonzero"/></clipPath><clipPath id="7295fab977"><path d="M 99 195 L 207 195 L 207 303 L 99 303 Z M 99 195 " clip-rule="nonzero"/></clipPath><clipPath id="f75ff6b1f2"><path d="M 187.054688 310.863281 L 91.53125 215.339844 L 119.445312 187.425781 L 214.96875 282.949219 Z M 187.054688 310.863281 " clip-rule="nonzero"/></clipPath><clipPath id="875345cced"><path d="M 173.097656 296.90625 L 105.558594 229.371094 C 101.859375 225.667969 99.777344 220.648438 99.777344 215.414062 C 99.777344 210.179688 101.859375 205.15625 105.558594 201.457031 C 109.261719 197.753906 114.28125 195.671875 119.519531 195.671875 C 124.753906 195.671875 129.773438 197.753906 133.476562 201.457031 L 201.011719 268.992188 C 204.714844 272.691406 206.792969 277.714844 206.792969 282.949219 C 206.792969 288.183594 204.714844 293.203125 201.011719 296.90625 C 197.308594 300.609375 192.289062 302.6875 187.054688 302.6875 C 181.820312 302.6875 176.796875 300.609375 173.097656 296.90625 Z M 173.097656 296.90625 " clip-rule="nonzero"/></clipPath></defs><path fill="#ffc702" d="M 324.691406 115.460938 C 317.128906 66.863281 304.355469 56.34375 253.050781 43.964844 C 226.3125 37.507812 147.464844 38.105469 121.179688 43.964844 C 69.667969 55.445312 56.519531 66.777344 49.539062 115.460938 C 43.609375 156.832031 44.191406 215.898438 49.539062 247.324219 C 57.796875 295.8125 69.667969 307.339844 121.179688 318.824219 C 147.464844 324.683594 226.3125 325.277344 253.050781 318.824219 C 304.355469 306.441406 314.085938 295.355469 324.691406 247.324219 C 331.371094 217.085938 330.578125 153.261719 324.691406 115.460938 Z M 324.691406 115.460938 " fill-opacity="1" fill-rule="nonzero"/><g clip-path="url(#b3f6ab4676)"><g clip-path="url(#d3d14184d2)"><g clip-path="url(#827e8a8562)"><path fill="#ffffff" d="M 91.609375 153.460938 L 187.027344 58.042969 L 214.941406 85.960938 L 119.527344 181.375 Z M 91.609375 153.460938 " fill-opacity="1" fill-rule="nonzero"/></g></g></g><g clip-path="url(#cf82ad0444)"><g clip-path="url(#14b641f0f6)"><g clip-path="url(#7bdd82b52f)"><path fill="#ffffff" d="M 187.9375 58.007812 L 283.351562 153.421875 L 255.4375 181.339844 L 160.023438 85.925781 Z M 187.9375 58.007812 " fill-opacity="1" fill-rule="nonzero"/></g></g></g><g clip-path="url(#ecaeda0e06)"><g clip-path="url(#039a0182e4)"><g clip-path="url(#6b3afc0ecf)"><path fill="#ffffff" d="M 283.382812 215.414062 L 187.964844 310.828125 L 160.050781 282.914062 L 255.464844 187.496094 Z M 283.382812 215.414062 " fill-opacity="1" fill-rule="nonzero"/></g></g></g><g clip-path="url(#7295fab977)"><g clip-path="url(#f75ff6b1f2)"><g clip-path="url(#875345cced)"><path fill="#ffffff" d="M 187.054688 310.863281 L 91.636719 215.449219 L 119.554688 187.535156 L 214.96875 282.949219 Z M 187.054688 310.863281 " fill-opacity="1" fill-rule="nonzero"/></g></g></g></svg>