<svg xmlns="http://www.w3.org/2000/svg" xmlns:xlink="http://www.w3.org/1999/xlink" width="500" zoomAndPan="magnify" viewBox="0 0 375 374.999991" height="500" preserveAspectRatio="xMidYMid meet" version="1.0"><defs><clipPath id="e5b4fc00b8"><path d="M 99 84 L 207 84 L 207 192 L 99 192 Z M 99 84 " clip-rule="nonzero"/></clipPath><clipPath id="24b1df257c"><path d="M 91.609375 171.90625 L 187.136719 76.382812 L 215.050781 104.296875 L 119.527344 199.824219 Z M 91.609375 171.90625 " clip-rule="nonzero"/></clipPath><clipPath id="0f8d64195b"><path d="M 105.570312 157.949219 L 173.105469 90.414062 C 176.804688 86.710938 181.828125 84.632812 187.0625 84.632812 C 192.296875 84.632812 197.316406 86.710938 201.019531 90.414062 C 204.722656 94.117188 206.800781 99.136719 206.800781 104.371094 C 206.800781 109.605469 204.722656 114.628906 201.019531 118.328125 L 133.484375 185.863281 C 129.78125 189.566406 124.761719 191.648438 119.527344 191.648438 C 114.292969 191.648438 109.269531 189.566406 105.570312 185.863281 C 101.867188 182.164062 99.785156 177.140625 99.785156 171.90625 C 99.785156 166.671875 101.867188 161.652344 105.570312 157.949219 Z M 105.570312 157.949219 " clip-rule="nonzero"/></clipPath><clipPath id="794b05f854"><path d="M 168 84 L 276 84 L 276 192 L 168 192 Z M 168 84 " clip-rule="nonzero"/></clipPath><clipPath id="4fb79e6417"><path d="M 187.9375 76.457031 L 283.460938 171.980469 L 255.546875 199.894531 L 160.023438 104.371094 Z M 187.9375 76.457031 " clip-rule="nonzero"/></clipPath><clipPath id="83dae39ec0"><path d="M 201.894531 90.414062 L 269.429688 157.949219 C 273.132812 161.652344 275.210938 166.671875 275.210938 171.90625 C 275.210938 177.144531 273.132812 182.164062 269.429688 185.867188 C 265.730469 189.566406 260.707031 191.648438 255.472656 191.648438 C 250.238281 191.648438 245.21875 189.566406 241.515625 185.867188 L 173.980469 118.328125 C 170.277344 114.628906 168.199219 109.605469 168.199219 104.371094 C 168.199219 99.136719 170.277344 94.117188 173.980469 90.414062 C 177.679688 86.710938 182.703125 84.632812 187.9375 84.632812 C 193.171875 84.632812 198.195312 86.710938 201.894531 90.414062 Z M 201.894531 90.414062 " clip-rule="nonzero"/></clipPath><clipPath id="3e1083ceaa"><path d="M 167.75 172.125 L 207.230469 172.125 L 207.230469 298.578125 L 167.75 298.578125 Z M 167.75 172.125 " clip-rule="nonzero"/></clipPath><clipPath id="05dcee2bc8"><path d="M 207.230469 191.863281 L 207.230469 278.800781 C 207.230469 284.039062 205.152344 289.058594 201.449219 292.761719 C 197.746094 296.460938 192.726562 298.542969 187.492188 298.542969 C 182.253906 298.542969 177.234375 296.460938 173.53125 292.761719 C 169.832031 289.058594 167.75 284.039062 167.75 278.800781 L 167.75 191.863281 C 167.75 186.628906 169.832031 181.605469 173.53125 177.90625 C 177.234375 174.203125 182.253906 172.125 187.492188 172.125 C 192.726562 172.125 197.746094 174.203125 201.449219 177.90625 C 205.152344 181.605469 207.230469 186.628906 207.230469 191.863281 Z M 207.230469 191.863281 " clip-rule="nonzero"/></clipPath></defs><path fill="#ffc702" d="M 324.691406 115.460938 C 317.128906 66.863281 304.355469 56.34375 253.050781 43.964844 C 226.3125 37.507812 147.464844 38.105469 121.179688 43.964844 C 69.667969 55.445312 56.519531 66.777344 49.539062 115.460938 C 43.609375 156.832031 44.191406 215.898438 49.539062 247.324219 C 57.796875 295.8125 69.667969 307.339844 121.179688 318.824219 C 147.464844 324.683594 226.3125 325.277344 253.050781 318.824219 C 304.355469 306.441406 314.085938 295.355469 324.691406 247.324219 C 331.371094 217.085938 330.578125 153.261719 324.691406 115.460938 Z M 324.691406 115.460938 " fill-opacity="1" fill-rule="nonzero"/><g clip-path="url(#e5b4fc00b8)"><g clip-path="url(#24b1df257c)"><g clip-path="url(#0f8d64195b)"><path fill="#ffffff" d="M 91.609375 171.90625 L 187.027344 76.492188 L 214.941406 104.40625 L 119.527344 199.824219 Z M 91.609375 171.90625 " fill-opacity="1" fill-rule="nonzero"/></g></g></g><g clip-path="url(#794b05f854)"><g clip-path="url(#4fb79e6417)"><g clip-path="url(#83dae39ec0)"><path fill="#ffffff" d="M 187.9375 76.457031 L 283.351562 171.871094 L 255.4375 199.789062 L 160.023438 104.371094 Z M 187.9375 76.457031 " fill-opacity="1" fill-rule="nonzero"/></g></g></g><g clip-path="url(#3e1083ceaa)"><g clip-path="url(#05dcee2bc8)"><path fill="#ffffff" d="M 207.230469 172.125 L 207.230469 298.578125 L 167.75 298.578125 L 167.75 172.125 Z M 207.230469 172.125 " fill-opacity="1" fill-rule="nonzero"/></g></g></svg>